<svg width="26" height="25" viewBox="0 0 26 25" fill="none" xmlns="http://www.w3.org/2000/svg">
<g id="Group 758">
<path id="Vector" d="M9.69633 23.8263C10.2966 23.8263 10.7833 23.3396 10.7833 22.7393C10.7833 22.139 10.2966 21.6523 9.69633 21.6523C9.09602 21.6523 8.60938 22.139 8.60938 22.7393C8.60938 23.3396 9.09602 23.8263 9.69633 23.8263Z" stroke="#BDBDBD" stroke-width="2" stroke-linecap="round" stroke-linejoin="round"/>
<path id="Vector_2" d="M21.6514 23.8263C22.2517 23.8263 22.7384 23.3396 22.7384 22.7393C22.7384 22.139 22.2517 21.6523 21.6514 21.6523C21.0511 21.6523 20.5645 22.139 20.5645 22.7393C20.5645 23.3396 21.0511 23.8263 21.6514 23.8263Z" stroke="#BDBDBD" stroke-width="2" stroke-linecap="round" stroke-linejoin="round"/>
<path id="Vector_3" d="M1 1H5.34783L8.26087 15.5543C8.36027 16.0548 8.63251 16.5043 9.02994 16.8242C9.42737 17.1442 9.92467 17.3141 10.4348 17.3043H21C21.5101 17.3141 22.0074 17.1442 22.4048 16.8242C22.8023 16.5043 23.0745 16.0548 23.1739 15.5543L24.913 6.43478H6.43478" stroke="#BDBDBD" stroke-width="2" stroke-linecap="round" stroke-linejoin="round"/>
</g>
</svg>
