<svg width="29" height="26" viewBox="0 0 29 26" fill="none" xmlns="http://www.w3.org/2000/svg">
<g id="Frame 267">
<g id="Group 778">
<g id="Group 758">
<path id="Vector" d="M10.6954 25.0001C11.2957 25.0001 11.7823 24.5134 11.7823 23.9131C11.7823 23.3128 11.2957 22.8262 10.6954 22.8262C10.095 22.8262 9.6084 23.3128 9.6084 23.9131C9.6084 24.5134 10.095 25.0001 10.6954 25.0001Z" stroke="#FF0000" stroke-width="2" stroke-linecap="round" stroke-linejoin="round"/>
<path id="Vector_2" d="M22.6524 25.0001C23.2527 25.0001 23.7393 24.5134 23.7393 23.9131C23.7393 23.3128 23.2527 22.8262 22.6524 22.8262C22.0521 22.8262 21.5654 23.3128 21.5654 23.9131C21.5654 24.5134 22.0521 25.0001 22.6524 25.0001Z" stroke="#FF0000" stroke-width="2" stroke-linecap="round" stroke-linejoin="round"/>
<g id="Vector_3">
<path d="M1 2.17383H6.34782L9.26087 16.7282C9.36026 17.2286 9.6325 17.6781 10.0299 17.9981C10.4274 18.318 10.9247 18.488 11.4348 18.4782H22C22.5101 18.488 23.0074 18.318 23.4048 17.9981C23.8023 17.6781 24.0745 17.2286 24.1739 16.7282L25.913 7.60861H7.43478" fill="#FF0000"/>
<path d="M1 2.17383H6.34782L9.26087 16.7282C9.36026 17.2286 9.6325 17.6781 10.0299 17.9981C10.4274 18.318 10.9247 18.488 11.4348 18.4782H22C22.5101 18.488 23.0074 18.318 23.4048 17.9981C23.8023 17.6781 24.0745 17.2286 24.1739 16.7282L25.913 7.60861H7.43478" stroke="#FF0000" stroke-width="2" stroke-linecap="round" stroke-linejoin="round"/>
</g>
</g>
</g>
</g>
</svg>
