<svg width="30" height="30" viewBox="0 0 30 30" fill="none" xmlns="http://www.w3.org/2000/svg">
<g id="clarity:help-solid" clip-path="url(#clip0_307_360)">
<path id="Vector" d="M15.0003 1.6665C12.3632 1.6665 9.78538 2.44849 7.59273 3.91358C5.40007 5.37866 3.69111 7.46104 2.68194 9.89739C1.67277 12.3337 1.40872 15.0146 1.92319 17.601C2.43766 20.1875 3.70754 22.5632 5.57224 24.4279C7.43694 26.2926 9.81271 27.5625 12.3991 28.077C14.9855 28.5914 17.6664 28.3274 20.1028 27.3182C22.5391 26.3091 24.6215 24.6001 26.0866 22.4074C27.5517 20.2148 28.3337 17.6369 28.3337 14.9998C28.3337 11.4636 26.9289 8.07223 24.4284 5.57175C21.9279 3.07126 18.5366 1.6665 15.0003 1.6665ZM14.817 23.2082C14.5451 23.2082 14.2792 23.1275 14.0531 22.9764C13.827 22.8254 13.6507 22.6106 13.5467 22.3594C13.4426 22.1081 13.4154 21.8316 13.4684 21.5649C13.5215 21.2982 13.6524 21.0532 13.8447 20.8609C14.037 20.6686 14.282 20.5376 14.5487 20.4846C14.8155 20.4315 15.0919 20.4588 15.3432 20.5628C15.5944 20.6669 15.8092 20.8431 15.9603 21.0693C16.1114 21.2954 16.192 21.5612 16.192 21.8332C16.192 22.1978 16.0471 22.5476 15.7893 22.8054C15.5314 23.0633 15.1817 23.2082 14.817 23.2082ZM15.9587 16.4915V17.9248C15.9569 18.2163 15.8437 18.4961 15.6423 18.7069C15.4409 18.9176 15.1665 19.0433 14.8753 19.0582H14.7837C14.6363 19.0637 14.4893 19.0401 14.3512 18.9885C14.213 18.937 14.0865 18.8586 13.9788 18.7579C13.8711 18.6571 13.7844 18.5361 13.7237 18.4017C13.6631 18.2673 13.6296 18.1222 13.6253 17.9748V15.6748C13.6116 15.5412 13.6251 15.4062 13.6651 15.278C13.7052 15.1498 13.7708 15.0311 13.8581 14.929C13.9453 14.8269 14.0524 14.7436 14.1729 14.6842C14.2933 14.6247 14.4246 14.5904 14.5587 14.5832C15.867 14.4832 18.042 13.9998 18.042 11.8748C18.042 10.3498 16.867 9.3165 15.1837 9.3165C14.5455 9.32704 13.9172 9.47549 13.3419 9.75166C12.7665 10.0278 12.2577 10.4252 11.8503 10.9165C11.6963 11.0802 11.497 11.1944 11.2779 11.2446C11.0587 11.2947 10.8296 11.2786 10.6197 11.1982C10.4097 11.1178 10.2285 10.9767 10.0989 10.793C9.96932 10.6093 9.8973 10.3912 9.892 10.1665C9.89691 9.85235 10.0257 9.55285 10.2503 9.33317C10.8692 8.61671 11.6376 8.04467 12.5015 7.65736C13.3654 7.27005 14.3037 7.0769 15.2503 7.0915C18.3337 7.0915 20.4837 9.00817 20.4837 11.7582C20.4837 14.2998 18.842 15.9998 15.9587 16.4915Z" fill="#FF0000"/>
</g>
<defs>
<clipPath id="clip0_307_360">
<rect width="30" height="30" fill="white"/>
</clipPath>
</defs>
</svg>
