<svg width="30" height="30" viewBox="0 0 30 30" fill="none" xmlns="http://www.w3.org/2000/svg">
<g id="distributor-icon 1" clip-path="url(#clip0_307_358)">
<path id="Vector" d="M14.9997 6.99655C17.2069 6.99655 19.2072 7.89243 20.6562 9.34084L20.6603 9.34435C22.1076 10.7928 23.0029 12.7931 23.0029 14.9997C23.0029 17.2098 22.107 19.2113 20.6586 20.6592L20.6258 20.6891C19.1797 22.1199 17.1911 23.0035 14.9997 23.0035C12.7896 23.0035 10.7881 22.1076 9.34025 20.6592C7.89184 19.2113 6.99596 17.2098 6.99596 14.9997C6.99596 12.7925 7.89243 10.7904 9.34142 9.34201C10.7881 7.89243 12.7896 6.99655 14.9997 6.99655ZM5.92723 5.28857L7.99321 7.35396C8.1725 7.53326 8.1725 7.82446 7.99321 8.00434C7.81391 8.18363 7.52212 8.18363 7.34283 8.00434L5.29209 5.9536L5.34892 7.3106C5.3501 7.32408 5.34775 7.33756 5.34306 7.35103C5.31079 7.45185 5.24741 7.53985 5.16201 7.6024C5.07717 7.66555 4.97423 7.69966 4.86846 7.69966C4.73077 7.70142 4.60421 7.64575 4.51339 7.55611C4.42082 7.4647 4.3634 7.34049 4.36222 7.20104C4.32414 6.42117 4.24328 5.54521 4.24269 4.77589C4.24328 4.61886 4.2966 4.48761 4.39035 4.39504C4.48234 4.30422 4.61007 4.25148 4.76007 4.24914C5.41455 4.22395 6.52078 4.31359 7.20104 4.36281C7.33697 4.36398 7.46177 4.41964 7.55142 4.50929C7.64279 4.60043 7.69583 4.72306 7.69966 4.85206V4.86495C7.69966 5.00206 7.64341 5.12862 7.55259 5.21943C7.46131 5.31121 7.33806 5.36412 7.20865 5.36709L7.20045 5.36767C6.78444 5.36884 6.46628 5.33955 6.1493 5.30908L5.92723 5.28857ZM1.71853 14.5474H4.63937C4.89366 14.5474 5.09932 14.753 5.09932 15.0073C5.09932 15.2616 4.89366 15.4673 4.63937 15.4673H1.73962L2.73979 16.3866C2.74976 16.3954 2.75796 16.4065 2.76382 16.4188C2.81245 16.5149 2.82944 16.6216 2.81362 16.7253C2.79803 16.8299 2.74937 16.9268 2.67476 17.0018C2.58159 17.0963 2.45475 17.1501 2.32203 17.1512C2.19254 17.1518 2.06364 17.1044 1.96461 17.0071C1.38572 16.4821 0.709561 15.9202 0.16465 15.3765C0.0539099 15.2646 -0.000581251 15.1339 4.67477e-06 15.0026C0.00117653 14.8732 0.0539099 14.746 0.158205 14.6382C0.602923 14.1572 1.449 13.4388 1.96461 12.9923C2.05811 12.9 2.1842 12.8482 2.31558 12.8482C2.44097 12.8482 2.56636 12.8945 2.66304 12.9859L2.67241 12.9947C2.71892 13.0412 2.75579 13.0965 2.78093 13.1573C2.80606 13.2182 2.81896 13.2833 2.81889 13.3492C2.81889 13.4745 2.77319 13.5999 2.68062 13.6972L2.67476 13.7036C2.38179 13.999 2.1357 14.2023 1.88962 14.405L1.71853 14.5474ZM5.28857 24.0716L7.35396 22.0062C7.44016 21.9201 7.55702 21.8717 7.67886 21.8717C7.8007 21.8717 7.91755 21.9201 8.00375 22.0062C8.04653 22.0489 8.08045 22.0997 8.1036 22.1555C8.12675 22.2114 8.13867 22.2712 8.13867 22.3317C8.13867 22.3922 8.12675 22.452 8.1036 22.5079C8.08045 22.5637 8.04653 22.6145 8.00375 22.6572L5.95301 24.7079L7.3106 24.6505C7.32408 24.6499 7.33756 24.6523 7.35103 24.6564C7.45298 24.6898 7.54087 24.753 7.60239 24.838C7.66522 24.923 7.69929 25.0258 7.69966 25.1315C7.70022 25.1973 7.68783 25.2624 7.6632 25.3234C7.63857 25.3843 7.60218 25.4398 7.55611 25.4866C7.50977 25.5339 7.45455 25.5715 7.39361 25.5974C7.33267 25.6232 7.26722 25.6367 7.20104 25.6372C6.42058 25.6759 5.54521 25.7561 4.7753 25.7567C4.61827 25.7561 4.48703 25.7028 4.39504 25.6097C4.30422 25.5171 4.25148 25.3899 4.24914 25.2399C4.22336 24.5855 4.31359 23.4792 4.36222 22.7984C4.36326 22.6671 4.41587 22.5415 4.50871 22.4486C4.59985 22.3572 4.72244 22.3039 4.85147 22.2998H4.86436C5.00205 22.2998 5.12803 22.356 5.21943 22.4474C5.31108 22.5386 5.36397 22.6616 5.36709 22.7908L5.36767 22.799C5.36884 23.2156 5.33896 23.5331 5.30849 23.8501L5.28857 24.0716ZM14.5468 28.2803V25.3601C14.5468 25.2381 14.5952 25.1211 14.6815 25.0348C14.7678 24.9486 14.8848 24.9001 15.0067 24.9001C15.261 24.9001 15.4667 25.1058 15.4667 25.3601V28.2598L16.3866 27.2596C16.3954 27.2497 16.4065 27.2421 16.4188 27.2356C16.5131 27.1874 16.62 27.17 16.7247 27.1858C16.826 27.201 16.9233 27.2473 17.0012 27.3247C17.0482 27.3707 17.0857 27.4255 17.1114 27.4861C17.1371 27.5466 17.1507 27.6116 17.1512 27.6774C17.1518 27.8069 17.1038 27.9358 17.0065 28.0348C16.4815 28.6143 15.9202 29.2899 15.3765 29.8348C15.2646 29.9455 15.1339 30.0006 15.0026 30C14.8732 29.9988 14.746 29.9455 14.6382 29.8412C14.1571 29.3965 13.4388 28.551 12.9917 28.0348C12.8999 27.9413 12.8484 27.8155 12.8482 27.6844C12.8477 27.555 12.897 27.4304 12.9859 27.3364L12.9947 27.3276C13.0887 27.2335 13.2162 27.1806 13.3492 27.1805C13.4745 27.1805 13.5999 27.2262 13.6972 27.3194L13.7031 27.3247C13.9989 27.6182 14.2023 27.8637 14.405 28.1098L14.5468 28.2803ZM24.0722 24.7114L22.0062 22.646C21.8269 22.4662 21.8269 22.175 22.0062 21.9957C22.1855 21.8164 22.4773 21.8164 22.6566 21.9957L24.7073 24.0464L24.6505 22.6888C24.6493 22.6759 24.6517 22.6625 24.6564 22.649C24.6888 22.5481 24.7521 22.4599 24.8374 22.397C24.9225 22.3344 25.0253 22.3003 25.131 22.2998C25.1967 22.2991 25.262 22.3115 25.3229 22.3363C25.3839 22.361 25.4393 22.3976 25.486 22.4439C25.5786 22.5353 25.636 22.6595 25.6372 22.7984C25.6753 23.5788 25.7561 24.4542 25.7567 25.2241C25.7561 25.3812 25.7028 25.5124 25.6091 25.605C25.5171 25.6958 25.3894 25.7479 25.2394 25.7509C24.5849 25.7761 23.4786 25.6864 22.7984 25.6372C22.6669 25.6362 22.5411 25.5836 22.448 25.4907C22.3567 25.3995 22.3037 25.2769 22.2998 25.148V25.1351C22.2998 24.9974 22.356 24.8714 22.4468 24.78C22.5384 24.6887 22.6615 24.6358 22.7908 24.6323L22.799 24.6318C23.215 24.6306 23.5331 24.6605 23.8501 24.6909L24.0722 24.7114ZM28.2809 15.4526H25.3601C25.1058 15.4526 24.8995 15.2464 24.8995 14.9927C24.8995 14.7384 25.1058 14.5327 25.3601 14.5327H28.2592L27.2596 13.6128C27.2497 13.6046 27.2415 13.5935 27.235 13.5806C27.187 13.4863 27.1698 13.3793 27.1858 13.2747C27.2014 13.1702 27.2498 13.0734 27.3241 12.9982C27.4174 12.9035 27.5445 12.8498 27.6774 12.8488C27.8069 12.8482 27.9358 12.8957 28.0348 12.9929C28.6137 13.5179 29.2899 14.0798 29.8348 14.6235C29.9455 14.7349 30 14.8655 29.9994 14.9974C29.9982 15.1269 29.9455 15.254 29.8412 15.3618C29.3965 15.8423 28.5504 16.5612 28.0348 17.0077C27.9412 17.0999 27.8152 17.1517 27.6838 17.1518C27.5547 17.152 27.4303 17.1028 27.3364 17.0141L27.327 17.0053C27.2804 16.9587 27.2435 16.9033 27.2184 16.8424C27.1933 16.7815 27.1804 16.7162 27.1805 16.6503C27.1805 16.5249 27.2262 16.3995 27.3188 16.3022L27.3241 16.2964C27.6176 16.0011 27.8637 15.7977 28.1098 15.595L28.2809 15.4526ZM24.7108 5.92782L22.6455 7.99379C22.4662 8.1725 22.175 8.1725 21.9957 7.99379C21.9529 7.95107 21.919 7.90033 21.8958 7.84448C21.8727 7.78863 21.8608 7.72877 21.8608 7.66831C21.8608 7.60786 21.8727 7.54799 21.8958 7.49214C21.919 7.4363 21.9529 7.38556 21.9957 7.34283L24.0464 5.29209L22.6888 5.34951C22.6753 5.3501 22.6619 5.34775 22.6484 5.34365C22.5475 5.31116 22.4595 5.24758 22.397 5.16201C22.3343 5.07696 22.3002 4.97415 22.2998 4.86846C22.2992 4.80275 22.3116 4.73757 22.3362 4.67665C22.3609 4.61573 22.3972 4.56025 22.4433 4.51339C22.5347 4.42082 22.6595 4.3634 22.7984 4.36222C23.5783 4.32414 24.4542 4.24328 25.2241 4.2427C25.3811 4.24328 25.5124 4.2966 25.6044 4.39035C25.6952 4.48292 25.7479 4.61007 25.7503 4.76007C25.7761 5.41455 25.6858 6.52078 25.6372 7.20104C25.6363 7.33253 25.5837 7.45839 25.4907 7.55142C25.3995 7.64303 25.2766 7.6961 25.1474 7.69966H25.1351C25.0038 7.69952 24.8778 7.6481 24.7839 7.55638C24.6899 7.46466 24.6356 7.33988 24.6323 7.20865L24.6318 7.20104C24.6306 6.78444 24.6605 6.46687 24.6909 6.14988L24.7108 5.92782ZM15.4526 1.7197V4.63995C15.4526 4.76194 15.4042 4.87893 15.3179 4.96519C15.2317 5.05145 15.1147 5.09991 14.9927 5.09991C14.7384 5.09991 14.5321 4.89425 14.5321 4.63995V1.74021L13.6128 2.73979C13.604 2.74976 13.5929 2.75796 13.5806 2.7644C13.4864 2.8127 13.3793 2.82993 13.2747 2.81362C13.1701 2.7985 13.0731 2.75001 12.9982 2.67534C12.9512 2.62928 12.9138 2.57443 12.8881 2.5139C12.8624 2.45338 12.8488 2.38838 12.8482 2.32262C12.8476 2.25645 12.8601 2.19083 12.885 2.1295C12.9098 2.06817 12.9465 2.01234 12.9929 1.9652C13.5179 1.38572 14.0792 0.709561 14.623 0.165236C14.7349 0.0539099 14.8655 -0.000581251 14.9968 4.67468e-06C15.1263 0.00117653 15.2534 0.0539099 15.3612 0.158791C15.8423 0.603509 16.5606 1.449 17.0077 1.9652C17.0995 2.05875 17.151 2.18452 17.1512 2.31558C17.1512 2.44097 17.1055 2.56636 17.0135 2.66304L17.0048 2.67241C16.9582 2.71892 16.9029 2.75579 16.8421 2.78093C16.7813 2.80606 16.7161 2.81896 16.6503 2.8189C16.5249 2.8189 16.3995 2.77319 16.3022 2.68062L16.2964 2.67534C16.0005 2.38179 15.7972 2.13629 15.5944 1.8902L15.4526 1.7197ZM9.659 19.4967L10.0152 19.2219C10.9105 18.6928 12.2617 18.8311 13.1423 18.2164C13.1945 18.1373 13.2513 18.0231 13.3058 17.8989C13.3878 17.7108 13.4622 17.5063 13.5103 17.3669C13.3099 17.1313 13.1388 16.8659 12.9742 16.6034L12.4322 15.7415C12.2347 15.4456 12.1316 15.1755 12.1246 14.9534C12.1216 14.8491 12.1392 14.7548 12.1779 14.6716C12.2177 14.5843 12.2798 14.5116 12.3642 14.4548C12.4035 14.4284 12.448 14.4056 12.4955 14.3886C12.4603 13.9204 12.448 13.3322 12.4697 12.8382C12.4814 12.7216 12.5048 12.6044 12.5371 12.4878C12.6759 11.9933 13.0222 11.5943 13.4523 11.3213C13.689 11.1695 13.9486 11.0564 14.2198 10.9797C14.3921 10.931 14.0734 10.3814 14.2509 10.3621C15.1122 10.2736 16.5044 11.0599 17.1049 11.7103C17.4067 12.0355 17.5954 12.4673 17.6364 13.0386L17.603 14.4448C17.7524 14.4905 17.8491 14.586 17.8883 14.7401C17.9311 14.9118 17.8848 15.1526 17.7389 15.4802C17.7372 15.486 17.7336 15.4919 17.7301 15.4977L17.1126 16.5155C16.8858 16.8887 16.655 17.2643 16.355 17.5596C16.3813 17.5989 16.4095 17.6376 16.4358 17.678C16.5583 17.8567 16.6819 18.0366 16.8389 18.1965C16.8448 18.2018 16.8495 18.2077 16.853 18.2129C17.5637 18.7157 19.2945 18.8375 19.959 19.2072L19.9854 19.2231L20.3363 19.5008C21.3617 18.2862 21.981 16.7147 21.981 14.9997C21.981 13.0703 21.2006 11.3248 19.9373 10.0615C18.6746 8.79886 16.9292 8.0184 14.9997 8.0184C13.072 8.0184 11.326 8.80003 10.0627 10.0633C8.79886 11.3248 8.01782 13.0708 8.01782 14.9997C8.01782 16.7124 8.63538 18.2821 9.659 19.4967Z" fill="#FF0000"/>
</g>
<defs>
<clipPath id="clip0_307_358">
<rect width="29.9994" height="30" fill="white"/>
</clipPath>
</defs>
</svg>
