<svg width="26" height="26" viewBox="0 0 26 26" fill="none" xmlns="http://www.w3.org/2000/svg">
<g id="Frame 264">
<g id="Group 773">
<g id="Layer 11">
<g id="heart">
<path id="Vector" d="M12.9998 22.7501C12.8572 22.751 12.7159 22.7236 12.5839 22.6697C12.4519 22.6158 12.3319 22.5364 12.2307 22.436L3.81315 14.0076C2.7573 12.9407 2.16504 11.5003 2.16504 9.99931C2.16504 8.49827 2.7573 7.05787 3.81315 5.99097C4.87727 4.92986 6.31872 4.33398 7.82149 4.33398C9.32425 4.33398 10.7657 4.92986 11.8298 5.99097L12.9998 7.16097L14.1698 5.99097C15.2339 4.92986 16.6754 4.33398 18.1782 4.33398C19.6809 4.33398 21.1224 4.92986 22.1865 5.99097C23.2423 7.05787 23.8346 8.49827 23.8346 9.99931C23.8346 11.5003 23.2423 12.9407 22.1865 14.0076L13.769 22.436C13.6678 22.5364 13.5477 22.6158 13.4157 22.6697C13.2837 22.7236 13.1424 22.751 12.9998 22.7501ZM7.82149 6.50014C7.36289 6.49806 6.90843 6.587 6.48445 6.7618C6.06046 6.9366 5.67537 7.19379 5.35149 7.51847C4.69722 8.17619 4.32994 9.06618 4.32994 9.99389C4.32994 10.9216 4.69722 11.8116 5.35149 12.4693L12.9998 20.1285L20.6482 12.4693C21.3024 11.8116 21.6697 10.9216 21.6697 9.99389C21.6697 9.06618 21.3024 8.17619 20.6482 7.51847C19.9805 6.88766 19.0967 6.53621 18.1782 6.53621C17.2596 6.53621 16.3759 6.88766 15.7082 7.51847L13.769 9.46847C13.6683 9.57001 13.5485 9.65061 13.4164 9.70561C13.2844 9.76061 13.1428 9.78892 12.9998 9.78892C12.8568 9.78892 12.7152 9.76061 12.5832 9.70561C12.4512 9.65061 12.3314 9.57001 12.2307 9.46847L10.2915 7.51847C9.9676 7.19379 9.58251 6.9366 9.15853 6.7618C8.73454 6.587 8.28009 6.49806 7.82149 6.50014Z" fill="#FF0000"/>
</g>
</g>
</g>
<circle id="Ellipse 26" cx="8" cy="10" r="5" fill="#FF0000"/>
<circle id="Ellipse 27" cx="18" cy="10" r="5" fill="#FF0000"/>
<ellipse id="Ellipse 28" cx="13" cy="15" rx="5" ry="6" fill="#FF0000"/>
<ellipse id="Ellipse 29" cx="13.5" cy="14.5" rx="6.5" ry="3.5" fill="#FF0000"/>
</g>
</svg>
