<svg width="30" height="30" viewBox="0 0 30 30" fill="none" xmlns="http://www.w3.org/2000/svg">
<g id="jam:menu">
<path id="Vector" d="M7.5 8.75H13.75C14.0815 8.75 14.3995 8.8817 14.6339 9.11612C14.8683 9.35054 15 9.66848 15 10C15 10.3315 14.8683 10.6495 14.6339 10.8839C14.3995 11.1183 14.0815 11.25 13.75 11.25H7.5C7.16848 11.25 6.85054 11.1183 6.61612 10.8839C6.3817 10.6495 6.25 10.3315 6.25 10C6.25 9.66848 6.3817 9.35054 6.61612 9.11612C6.85054 8.8817 7.16848 8.75 7.5 8.75ZM16.25 18.75H22.5C22.8315 18.75 23.1495 18.8817 23.3839 19.1161C23.6183 19.3505 23.75 19.6685 23.75 20C23.75 20.3315 23.6183 20.6495 23.3839 20.8839C23.1495 21.1183 22.8315 21.25 22.5 21.25H16.25C15.9185 21.25 15.6005 21.1183 15.3661 20.8839C15.1317 20.6495 15 20.3315 15 20C15 19.6685 15.1317 19.3505 15.3661 19.1161C15.6005 18.8817 15.9185 18.75 16.25 18.75ZM7.5 13.75H22.5C22.8315 13.75 23.1495 13.8817 23.3839 14.1161C23.6183 14.3505 23.75 14.6685 23.75 15C23.75 15.3315 23.6183 15.6495 23.3839 15.8839C23.1495 16.1183 22.8315 16.25 22.5 16.25H7.5C7.16848 16.25 6.85054 16.1183 6.61612 15.8839C6.3817 15.6495 6.25 15.3315 6.25 15C6.25 14.6685 6.3817 14.3505 6.61612 14.1161C6.85054 13.8817 7.16848 13.75 7.5 13.75Z" fill="white"/>
</g>
</svg>
