<svg width="29" height="30" viewBox="0 0 29 30" fill="none" xmlns="http://www.w3.org/2000/svg">
<g id="orders-icon 1" clip-path="url(#clip0_307_355)">
<g id="Group">
<path id="Vector" d="M6.16943 21.2207C5.72754 21.2207 5.37354 20.8643 5.37354 20.4248C5.37354 19.9854 5.73242 19.6289 6.16943 19.6289H11.416C11.8579 19.6289 12.2119 19.9854 12.2119 20.4248C12.2119 20.8643 11.8555 21.2207 11.416 21.2207H6.16943ZM14.917 18.9136C14.6826 18.9136 14.4824 18.7134 14.4824 18.4692C14.4824 18.2349 14.6826 18.0347 14.917 18.0347H16.0522C16.062 18.0347 16.0864 18.0347 16.0962 18.0347C16.4966 18.0444 16.853 18.1226 17.1533 18.313C17.4878 18.5254 17.7319 18.8477 17.8662 19.3262C17.8662 19.3359 17.8662 19.3481 17.8784 19.3604L17.9907 19.8047H27.7295C27.9736 19.8047 28.1641 20.0049 28.1641 20.2393C28.1641 20.2832 28.1519 20.3271 28.1421 20.3735L27.0068 24.9487C26.9629 25.1489 26.7847 25.2832 26.5845 25.2832H19.4605C19.6167 25.8618 19.7729 26.1743 19.9829 26.3184C20.2393 26.4844 20.6836 26.4966 21.4307 26.4844H21.4404H26.4722C26.7163 26.4844 26.9067 26.6846 26.9067 26.9189C26.9067 27.1631 26.7065 27.3535 26.4722 27.3535H21.438C20.5127 27.3633 19.9463 27.3413 19.4897 27.041C19.021 26.7285 18.7769 26.1963 18.5327 25.2271L17.041 19.5801C17.041 19.5679 17.041 19.5679 17.0313 19.5581C16.9653 19.314 16.853 19.1455 16.6968 19.0576C16.5405 18.9575 16.3306 18.9136 16.084 18.9136C16.0718 18.9136 16.062 18.9136 16.0498 18.9136H14.917ZM25.1685 27.8638C25.7593 27.8638 26.2378 28.3423 26.2378 28.9331C26.2378 29.5239 25.7593 30.0024 25.1685 30.0024C24.5776 30.0024 24.0991 29.5239 24.0991 28.9331C24.0991 28.3423 24.5776 27.8638 25.1685 27.8638ZM20.481 27.8638C21.0718 27.8638 21.5503 28.3423 21.5503 28.9331C21.5503 29.5239 21.0718 30.0024 20.481 30.0024C19.8901 30.0024 19.4116 29.5239 19.4116 28.9331C19.4116 28.3423 19.8926 27.8638 20.481 27.8638ZM6.16943 8.19824C5.72754 8.19824 5.37354 7.83936 5.37354 7.40234C5.37354 6.96289 5.73242 6.60645 6.16943 6.60645H18.5034C18.9453 6.60645 19.2993 6.96289 19.2993 7.40234C19.2993 7.8418 18.9429 8.19824 18.5034 8.19824H6.16943ZM1.84814 0H22.7539C23.2642 0 23.728 0.20752 24.0601 0.539551C24.3921 0.871582 24.5996 1.33545 24.5996 1.8457V16.4893H23.0127V1.85303C23.0127 1.78223 22.9834 1.71631 22.937 1.66748C22.8882 1.62109 22.8223 1.5918 22.7515 1.5918H1.84814C1.77734 1.5918 1.71143 1.62109 1.6626 1.66748C1.61377 1.71387 1.58936 1.78223 1.58936 1.85303V25.9424C1.58936 26.0132 1.61865 26.0791 1.66504 26.1279C1.71143 26.1768 1.77734 26.2036 1.85059 26.2036H15.2905C15.4395 26.7871 15.6079 27.2974 15.835 27.7832H1.84814C1.33789 27.7832 0.874023 27.5757 0.541992 27.2437C0.20752 26.9141 0 26.4502 0 25.9399V1.84814C0 1.33789 0.20752 0.871582 0.539551 0.539551C0.871582 0.20752 1.33789 0 1.84814 0ZM6.16943 14.7095C5.72754 14.7095 5.37354 14.353 5.37354 13.9136C5.37354 13.4741 5.73242 13.1177 6.16943 13.1177H18.5034C18.9453 13.1177 19.2993 13.4741 19.2993 13.9136C19.2993 14.353 18.9429 14.7095 18.5034 14.7095H6.16943Z" fill="#FF0000"/>
</g>
</g>
<defs>
<clipPath id="clip0_307_355">
<rect width="28.1616" height="30" fill="white"/>
</clipPath>
</defs>
</svg>
