<svg width="20" height="24" viewBox="0 0 20 24" fill="none" xmlns="http://www.w3.org/2000/svg">
<g id="Group 34241">
<path id="Vector" d="M15.5028 7.54815C15.5028 5.81147 14.8916 4.14592 13.8037 2.91791C12.7158 1.68989 11.2402 1 9.70168 1C8.16313 1 6.68759 1.68989 5.59967 2.91791C4.51175 4.14592 3.90056 5.81147 3.90056 7.54815C3.90056 15.1877 1 17.3704 1 17.3704H18.4034C18.4034 17.3704 15.5028 15.1877 15.5028 7.54815Z" stroke="white" stroke-width="2" stroke-linecap="round" stroke-linejoin="round"/>
<path id="Vector_2" d="M11.4416 21.2222C11.2647 21.5151 11.0109 21.7582 10.7055 21.9272C10.4 22.0962 10.0537 22.1851 9.70127 22.1851C9.3488 22.1851 9.00251 22.0962 8.69708 21.9272C8.39165 21.7582 8.1378 21.5151 7.96094 21.2222" stroke="white" stroke-width="2" stroke-linecap="round" stroke-linejoin="round"/>
</g>
</svg>
