<svg width="27" height="30" viewBox="0 0 27 30" fill="none" xmlns="http://www.w3.org/2000/svg">
<g id="privacy-document-icon 1" clip-path="url(#clip0_307_363)">
<g id="Group">
<path id="Vector" fill-rule="evenodd" clip-rule="evenodd" d="M18.4521 12.7026C21.3867 14.563 24.0381 15.4419 26.3135 15.2344C26.7114 23.2715 23.7427 28.02 18.4814 30C13.4009 28.1445 10.3979 23.6035 10.6201 15.1123C13.291 15.2515 15.9131 14.6753 18.4521 12.7026ZM4.6167 12.71C4.2749 12.71 3.99902 12.4072 3.99902 12.0337C3.99902 11.6602 4.2749 11.3574 4.6167 11.3574H8.26172C8.60352 11.3574 8.87939 11.6602 8.87939 12.0337C8.87939 12.4072 8.60352 12.71 8.26172 12.71H4.6167ZM19.7925 4.09912H22.0044C22.439 4.09912 22.8345 4.27734 23.1226 4.56299C23.4082 4.84863 23.5864 5.24658 23.5864 5.68115V12.5854C23.1421 12.4316 22.6904 12.2534 22.2314 12.0557V5.68115C22.2314 5.62012 22.207 5.56152 22.1631 5.52246C22.1216 5.48096 22.0654 5.4541 22.0044 5.4541H19.7925V10.8325C19.3481 10.5811 18.8989 10.3101 18.4448 10.022L18.4375 10.0269V1.58203C18.4375 1.521 18.4131 1.4624 18.3691 1.42334C18.3301 1.38184 18.2715 1.35498 18.2104 1.35498H1.58203C1.521 1.35498 1.4624 1.37939 1.42334 1.42334C1.37939 1.46484 1.35498 1.521 1.35498 1.58203V20.3662C1.35498 20.4272 1.37939 20.4858 1.42334 20.5249C1.46484 20.5664 1.521 20.5933 1.58203 20.5933H8.74023C8.83301 21.0571 8.93799 21.5088 9.05273 21.9458H5.14648V21.9482V24.4653C5.14648 24.5264 5.1709 24.585 5.21484 24.624C5.25635 24.6655 5.3125 24.6924 5.37354 24.6924H9.99512C10.1978 25.1636 10.4199 25.6152 10.6543 26.0474H5.37354C4.93896 26.0474 4.54346 25.8691 4.25537 25.5835C3.96973 25.2979 3.7915 24.9023 3.7915 24.4653V21.9482H1.58203C1.14746 21.9482 0.751953 21.77 0.463867 21.4844C0.178223 21.1963 0 20.8008 0 20.3662V1.58203C0 1.14502 0.178223 0.751953 0.463867 0.463867C0.749512 0.178223 1.14502 0 1.58203 0H18.2104C18.645 0 19.0405 0.178223 19.3286 0.463867C19.6143 0.749512 19.7925 1.14746 19.7925 1.58203V4.09912ZM4.6167 5.46875C4.2749 5.46875 3.99902 5.16602 3.99902 4.79248C3.99902 4.41895 4.2749 4.11621 4.6167 4.11621H14.7437C15.0854 4.11621 15.3613 4.41895 15.3613 4.79248C15.3613 5.16602 15.0854 5.46875 14.7437 5.46875H4.6167ZM4.6167 9.08936C4.2749 9.08936 3.99902 8.78662 3.99902 8.41309C3.99902 8.03955 4.2749 7.73682 4.6167 7.73682H14.7437C15.0854 7.73682 15.3613 8.03955 15.3613 8.41309C15.3613 8.78662 15.0854 9.08936 14.7437 9.08936H4.6167ZM18.5156 15.4517C20.5176 16.7212 22.3242 17.3193 23.877 17.1777C24.1479 22.6587 22.124 25.896 18.5376 27.2461C18.5156 27.2388 18.4937 27.229 18.4692 27.2217V15.4858L18.5156 15.4517ZM18.4546 13.6938C21.0522 15.3394 23.3984 16.1206 25.4126 15.9351C25.7642 23.0493 23.1372 27.251 18.4814 29.0063C13.9844 27.3657 11.3257 23.3447 11.521 15.8276C13.8892 15.9521 16.2085 15.4419 18.4546 13.6938Z" fill="#FF0000"/>
</g>
</g>
<defs>
<clipPath id="clip0_307_363">
<rect width="26.3501" height="30" fill="white"/>
</clipPath>
</defs>
</svg>
