<svg width="27" height="26" viewBox="0 0 27 26" fill="none" xmlns="http://www.w3.org/2000/svg">
<g id="solar:shop-2-bold" clip-path="url(#clip0_162_174)">
<g id="Group">
<path id="Vector" d="M6.5875 12.0599C6.26487 12.3628 5.88056 12.5963 5.4581 12.7429C4.8361 12.9587 4.16231 12.9753 3.53046 12.7904C2.89861 12.6054 2.34012 12.2281 1.93268 11.711C1.42544 11.0672 1.34001 10.3291 1.40289 9.70124C1.46409 9.09013 1.6728 8.49956 1.85548 8.03858C1.85555 8.0384 1.85562 8.03822 1.85569 8.03805L3.37529 4.19412L3.39132 4.15355L3.41083 4.11454C3.41789 4.10041 3.42493 4.08633 3.43195 4.07229C3.70529 3.52554 3.94357 3.04893 4.18267 2.67317C4.44023 2.26842 4.74185 1.90839 5.17719 1.63967L6.5875 12.0599ZM6.5875 12.0599C7.17347 12.6094 7.94761 12.9165 8.75342 12.9165C9.55957 12.9165 10.334 12.6091 10.9201 12.0592C11.5062 12.6091 12.2806 12.9165 13.0868 12.9165C13.8929 12.9165 14.6674 12.6091 15.2534 12.0592C15.8395 12.6091 16.6139 12.9165 17.4201 12.9165C18.2262 12.9165 19.0006 12.6092 19.5866 12.0594C19.9093 12.3622 20.2937 12.5956 20.7162 12.7421C21.3381 12.9577 22.0117 12.9742 22.6434 12.7892C23.2751 12.6042 23.8335 12.2269 24.2408 11.7099C24.7483 11.0658 24.8332 10.3274 24.7702 9.69987C24.7088 9.08887 24.5001 8.49824 24.3182 8.03794L24.318 8.03747L22.797 4.1938L22.781 4.1534L22.7616 4.11454L22.7365 4.06426C22.465 3.52125 22.2281 3.04729 21.9903 2.67342C21.7328 2.2685 21.431 1.90817 20.9947 1.63935C20.5597 1.37042 20.1029 1.26167 19.6259 1.21231C19.1828 1.16645 18.65 1.16647 18.0393 1.1665L17.9921 1.1665H8.18142L8.13418 1.1665C7.52292 1.16647 6.99016 1.16645 6.54705 1.21231C6.06953 1.26173 5.61293 1.37061 5.17767 1.63937L6.5875 12.0599Z" stroke="#BDBDBD" stroke-width="2"/>
<path id="Vector_2" d="M3.42057 22.0207H2.25391C1.7732 22.0207 1.31219 22.2117 0.972275 22.5516C0.632365 22.8915 0.441406 23.3525 0.441406 23.8332C0.441406 24.3139 0.632365 24.7749 0.972275 25.1149C1.31219 25.4548 1.7732 25.6457 2.25391 25.6457H23.9206C24.4013 25.6457 24.8623 25.4548 25.2022 25.1149C25.5421 24.7749 25.7331 24.3139 25.7331 23.8332C25.7331 23.3525 25.5421 22.8915 25.2022 22.5516C24.8623 22.2117 24.4013 22.0207 23.9206 22.0207H22.7539V13.5416V12.5398L21.7522 12.5416C21.1826 12.5425 20.6266 12.3682 20.1596 12.0423L19.5878 11.6432L19.0156 12.0418C18.5634 12.3569 18.0153 12.5416 17.4206 12.5416L17.4188 12.5416C16.8493 12.5425 16.2933 12.3682 15.8262 12.0423L15.2544 11.6432L14.6823 12.0418C14.23 12.3569 13.6819 12.5416 13.0872 12.5416L13.0855 12.5416C12.516 12.5425 11.9599 12.3682 11.4929 12.0423L10.9211 11.6432L10.349 12.0418C9.89668 12.3569 9.34862 12.5416 8.75391 12.5416L8.75217 12.5416C8.18263 12.5425 7.62659 12.3682 7.15956 12.0423L6.58776 11.6432L6.01562 12.0418C5.56335 12.3569 5.01528 12.5416 4.42057 12.5416H3.42057V13.5416V22.0207ZM14.7112 18.6447L14.7119 18.6459C14.7182 18.6568 14.7515 18.7147 14.7724 18.9455C14.7946 19.19 14.7956 19.5167 14.7956 20.0416V22.0207H11.3789V20.0416C11.3789 19.5167 11.3799 19.19 11.402 18.9455C11.423 18.7147 11.4563 18.6568 11.4626 18.6459L11.4632 18.6447C11.5178 18.55 11.5962 18.4713 11.6907 18.4163C11.7042 18.4086 11.7656 18.3766 11.9907 18.3563C12.2356 18.3342 12.5625 18.3332 13.0872 18.3332C13.612 18.3332 13.9389 18.3342 14.1838 18.3563C14.4089 18.3766 14.4702 18.4086 14.4838 18.4163C14.5783 18.4713 14.6567 18.55 14.7112 18.6447Z" stroke="#BDBDBD" stroke-width="2"/>
</g>
</g>
<defs>
<clipPath id="clip0_162_174">
<rect width="26" height="26" fill="white" transform="translate(0.0869141)"/>
</clipPath>
</defs>
</svg>
