<svg width="27" height="26" viewBox="0 0 27 26" fill="none" xmlns="http://www.w3.org/2000/svg">
<g id="solar:shop-2-bold">
<g id="Group">
<path id="Vector" d="M17.9921 2.16669H8.18142C6.87817 2.16669 6.22709 2.16669 5.70275 2.4906C5.1795 2.81344 4.88809 3.39627 4.30526 4.56194L2.78534 8.40669C2.43325 9.29502 2.12667 10.3415 2.71817 11.0923C2.99695 11.4461 3.37907 11.7043 3.81139 11.8308C4.24371 11.9574 4.70473 11.946 5.1303 11.7984C5.55588 11.6507 5.92485 11.3741 6.18589 11.007C6.44692 10.6398 6.58704 10.2005 6.58675 9.75002C6.58675 10.3247 6.81503 10.8758 7.22136 11.2821C7.62769 11.6884 8.17879 11.9167 8.75342 11.9167C9.32806 11.9167 9.87916 11.6884 10.2855 11.2821C10.6918 10.8758 10.9201 10.3247 10.9201 9.75002C10.9201 10.3247 11.1484 10.8758 11.5547 11.2821C11.961 11.6884 12.5121 11.9167 13.0868 11.9167C13.6614 11.9167 14.2125 11.6884 14.6188 11.2821C15.0251 10.8758 15.2534 10.3247 15.2534 9.75002C15.2534 10.3247 15.4817 10.8758 15.888 11.2821C16.2944 11.6884 16.8455 11.9167 17.4201 11.9167C17.9947 11.9167 18.5458 11.6884 18.9522 11.2821C19.3585 10.8758 19.5868 10.3247 19.5868 9.75002C19.5867 10.2004 19.727 10.6396 19.9881 11.0065C20.2492 11.3735 20.6182 11.6499 21.0437 11.7975C21.4692 11.945 21.9302 11.9562 22.3624 11.8297C22.7946 11.7031 23.1766 11.445 23.4553 11.0912C24.0468 10.3404 23.7392 9.29394 23.3882 8.4056L21.8672 4.56194C21.2843 3.39627 20.994 2.81344 20.4697 2.4906C19.9464 2.16669 19.2943 2.16669 17.9921 2.16669Z" fill="#FF0000"/>
<path id="Vector_2" fill-rule="evenodd" clip-rule="evenodd" d="M21.7539 23.0208H23.9206C24.1361 23.0208 24.3427 23.1064 24.4951 23.2588C24.6475 23.4112 24.7331 23.6179 24.7331 23.8333C24.7331 24.0488 24.6475 24.2555 24.4951 24.4079C24.3427 24.5602 24.1361 24.6458 23.9206 24.6458H2.25391C2.03842 24.6458 1.83176 24.5602 1.67938 24.4079C1.52701 24.2555 1.44141 24.0488 1.44141 23.8333C1.44141 23.6179 1.52701 23.4112 1.67938 23.2588C1.83176 23.1064 2.03842 23.0208 2.25391 23.0208H4.42057V13.5417C5.22657 13.5417 5.97299 13.2903 6.58724 12.8624C7.22262 13.3059 7.97908 13.543 8.75391 13.5417C9.55991 13.5417 10.3063 13.2903 10.9206 12.8624C11.556 13.3059 12.3124 13.543 13.0872 13.5417C13.8932 13.5417 14.6397 13.2903 15.2539 12.8624C15.8893 13.3059 16.6457 13.543 17.4206 13.5417C18.2266 13.5417 18.973 13.2903 19.5872 12.8624C20.2226 13.3059 20.9791 13.543 21.7539 13.5417V23.0208ZM10.3789 23.0208H15.7956V20.0417C15.7956 19.0288 15.7956 18.5228 15.5778 18.1458C15.4354 17.8984 15.2302 17.6929 14.9831 17.55C14.6061 17.3333 14.1002 17.3333 13.0872 17.3333C12.0743 17.3333 11.5684 17.3333 11.1914 17.55C10.9443 17.6929 10.7391 17.8984 10.5967 18.1458C10.3789 18.5228 10.3789 19.0288 10.3789 20.0417V23.0208Z" fill="#FF0000"/>
</g>
</g>
</svg>
