<svg width="26" height="25" viewBox="0 0 26 25" fill="none" xmlns="http://www.w3.org/2000/svg">
<g id="user (2) 1" clip-path="url(#clip0_162_157)">
<g id="Group">
<g id="Group_2">
<path id="Vector" d="M21.4258 16.1611C20.0643 14.7997 18.4438 13.7918 16.6757 13.1817C18.5694 11.8775 19.8135 9.69473 19.8135 7.22656C19.8135 3.24185 16.5716 0 12.5869 0C8.6022 0 5.36035 3.24185 5.36035 7.22656C5.36035 9.69473 6.60444 11.8775 8.49814 13.1817C6.73008 13.7918 5.10957 14.7997 3.7481 16.1611C1.38716 18.5221 0.0869141 21.6611 0.0869141 25H2.04004C2.04004 19.1844 6.77134 14.4531 12.5869 14.4531C18.4025 14.4531 23.1338 19.1844 23.1338 25H25.0869C25.0869 21.6611 23.7867 18.5221 21.4258 16.1611ZM12.5869 12.5C9.67915 12.5 7.31348 10.1344 7.31348 7.22656C7.31348 4.31875 9.67915 1.95312 12.5869 1.95312C15.4947 1.95312 17.8604 4.31875 17.8604 7.22656C17.8604 10.1344 15.4947 12.5 12.5869 12.5Z" fill="#FF0000"/>
</g>
</g>
<ellipse id="Ellipse 16" cx="13.0416" cy="7.62735" rx="5.95083" ry="6.54502" transform="rotate(-0.799657 13.0416 7.62735)" fill="#FF0000"/>
<ellipse id="Ellipse 17" cx="12.2618" cy="24.9292" rx="11.1241" ry="10.7173" transform="rotate(-0.799657 12.2618 24.9292)" fill="#FF0000"/>
</g>
<defs>
<clipPath id="clip0_162_157">
<rect width="25" height="25" fill="white" transform="translate(0.0869141)"/>
</clipPath>
</defs>
</svg>
