<svg width="272" height="208" viewBox="0 0 272 208" fill="none" xmlns="http://www.w3.org/2000/svg">
<g clip-path="url(#clip0_131_87)">
<path d="M162.526 31.1705L193.779 35.5485L192.533 44.4438L161.281 40.0657L162.526 31.1705Z" fill="#FAE2CE"/>
<path d="M263.652 84.9525H89.0301C88.5071 84.9525 88.0815 84.5269 88.0815 84.0038V1.3059C88.0815 0.782741 88.507 0.357178 89.0301 0.357178H263.652C264.175 0.357178 264.6 0.782741 264.6 1.30583V84.0037C264.6 84.5269 264.175 84.9525 263.652 84.9525ZM89.0301 1.06906C88.9673 1.06912 88.9071 1.09409 88.8627 1.13849C88.8183 1.1829 88.7933 1.24311 88.7933 1.3059V84.0038C88.7933 84.0666 88.8183 84.1268 88.8627 84.1712C88.9071 84.2156 88.9673 84.2406 89.0301 84.2406H263.652C263.715 84.2406 263.775 84.2156 263.819 84.1712C263.864 84.1268 263.889 84.0666 263.889 84.0038V1.3059C263.889 1.24312 263.864 1.18293 263.819 1.13854C263.775 1.09415 263.715 1.06919 263.652 1.06913H89.0301V1.06906Z" fill="#FAE2CE"/>
<path d="M93.0644 7.5131C94.3249 7.5131 95.3469 6.49099 95.3469 5.23016C95.3469 3.96933 94.3249 2.94722 93.0644 2.94722C91.8038 2.94722 90.7819 3.96933 90.7819 5.23016C90.7819 6.49099 91.8038 7.5131 93.0644 7.5131Z" fill="#FAE2CE"/>
<path d="M93.0644 82.388C94.3249 82.388 95.3469 81.3659 95.3469 80.1051C95.3469 78.8442 94.3249 77.8221 93.0644 77.8221C91.8038 77.8221 90.7819 78.8442 90.7819 80.1051C90.7819 81.3659 91.8038 82.388 93.0644 82.388Z" fill="#FAE2CE"/>
<path d="M259.266 7.5131C260.527 7.5131 261.549 6.49099 261.549 5.23016C261.549 3.96933 260.527 2.94722 259.266 2.94722C258.005 2.94722 256.984 3.96933 256.984 5.23016C256.984 6.49099 258.005 7.5131 259.266 7.5131Z" fill="#FAE2CE"/>
<path d="M259.266 82.388C260.527 82.388 261.549 81.3659 261.549 80.1051C261.549 78.8442 260.527 77.8221 259.266 77.8221C258.005 77.8221 256.984 78.8442 256.984 80.1051C256.984 81.3659 258.005 82.388 259.266 82.388Z" fill="#FAE2CE"/>
<path d="M171.793 60.7863V43.9565C171.793 42.9298 172.625 42.0975 173.651 42.0975H213.257C214.284 42.0975 215.116 42.9298 215.116 43.9565V60.7863C215.116 61.813 214.284 62.6452 213.257 62.6452H173.651C172.625 62.6452 171.793 61.813 171.793 60.7863Z" fill="#D2C1F0"/>
<path d="M213.257 63.0011H173.651C172.43 63.0011 171.437 62.0074 171.437 60.7861V43.9563C171.437 42.735 172.43 41.7414 173.651 41.7414H213.257C214.478 41.7414 215.472 42.735 215.472 43.9563V60.7862C215.472 62.0075 214.478 63.0011 213.257 63.0011ZM173.651 42.4533C172.823 42.4533 172.149 43.1276 172.149 43.9564V60.7863C172.149 61.615 172.823 62.2893 173.651 62.2893H213.257C214.086 62.2893 214.76 61.6151 214.76 60.7863V43.9563C214.76 43.1276 214.086 42.4533 213.257 42.4533L173.651 42.4533Z" fill="#D2C1F0"/>
<path d="M202.187 47.472H175.419C175.325 47.472 175.234 47.4345 175.167 47.3677C175.101 47.301 175.063 47.2104 175.063 47.116C175.063 47.0216 175.101 46.9311 175.167 46.8643C175.234 46.7976 175.325 46.7601 175.419 46.7601H202.187C202.282 46.7601 202.372 46.7976 202.439 46.8643C202.506 46.9311 202.543 47.0216 202.543 47.116C202.543 47.2104 202.506 47.301 202.439 47.3677C202.372 47.4345 202.282 47.472 202.187 47.472ZM191.094 50.8488H175.419C175.325 50.8488 175.234 50.8113 175.167 50.7446C175.101 50.6778 175.063 50.5873 175.063 50.4929C175.063 50.3985 175.101 50.308 175.167 50.2412C175.234 50.1745 175.325 50.137 175.419 50.137H191.094C191.188 50.137 191.279 50.1745 191.346 50.2412C191.412 50.308 191.45 50.3985 191.45 50.4929C191.45 50.5873 191.412 50.6778 191.346 50.7446C191.279 50.8113 191.188 50.8488 191.094 50.8488ZM195.917 54.2257H175.419C175.325 54.2257 175.234 54.1882 175.167 54.1214C175.101 54.0547 175.063 53.9641 175.063 53.8697C175.063 53.7753 175.101 53.6848 175.167 53.618C175.234 53.5513 175.325 53.5138 175.419 53.5138H195.917C196.012 53.5138 196.102 53.5513 196.169 53.618C196.236 53.6848 196.273 53.7753 196.273 53.8697C196.273 53.9641 196.236 54.0547 196.169 54.1214C196.102 54.1882 196.012 54.2257 195.917 54.2257ZM195.073 57.6025H175.419C175.325 57.6025 175.234 57.565 175.167 57.4982C175.101 57.4315 175.063 57.3409 175.063 57.2465C175.063 57.1521 175.101 57.0616 175.167 56.9949C175.234 56.9281 175.325 56.8906 175.419 56.8906H195.073C195.168 56.8906 195.258 56.9281 195.325 56.9949C195.392 57.0616 195.429 57.1521 195.429 57.2465C195.429 57.3409 195.392 57.4315 195.325 57.4982C195.258 57.565 195.168 57.6025 195.073 57.6025Z" fill="white"/>
<path d="M149.48 38.6152C145.887 38.6153 141.752 37.7844 137.695 36.212C132.941 34.3695 128.818 31.7281 126.085 28.7744C123.291 25.7545 122.271 22.7517 123.214 20.3194C124.156 17.887 126.932 16.3556 131.031 16.0073C135.041 15.6667 139.867 16.4937 144.62 18.3362C147.63 19.5025 150.46 21.0309 152.807 22.7563C152.883 22.8122 152.934 22.8961 152.948 22.9894C152.962 23.0827 152.939 23.1779 152.883 23.2539C152.827 23.33 152.743 23.3807 152.65 23.395C152.557 23.4092 152.461 23.3858 152.385 23.3299C150.089 21.6411 147.315 20.1439 144.363 19C139.708 17.1958 134.995 16.3848 131.092 16.7166C127.278 17.0407 124.716 18.4115 123.877 20.5766C123.039 22.7417 124.008 25.4813 126.608 28.2909C129.268 31.1667 133.297 33.744 137.952 35.5482C143.154 37.5645 148.471 38.3376 152.538 37.6692C152.585 37.6617 152.632 37.6632 152.677 37.6739C152.723 37.6845 152.766 37.704 152.804 37.7313C152.842 37.7586 152.874 37.793 152.899 37.8327C152.923 37.8725 152.94 37.9166 152.947 37.9628C152.955 38.0089 152.953 38.056 152.943 38.1016C152.932 38.1471 152.913 38.19 152.885 38.228C152.858 38.266 152.824 38.2982 152.784 38.3229C152.744 38.3475 152.7 38.3641 152.654 38.3717C151.661 38.5349 150.596 38.6151 149.48 38.6152Z" fill="#D2C1F0"/>
<path d="M141.334 35.7524H112.689C112.595 35.7524 112.505 35.7149 112.438 35.6481C112.371 35.5814 112.334 35.4909 112.334 35.3965C112.334 35.302 112.371 35.2115 112.438 35.1448C112.505 35.078 112.595 35.0405 112.689 35.0405H141.334C141.428 35.0405 141.519 35.078 141.586 35.1448C141.652 35.2115 141.69 35.302 141.69 35.3965C141.69 35.4909 141.652 35.5814 141.586 35.6481C141.519 35.7149 141.428 35.7524 141.334 35.7524ZM125.134 39.0792H112.689C112.595 39.0792 112.505 39.0417 112.438 38.9749C112.371 38.9082 112.334 38.8176 112.334 38.7232C112.334 38.6288 112.371 38.5383 112.438 38.4715C112.505 38.4048 112.595 38.3673 112.689 38.3673H125.134C125.229 38.3673 125.319 38.4048 125.386 38.4716C125.453 38.5383 125.49 38.6289 125.49 38.7233C125.49 38.8177 125.453 38.9082 125.386 38.9749C125.319 39.0417 125.229 39.0792 125.134 39.0792ZM105.5 41.2278C103.202 41.2278 101.333 39.3581 101.333 37.0598C101.333 34.7617 103.202 32.8919 105.5 32.8919C107.797 32.8919 109.667 34.7616 109.667 37.0598C109.667 39.358 107.797 41.2278 105.5 41.2278ZM105.5 33.6038C103.594 33.6038 102.044 35.1541 102.044 37.0598C102.044 38.9655 103.594 40.5159 105.5 40.5159C107.405 40.5159 108.955 38.9655 108.955 37.0598C108.955 35.1542 107.405 33.6038 105.5 33.6038ZM141.363 21.5227H112.718C112.624 21.5227 112.534 21.4852 112.467 21.4185C112.4 21.3517 112.363 21.2612 112.363 21.1668C112.363 21.0724 112.4 20.9818 112.467 20.9151C112.534 20.8483 112.624 20.8108 112.718 20.8108H141.363C141.457 20.8108 141.548 20.8483 141.615 20.9151C141.681 20.9818 141.719 21.0724 141.719 21.1668C141.719 21.2612 141.681 21.3517 141.615 21.4185C141.548 21.4852 141.457 21.5227 141.363 21.5227ZM141.363 24.8495H112.718C112.624 24.8495 112.534 24.812 112.467 24.7453C112.4 24.6785 112.363 24.588 112.363 24.4936C112.363 24.3992 112.4 24.3087 112.467 24.2419C112.534 24.1752 112.624 24.1377 112.718 24.1377H141.363C141.457 24.1377 141.548 24.1752 141.615 24.2419C141.681 24.3087 141.719 24.3992 141.719 24.4936C141.719 24.588 141.681 24.6785 141.615 24.7453C141.548 24.812 141.457 24.8495 141.363 24.8495ZM105.5 26.9981C103.202 26.9981 101.333 25.1284 101.333 22.8301C101.333 20.532 103.202 18.6622 105.5 18.6622C107.797 18.6622 109.667 20.5319 109.667 22.8301C109.667 25.1284 107.797 26.9981 105.5 26.9981ZM105.5 19.3742C103.594 19.3742 102.044 20.9246 102.044 22.8302C102.044 24.7359 103.594 26.2863 105.5 26.2863C107.405 26.2863 108.955 24.7359 108.955 22.8302C108.955 20.9245 107.405 19.3742 105.5 19.3742Z" fill="#3C191E"/>
<path d="M152.596 49.0652H95.391C95.2966 49.0652 95.2061 49.0277 95.1394 48.9609C95.0727 48.8942 95.0352 48.8036 95.0352 48.7092V22.1605C95.0352 22.0473 95.089 21.9408 95.1801 21.8738L107.752 12.6213C107.813 12.5763 107.887 12.552 107.963 12.552H152.596C152.691 12.552 152.781 12.5895 152.848 12.6563C152.915 12.723 152.952 12.8136 152.952 12.908V48.7092C152.952 48.8036 152.915 48.8942 152.848 48.9609C152.781 49.0277 152.691 49.0652 152.596 49.0652ZM95.7469 48.3533H152.24V13.2638H108.08L95.7469 22.3404V48.3533Z" fill="#3C191E"/>
<path d="M107.963 12.9078L107.812 22.0089L95.3911 22.1603L107.963 12.9078Z" fill="#FAE2CE"/>
<path d="M95.3911 22.5164C95.3161 22.5163 95.2431 22.4926 95.1825 22.4486C95.1218 22.4047 95.0765 22.3426 95.0532 22.2714C95.0298 22.2002 95.0295 22.1234 95.0523 22.052C95.0751 21.9806 95.1199 21.9183 95.1802 21.8738L107.752 12.6212C107.806 12.5819 107.869 12.5584 107.935 12.5531C108.001 12.5479 108.067 12.5613 108.126 12.5917C108.185 12.6221 108.234 12.6684 108.268 12.7253C108.302 12.7822 108.32 12.8475 108.319 12.9138L108.168 22.015C108.166 22.1076 108.128 22.1959 108.063 22.2613C107.997 22.3267 107.909 22.3639 107.816 22.365L95.3955 22.5163L95.3911 22.5164ZM107.595 13.6205L96.4935 21.7911L107.462 21.6574L107.595 13.6205Z" fill="#FAE2CE"/>
<path d="M107.963 22.5165H95.391C95.2966 22.5165 95.2061 22.479 95.1394 22.4122C95.0727 22.3455 95.0352 22.2549 95.0352 22.1605C95.0352 22.0661 95.0727 21.9756 95.1394 21.9088C95.2061 21.8421 95.2966 21.8046 95.391 21.8046H107.607V12.908C107.607 12.8136 107.645 12.723 107.711 12.6563C107.778 12.5895 107.869 12.552 107.963 12.552C108.057 12.552 108.148 12.5895 108.215 12.6563C108.281 12.723 108.319 12.8136 108.319 12.908V22.1605C108.319 22.2072 108.31 22.2535 108.292 22.2967C108.274 22.3399 108.248 22.3791 108.215 22.4122C108.182 22.4453 108.142 22.4715 108.099 22.4894C108.056 22.5073 108.01 22.5165 107.963 22.5165Z" fill="#3C191E"/>
<path d="M123.154 7.6219L126.871 8.6436L124.829 16.0749L121.112 15.0532L123.154 7.6219Z" fill="#CB585A"/>
<path d="M163.872 16.4099L195.099 11.8582L196.394 20.7463L165.167 25.298L163.872 16.4099Z" fill="#D2C1F0"/>
<path d="M165.171 25.6511C165.085 25.6509 165.003 25.6201 164.938 25.5642C164.874 25.5082 164.831 25.4309 164.819 25.3464L163.523 16.4579C163.51 16.3645 163.534 16.2696 163.59 16.1938C163.647 16.1182 163.731 16.068 163.824 16.0544L195.053 11.5012C195.099 11.4943 195.147 11.4967 195.192 11.5081C195.237 11.5196 195.28 11.5399 195.317 11.5678C195.355 11.5958 195.386 11.6309 195.41 11.6711C195.434 11.7113 195.45 11.7558 195.457 11.8021L196.752 20.6905C196.766 20.7839 196.742 20.8789 196.685 20.9546C196.629 21.0303 196.545 21.0805 196.451 21.0941L165.222 25.6473C165.205 25.6498 165.188 25.651 165.171 25.6511ZM164.279 16.7075L165.472 24.8915L195.996 20.4409L194.804 12.2569L164.279 16.7075Z" fill="#D2C1F0"/>
<path d="M166.998 18.9073C166.908 18.9073 166.821 18.8733 166.756 18.812C166.69 18.7507 166.649 18.6667 166.643 18.5769C166.637 18.4871 166.664 18.3982 166.721 18.3281C166.777 18.258 166.858 18.2119 166.947 18.199L191.288 14.6502C191.334 14.6434 191.381 14.6457 191.427 14.6572C191.472 14.6686 191.515 14.6889 191.552 14.7169C191.59 14.7448 191.621 14.7799 191.645 14.8201C191.669 14.8603 191.685 14.9048 191.691 14.9511C191.705 15.0445 191.681 15.1395 191.625 15.2152C191.568 15.2908 191.484 15.341 191.391 15.3546L167.05 18.9035C167.033 18.906 167.015 18.9073 166.998 18.9073ZM167.358 21.3782C167.268 21.3783 167.182 21.3442 167.116 21.2829C167.05 21.2216 167.01 21.1376 167.003 21.0478C166.997 20.958 167.025 20.8691 167.081 20.799C167.137 20.7289 167.218 20.6828 167.307 20.67L183.256 18.3446C183.302 18.3378 183.349 18.3402 183.395 18.3517C183.44 18.3631 183.483 18.3834 183.52 18.4113C183.558 18.4393 183.589 18.4744 183.613 18.5146C183.637 18.5547 183.653 18.5993 183.66 18.6455C183.673 18.7389 183.649 18.8339 183.593 18.9096C183.536 18.9853 183.452 19.0355 183.359 19.0491L167.41 21.3745C167.393 21.377 167.376 21.3782 167.358 21.3782ZM202.98 74.4698V9.74735C202.98 8.90562 203.662 8.22328 204.504 8.22328H254.837C255.679 8.22328 256.361 8.90562 256.361 9.74735V74.4698C256.361 75.3115 255.679 75.9938 254.837 75.9938H204.504C203.662 75.9938 202.98 75.3115 202.98 74.4698Z" fill="white"/>
<path d="M254.837 76.35H204.504C203.467 76.35 202.624 75.5066 202.624 74.47V9.74757C202.624 8.71092 203.467 7.86755 204.504 7.86755H254.837C255.874 7.86755 256.717 8.71092 256.717 9.74757V74.47C256.717 75.5066 255.874 76.35 254.837 76.35ZM204.504 8.57944C203.86 8.57944 203.336 9.10345 203.336 9.74757V74.47C203.336 75.1141 203.86 75.6381 204.504 75.6381H254.837C255.481 75.6381 256.005 75.1141 256.005 74.47V9.74757C256.005 9.10345 255.481 8.57944 254.837 8.57944H204.504Z" fill="#D2C1F0"/>
<path d="M213.677 40.9561C213.411 40.9561 213.149 40.9496 212.892 40.9363C209.932 40.7838 207.918 39.7609 207.221 38.0558C206.524 36.3508 207.245 34.2097 209.251 32.0269C211.193 29.9136 214.128 27.9873 217.514 26.6028C220.901 25.2184 224.344 24.5372 227.21 24.6848C230.171 24.8373 232.185 25.8603 232.882 27.5653C233.578 29.2703 232.857 31.4115 230.851 33.5942C228.909 35.7075 225.975 37.6338 222.588 39.0183C219.505 40.2785 216.375 40.9561 213.677 40.9561ZM226.423 25.3767C223.817 25.3767 220.782 26.0357 217.784 27.2617C214.492 28.6074 211.648 30.4708 209.775 32.5085C207.966 34.4768 207.293 36.3511 207.88 37.7864C208.466 39.2217 210.259 40.0879 212.929 40.2254C215.692 40.3677 219.027 39.705 222.319 38.3593C225.61 37.0136 228.455 35.1503 230.327 33.1125C232.136 31.1443 232.809 29.2699 232.223 27.8347C231.636 26.3994 229.843 25.5332 227.174 25.3958C226.924 25.3829 226.673 25.3766 226.423 25.3767Z" fill="#CB585A"/>
<path d="M242.522 27.6214C242.466 27.6214 242.411 27.6081 242.361 27.5826C242.31 27.5571 242.267 27.5202 242.234 27.4747C242.201 27.4293 242.179 27.3767 242.171 27.3212C242.162 27.2658 242.166 27.209 242.184 27.1556L246.231 14.6697C246.245 14.6248 246.268 14.5831 246.298 14.5471C246.328 14.5111 246.365 14.4814 246.407 14.4598C246.449 14.4382 246.495 14.4251 246.542 14.4212C246.588 14.4174 246.636 14.4229 246.68 14.4374C246.725 14.4519 246.767 14.4751 246.802 14.5058C246.838 14.5364 246.867 14.5738 246.888 14.6158C246.91 14.6578 246.922 14.7037 246.926 14.7506C246.929 14.7975 246.923 14.8447 246.908 14.8893L242.861 27.3751C242.837 27.4466 242.792 27.509 242.731 27.5532C242.67 27.5975 242.597 27.6213 242.522 27.6214Z" fill="#FAE2CE"/>
<path d="M250.787 23.4024C250.751 23.4024 250.714 23.3968 250.678 23.385L238.194 19.3367C238.149 19.3226 238.108 19.2998 238.072 19.2696C238.036 19.2393 238.006 19.2022 237.984 19.1604C237.963 19.1186 237.95 19.0729 237.946 19.0261C237.942 18.9792 237.947 18.932 237.962 18.8872C237.976 18.8424 238 18.801 238.03 18.7653C238.061 18.7296 238.098 18.7003 238.14 18.6791C238.182 18.6579 238.228 18.6453 238.275 18.6419C238.322 18.6386 238.369 18.6446 238.414 18.6595L250.897 22.7078C250.978 22.7339 251.046 22.788 251.091 22.8602C251.135 22.9325 251.152 23.0182 251.139 23.102C251.126 23.1857 251.083 23.262 251.019 23.3171C250.954 23.3722 250.872 23.4024 250.787 23.4024Z" fill="#FAE2CE"/>
<path d="M247.529 27.2242C247.463 27.2242 247.399 27.2061 247.343 27.1718C247.287 27.1375 247.241 27.0884 247.211 27.0299L241.246 15.3386C241.203 15.2545 241.196 15.1568 241.225 15.067C241.254 14.9772 241.317 14.9026 241.401 14.8597C241.485 14.8168 241.583 14.8091 241.673 14.8382C241.763 14.8673 241.837 14.9309 241.88 15.015L247.845 26.7064C247.873 26.7606 247.886 26.8211 247.884 26.8819C247.882 26.9428 247.864 27.0021 247.832 27.054C247.8 27.106 247.756 27.1489 247.702 27.1787C247.649 27.2085 247.589 27.2241 247.529 27.2242Z" fill="#FAE2CE"/>
<path d="M238.702 24.3614C238.622 24.3615 238.544 24.3346 238.481 24.2852C238.418 24.2357 238.374 24.1666 238.355 24.0888C238.337 24.0111 238.345 23.9293 238.378 23.8567C238.411 23.784 238.468 23.7248 238.539 23.6884L250.229 17.7221C250.313 17.6802 250.41 17.6732 250.499 17.7026C250.588 17.7319 250.662 17.7953 250.704 17.8789C250.747 17.9625 250.755 18.0595 250.726 18.1489C250.698 18.2383 250.635 18.3128 250.552 18.3562L238.863 24.3225C238.813 24.3481 238.758 24.3614 238.702 24.3614Z" fill="#FAE2CE"/>
<path d="M225.067 68.8528C225.014 68.8528 224.96 68.8405 224.912 68.8169C224.863 68.7933 224.821 68.759 224.788 68.7166C224.754 68.6742 224.731 68.6248 224.72 68.5721C224.708 68.5194 224.709 68.4648 224.722 68.4124L227.592 56.649L210.496 57.6225C210.412 57.6269 210.33 57.6017 210.262 57.5513C210.195 57.5008 210.148 57.4284 210.129 57.3466C210.11 57.2647 210.121 57.1788 210.16 57.1041C210.198 57.0294 210.262 56.9707 210.339 56.9384L223.648 51.4102L215.266 46.5665C215.196 46.5259 215.142 46.4626 215.113 46.3869C215.083 46.3113 215.081 46.2279 215.105 46.1506C215.13 46.0731 215.18 46.0064 215.247 45.9615C215.315 45.9166 215.396 45.8962 215.477 45.9038L225.73 46.8404L220.512 32.0713C220.485 31.9945 220.485 31.9106 220.512 31.8338C220.54 31.757 220.592 31.6919 220.662 31.6493C220.731 31.6067 220.813 31.5892 220.894 31.5998C220.975 31.6103 221.049 31.6483 221.106 31.7073L231.807 42.9543L239.364 31.7536C239.409 31.6871 239.475 31.6377 239.552 31.6134C239.628 31.5891 239.71 31.5914 239.785 31.6198C239.86 31.6482 239.924 31.7011 239.965 31.7699C240.006 31.8387 240.023 31.9194 240.012 31.999L238.064 46.8895H248.865C248.945 46.8895 249.022 46.9162 249.085 46.9654C249.147 47.0146 249.192 47.0834 249.211 47.1609C249.23 47.2383 249.222 47.3198 249.189 47.3924C249.156 47.465 249.1 47.5244 249.029 47.5612L238.52 53.0322L245.387 68.3513C245.422 68.4285 245.428 68.5155 245.404 68.5966C245.38 68.6778 245.328 68.7478 245.258 68.7942C245.187 68.8406 245.102 68.8604 245.018 68.8499C244.934 68.8394 244.857 68.7994 244.8 68.737L234.278 57.2186L225.349 68.7153C225.315 68.7581 225.273 68.7928 225.224 68.8166C225.175 68.8405 225.122 68.8528 225.067 68.8528ZM228.052 55.9103C228.106 55.9103 228.159 55.9226 228.208 55.9461C228.256 55.9697 228.299 56.004 228.332 56.0464C228.365 56.0888 228.389 56.1382 228.4 56.1909C228.412 56.2436 228.411 56.2982 228.398 56.3506L225.808 66.963L233.975 56.4482C234.007 56.4072 234.047 56.3737 234.093 56.35C234.139 56.3263 234.19 56.3129 234.242 56.3108C234.294 56.3089 234.345 56.3182 234.393 56.3382C234.441 56.3581 234.484 56.3883 234.519 56.4264L243.832 66.6222L237.734 53.0169C237.696 52.934 237.692 52.8401 237.722 52.7543C237.752 52.6686 237.814 52.5974 237.894 52.5555L247.411 47.6012H237.658C237.607 47.6012 237.557 47.5904 237.511 47.5696C237.465 47.5487 237.424 47.5182 237.391 47.4801C237.357 47.442 237.332 47.3973 237.318 47.3488C237.303 47.3004 237.299 47.2493 237.305 47.1991L239.111 33.4019L232.15 43.7194C232.12 43.7635 232.08 43.8004 232.034 43.8273C231.989 43.8542 231.937 43.8705 231.884 43.8749C231.831 43.8794 231.778 43.8719 231.728 43.853C231.678 43.834 231.633 43.8042 231.597 43.7657L221.738 33.4048L226.587 47.1266C226.606 47.1829 226.612 47.2433 226.602 47.3022C226.593 47.3611 226.568 47.4166 226.532 47.4637C226.495 47.5108 226.447 47.548 226.393 47.5717C226.338 47.5955 226.278 47.6051 226.219 47.5997L217.024 46.7598L224.628 51.1541C224.685 51.1873 224.732 51.2359 224.764 51.2945C224.795 51.3531 224.809 51.4192 224.805 51.4855C224.801 51.5517 224.778 51.6154 224.739 51.6694C224.701 51.7234 224.648 51.7655 224.586 51.791L212.546 56.7926L228.032 55.9108C228.039 55.9105 228.046 55.9103 228.052 55.9103Z" fill="#D2C1F0"/>
<path d="M229.869 11.2558C228.415 11.2558 227.231 10.072 227.231 8.61689C227.231 7.1618 228.415 5.97801 229.869 5.97801C231.324 5.97801 232.508 7.1618 232.508 8.61689C232.508 10.072 231.324 11.2558 229.869 11.2558ZM229.869 6.68982C228.807 6.68982 227.943 7.55426 227.943 8.61682C227.943 9.67938 228.807 10.5438 229.869 10.5438C230.932 10.5438 231.796 9.67938 231.796 8.61682C231.796 7.55426 230.932 6.68982 229.869 6.68982Z" fill="#3C191E"/>
</g>
<g clip-path="url(#clip1_131_87)">
<path d="M48.4519 133.819V129.859C48.4519 128.988 49.1583 128.282 50.0296 128.282H166.617C167.488 128.282 168.194 128.988 168.194 129.859V133.819C168.194 134.69 167.488 135.397 166.617 135.397H50.0296C49.1583 135.397 48.4519 134.69 48.4519 133.819ZM62.8322 128.282V71.3525C62.8322 69.2365 64.5476 67.5211 66.6637 67.5211H149.645C151.761 67.5211 153.477 69.2365 153.477 71.3525V128.282H62.8322Z" fill="#D2C1F0"/>
<path d="M64.7782 128.282V74.2195C64.7782 72.1822 66.4298 70.5306 68.4672 70.5306H147.8C149.838 70.5306 151.489 72.1822 151.489 74.2195V128.282H64.7782Z" fill="white"/>
<path d="M101.106 69.914C101.55 69.914 101.909 69.5543 101.909 69.1105C101.909 68.6667 101.55 68.3069 101.106 68.3069C100.662 68.3069 100.302 68.6667 100.302 69.1105C100.302 69.5543 100.662 69.914 101.106 69.914Z" fill="#3C191E"/>
<path d="M110.037 69.914H104.09C103.646 69.914 103.287 69.5542 103.287 69.1105C103.287 68.6666 103.647 68.3069 104.09 68.3069H110.037C110.481 68.3069 110.84 68.6667 110.84 69.1105C110.84 69.5542 110.481 69.914 110.037 69.914Z" fill="#3C191E"/>
<path d="M135.627 96.2293H113.708C113.613 96.2293 113.523 96.1918 113.456 96.1251C113.389 96.0584 113.352 95.9679 113.352 95.8735C113.352 95.7792 113.389 95.6887 113.456 95.622C113.523 95.5553 113.613 95.5178 113.708 95.5178H135.627C135.722 95.5178 135.812 95.5553 135.879 95.622C135.946 95.6887 135.983 95.7792 135.983 95.8735C135.983 95.9679 135.946 96.0584 135.879 96.1251C135.812 96.1918 135.722 96.2293 135.627 96.2293ZM135.627 99.473H113.708C113.613 99.473 113.523 99.4355 113.456 99.3688C113.389 99.3021 113.352 99.2116 113.352 99.1173C113.352 99.0229 113.389 98.9324 113.456 98.8657C113.523 98.799 113.613 98.7615 113.708 98.7615H135.627C135.722 98.7615 135.812 98.799 135.879 98.8657C135.946 98.9324 135.983 99.0229 135.983 99.1173C135.983 99.2116 135.946 99.3021 135.879 99.3688C135.812 99.4355 135.722 99.473 135.627 99.473ZM135.627 102.717H113.708C113.613 102.717 113.523 102.679 113.456 102.613C113.389 102.546 113.352 102.455 113.352 102.361C113.352 102.267 113.389 102.176 113.456 102.109C113.523 102.043 113.613 102.005 113.708 102.005H135.627C135.722 102.005 135.812 102.043 135.879 102.109C135.946 102.176 135.983 102.267 135.983 102.361C135.983 102.455 135.946 102.546 135.879 102.613C135.812 102.679 135.722 102.717 135.627 102.717ZM135.627 105.96H113.708C113.613 105.96 113.523 105.923 113.456 105.856C113.389 105.79 113.352 105.699 113.352 105.605C113.352 105.51 113.389 105.42 113.456 105.353C113.523 105.286 113.613 105.249 113.708 105.249H135.627C135.722 105.249 135.812 105.286 135.879 105.353C135.946 105.42 135.983 105.51 135.983 105.605C135.983 105.699 135.946 105.79 135.879 105.856C135.812 105.923 135.722 105.96 135.627 105.96Z" fill="#D2C1F0"/>
<path d="M104.468 113.957H76.3111C75.4989 113.957 74.8405 113.299 74.8405 112.486V110.104L76.0612 106.08L74.8405 103.123V88.9915C74.8405 88.1792 75.4989 87.5208 76.3111 87.5208H104.468C105.28 87.5208 105.939 88.1792 105.939 88.9915V101.9L104.866 104.383L105.939 107.55V112.486C105.939 113.299 105.28 113.957 104.468 113.957Z" fill="#FAE2CE"/>
<path d="M74.8405 110.104C76.5954 108.67 80.6773 105.617 84.625 104.719C89.8442 103.532 91.6554 110.557 95.1378 111.053C98.6203 111.549 99.1482 110.35 102.375 107.801C104.156 106.395 105.284 106.855 105.939 107.55V101.9C104.537 101.571 102.056 101.398 99.017 102.936C94.2433 105.352 88.8786 101.704 85.3379 101.086C82.2764 100.552 76.3801 102.568 74.8405 103.123V110.104H74.8405Z" fill="white"/>
<path d="M99.4105 98.2016C101.704 98.2016 103.563 96.3424 103.563 94.0489C103.563 91.7554 101.704 89.8962 99.4105 89.8962C97.117 89.8962 95.2577 91.7554 95.2577 94.0489C95.2577 96.3424 97.117 98.2016 99.4105 98.2016Z" fill="white"/>
<path d="M138.863 83.1499H71.6045V79.7224C71.6045 78.9827 72.2041 78.383 72.9439 78.383H138.863V83.1499Z" fill="#FAE2CE"/>
<path d="M137.448 118.798H73.0193C72.043 118.798 71.2488 118.004 71.2488 117.028V79.7978C71.2488 78.8215 72.043 78.0273 73.0193 78.0273H137.448C138.425 78.0273 139.219 78.8215 139.219 79.7978V117.028C139.219 118.004 138.425 118.798 137.448 118.798ZM73.0193 78.7388C72.4354 78.7388 71.9603 79.2138 71.9603 79.7978V117.028C71.9603 117.612 72.4354 118.087 73.0193 118.087H137.448C138.032 118.087 138.507 117.612 138.507 117.028V79.7978C138.507 79.2138 138.032 78.7388 137.448 78.7388H73.0193Z" fill="#FAE2CE"/>
<path d="M74.3405 81.8737C74.9521 81.8737 75.4479 81.378 75.4479 80.7664C75.4479 80.1548 74.9521 79.659 74.3405 79.659C73.7289 79.659 73.2332 80.1548 73.2332 80.7664C73.2332 81.378 73.7289 81.8737 74.3405 81.8737Z" fill="white"/>
<path d="M77.5649 81.8737C78.1765 81.8737 78.6723 81.378 78.6723 80.7664C78.6723 80.1548 78.1765 79.659 77.5649 79.659C76.9533 79.659 76.4575 80.1548 76.4575 80.7664C76.4575 81.378 76.9533 81.8737 77.5649 81.8737Z" fill="white"/>
<path d="M80.7891 81.8737C81.4007 81.8737 81.8965 81.378 81.8965 80.7664C81.8965 80.1548 81.4007 79.659 80.7891 79.659C80.1776 79.659 79.6818 80.1548 79.6818 80.7664C79.6818 81.378 80.1776 81.8737 80.7891 81.8737Z" fill="white"/>
</g>
<g clip-path="url(#clip2_131_87)">
<path d="M271.01 136.393H0.990334C0.443373 136.393 0 135.947 0 135.397C0 134.847 0.443373 134.401 0.990334 134.401H271.01C271.557 134.401 272 134.847 272 135.397C272 135.947 271.557 136.393 271.01 136.393Z" fill="#D2C1F0"/>
</g>
<g clip-path="url(#clip3_131_87)">
<path d="M88.0131 143.412C88.0131 143.412 84.556 135.097 83.3687 132.002C81.4923 127.111 80.3652 126.941 79.7838 127.501C79.1379 128.124 78.2601 128.447 77.3629 128.456L76.2681 128.468C75.6472 128.474 75.1067 128.223 74.722 127.828C74.0259 127.114 73.9501 125.998 74.4966 125.164L76.1261 122.676C77.1321 121.22 78.1218 120.773 79.8799 120.98L80.9147 119.419C81.8555 118 83.7008 117.497 85.2334 118.24C87.3062 119.245 89.9921 120.78 91.1857 122.455C93.2662 125.376 100.477 139.787 100.477 139.787L88.0131 143.412Z" fill="#F69578"/>
<path d="M95.9196 123.213C95.9196 123.213 90.2718 114.588 81.1717 114.122C80.3087 114.077 79.6006 114.795 79.6672 115.656C79.7605 116.864 80.5994 117.892 81.7699 118.203C82.8928 118.501 84.4401 119.166 86.2282 120.623C89.9368 123.645 94.6722 133.286 94.6722 133.286L99.1341 143.694L104.028 141.344L95.9196 123.213Z" fill="#F69578"/>
<path d="M108.97 140.672C108.97 140.672 105.279 124.076 96.0157 117.601C91.1092 114.172 88.1295 112.787 86.4121 112.244C85.3512 111.908 84.2356 112.575 84.026 113.668C83.9231 114.204 83.9679 114.758 84.1556 115.271C84.3433 115.784 84.6667 116.236 85.0915 116.579L94.1926 123.933L102.685 146.14L108.97 140.672Z" fill="#F69578"/>
<path d="M109.401 131.751C109.401 131.751 108.559 124.911 104.23 120.578C103.789 120.136 103.134 119.988 102.548 120.203C101.587 120.554 100.981 121.507 101.073 122.526C101.14 123.284 101.264 124.332 101.485 125.755C102.09 129.656 103.644 135.06 103.644 135.06L109.401 131.751Z" fill="#F69578"/>
<path d="M95.9201 123.569C95.861 123.569 95.8028 123.554 95.7507 123.526C95.6987 123.498 95.6545 123.458 95.6221 123.408C95.6109 123.391 94.4859 121.689 92.4788 119.794C90.6364 118.054 87.6505 115.789 83.8882 114.877C83.8427 114.866 83.7999 114.846 83.7622 114.818C83.7244 114.791 83.6925 114.756 83.6682 114.716C83.6438 114.676 83.6276 114.632 83.6204 114.586C83.6132 114.54 83.6152 114.493 83.6262 114.447C83.6372 114.402 83.657 114.359 83.6846 114.321C83.7122 114.284 83.7469 114.252 83.7868 114.227C83.8267 114.203 83.871 114.187 83.9172 114.18C83.9633 114.172 84.0105 114.174 84.0559 114.185C87.9772 115.136 91.0743 117.486 92.9819 119.29C95.045 121.242 96.1706 122.947 96.2174 123.018C96.2525 123.072 96.2725 123.134 96.2752 123.198C96.2779 123.262 96.2632 123.326 96.2327 123.382C96.2023 123.439 96.1571 123.486 96.1021 123.519C96.0471 123.551 95.9842 123.569 95.9201 123.569ZM91.4591 124.853C91.4023 124.853 91.3464 124.84 91.2959 124.814C91.2454 124.788 91.2019 124.75 91.169 124.704C89.8259 122.819 86.9846 119.484 85.0781 118.56C84.1467 118.108 82.688 117.921 81.8193 118.463C81.7393 118.512 81.6432 118.528 81.5519 118.506C81.4606 118.484 81.3814 118.428 81.3318 118.348C81.2821 118.269 81.2658 118.173 81.2865 118.081C81.3073 117.99 81.3633 117.91 81.4424 117.86C82.2472 117.357 83.8254 117.162 85.3885 117.92C87.6697 119.025 90.7531 122.894 91.7486 124.291C91.7865 124.344 91.809 124.407 91.8137 124.472C91.8184 124.537 91.8051 124.602 91.7752 124.66C91.7453 124.718 91.7 124.767 91.6442 124.801C91.5885 124.835 91.5244 124.853 91.4591 124.853ZM87.307 126.943C87.2476 126.943 87.1892 126.928 87.1371 126.9C87.0849 126.871 87.0407 126.831 87.0083 126.781C85.8951 125.07 84.1187 122.787 81.9789 121.629C80.714 120.945 79.9108 120.982 79.9029 120.982C79.7081 120.993 79.5389 120.845 79.5262 120.65C79.5198 120.556 79.5507 120.464 79.6121 120.393C79.6735 120.323 79.7604 120.279 79.8539 120.272C80.0008 120.262 83.4984 120.081 87.605 126.393C87.6399 126.446 87.6597 126.509 87.6623 126.573C87.6649 126.637 87.6501 126.7 87.6196 126.756C87.5891 126.813 87.544 126.86 87.4889 126.892C87.4339 126.925 87.371 126.943 87.307 126.943ZM80.5874 127.827C80.5027 127.827 80.4207 127.796 80.3564 127.741L78.2866 125.973C78.216 125.912 78.1726 125.825 78.1657 125.731C78.1589 125.638 78.1892 125.546 78.2501 125.474C78.311 125.403 78.3975 125.359 78.4909 125.351C78.5843 125.343 78.677 125.372 78.7489 125.432L80.8187 127.2C80.874 127.248 80.9135 127.311 80.9319 127.381C80.9502 127.451 80.9465 127.526 80.9213 127.594C80.8961 127.662 80.8506 127.721 80.7909 127.763C80.7312 127.804 80.6602 127.827 80.5874 127.827ZM105.222 130.227C105.145 130.227 105.071 130.202 105.009 130.156C104.948 130.11 104.903 130.046 104.881 129.972C104.223 127.764 100.814 122.777 100.779 122.727C100.753 122.689 100.734 122.645 100.724 122.599C100.714 122.554 100.713 122.506 100.722 122.46C100.73 122.414 100.748 122.37 100.773 122.331C100.799 122.291 100.832 122.258 100.871 122.231C100.909 122.205 100.953 122.186 100.999 122.176C101.045 122.167 101.092 122.166 101.138 122.175C101.184 122.184 101.228 122.201 101.267 122.227C101.306 122.253 101.34 122.286 101.366 122.325C101.509 122.533 104.874 127.455 105.563 129.769C105.579 129.822 105.582 129.878 105.573 129.933C105.563 129.988 105.541 130.039 105.507 130.084C105.474 130.128 105.431 130.164 105.382 130.189C105.332 130.214 105.277 130.227 105.222 130.227Z" fill="#3C191E"/>
<path d="M118.064 56.895C116.396 62.3151 114.899 72.4573 123.295 81.7146C132.116 91.4388 139.232 91.0011 139.232 91.0011L152.135 87.051L164.074 69.8047C164.074 69.8047 160.645 52.7261 152.39 47.5024C144.135 42.2787 133.948 42.3778 128.882 44.7487C124.063 47.0046 119.261 53.0091 118.064 56.895Z" fill="#F69578"/>
<path d="M164.073 69.8047C164.073 69.8047 163.35 54.0691 153.478 46.5843C144.496 39.7742 133.914 42.3079 128.882 44.7485C122.634 47.7793 119.261 53.0089 118.064 56.8948C116.957 60.4911 115.927 66.1663 117.81 72.2824C116.26 59.981 123.776 52.7238 123.776 52.7238C123.776 52.7238 124.636 59.9388 132.518 62.6053C140.4 65.2718 147.101 62.6273 147.101 62.6273L153.069 66.62C152.886 69.0229 147.403 73.1892 145.293 80.5806C144.481 83.4246 144.75 88.2563 146.559 89.2206L152.135 87.051L164.073 69.8047Z" fill="#3C191E"/>
<path d="M141.309 62.4066L145.293 66.2162L145.88 59.4546L141.309 62.4066Z" fill="#3C191E"/>
<path d="M145.45 64.4028C145.188 61.5061 147.727 56.0458 152.733 58.0124C158.404 60.2402 155.79 69.0815 151.559 69.2718C147.348 69.4612 145.626 66.343 145.45 64.4028Z" fill="#F69578"/>
<path d="M149.083 66.804C148.999 66.8039 148.919 66.7745 148.855 66.721C148.791 66.6675 148.748 66.5933 148.733 66.5113C147.936 62.0869 150.815 59.1674 150.938 59.0454C151.006 58.9802 151.096 58.9441 151.189 58.9449C151.283 58.9458 151.372 58.9835 151.439 59.0498C151.505 59.1162 151.542 59.2059 151.542 59.2995C151.542 59.3931 151.506 59.483 151.44 59.5498C151.413 59.5772 148.704 62.338 149.433 66.3851C149.442 66.4363 149.44 66.489 149.427 66.5393C149.414 66.5897 149.389 66.6365 149.356 66.6765C149.322 66.7164 149.281 66.7485 149.233 66.7706C149.186 66.7926 149.135 66.804 149.083 66.804Z" fill="#3C191E"/>
<path d="M152.312 65.6122C152.258 65.6122 152.205 65.6 152.157 65.5765L148.881 63.9875C148.796 63.9461 148.731 63.8729 148.701 63.7839C148.67 63.6948 148.676 63.5973 148.717 63.5125C148.758 63.4278 148.831 63.3628 148.92 63.3319C149.009 63.3009 149.107 63.3064 149.192 63.3473L152.468 64.9363C152.54 64.9715 152.599 65.0301 152.633 65.1028C152.668 65.1754 152.677 65.2577 152.659 65.3362C152.641 65.4147 152.597 65.4847 152.534 65.5349C152.471 65.585 152.393 65.6122 152.312 65.6122Z" fill="#3C191E"/>
<path d="M140.42 135.56C149.202 116.052 226.013 135.56 226.013 135.56V192.606H145.757C145.757 192.606 124.853 170.141 140.42 135.56Z" fill="#FAE2CE"/>
<path d="M154.385 85.7662C154.385 85.7662 128.957 94.0549 123.052 97.8607C117.147 101.667 110.084 119.063 108.111 126.102C106.138 133.141 105.363 137.723 105.363 137.723C105.363 137.723 100.876 135.639 95.5473 136.938C84.3704 139.661 81.8059 153.266 81.8059 153.266L92.1537 192.99C94.1685 200.724 100.793 206.383 108.749 207.165C117.332 208.008 125.414 202.991 128.463 194.926L144.466 152.593L221.591 144.223L231.801 188.193C231.801 188.193 244.289 189.485 248.386 188.827C258.63 187.18 263.356 174.659 260.375 164.723C255.957 149.995 245.374 136.822 230.675 117.426C209.743 89.8064 199.928 86.0493 186.517 85.0146C173.105 83.9799 154.385 85.7662 154.385 85.7662Z" fill="#FAE2CE"/>
<path d="M145.298 129.263C145.212 129.263 145.129 129.231 145.064 129.175C144.999 129.118 144.957 129.04 144.946 128.954C142.282 109.178 132.72 103.321 127.256 101.589C123.33 100.345 120.516 100.866 120.165 101.16C120.136 101.244 120.076 101.313 119.999 101.356C119.921 101.398 119.83 101.409 119.744 101.388C119.658 101.367 119.583 101.314 119.534 101.241C119.484 101.167 119.464 101.078 119.477 100.99C119.611 100.104 122.06 100.079 122.55 100.082C123.806 100.092 125.814 100.29 128.246 101.175C130.743 102.083 133.064 103.494 135.145 105.367C137.677 107.646 139.821 110.591 141.518 114.121C143.498 118.237 144.888 123.196 145.651 128.859C145.658 128.91 145.654 128.961 145.639 129.01C145.624 129.058 145.6 129.103 145.566 129.141C145.533 129.18 145.491 129.21 145.445 129.231C145.399 129.252 145.349 129.263 145.298 129.263ZM136.433 174.674C136.379 174.674 136.325 174.661 136.276 174.637C136.227 174.613 136.184 174.578 136.15 174.534C136.117 174.491 136.094 174.44 136.084 174.387C136.073 174.333 136.075 174.278 136.09 174.225L143.04 148.512C143.052 148.467 143.073 148.425 143.102 148.388C143.13 148.351 143.166 148.32 143.206 148.296C143.247 148.273 143.292 148.258 143.338 148.252C143.384 148.246 143.431 148.249 143.476 148.262C143.522 148.274 143.564 148.295 143.601 148.323C143.638 148.352 143.669 148.387 143.692 148.428C143.715 148.468 143.731 148.513 143.737 148.559C143.743 148.606 143.739 148.653 143.727 148.698L136.777 174.411C136.756 174.486 136.711 174.553 136.649 174.6C136.587 174.648 136.511 174.674 136.433 174.674ZM145.298 150.695C145.228 150.695 145.16 150.674 145.101 150.635C145.043 150.596 144.997 150.541 144.97 150.476C144.943 150.411 144.936 150.34 144.949 150.271C144.962 150.202 144.996 150.139 145.045 150.089L150.048 145.012C150.115 144.945 150.205 144.907 150.299 144.906C150.394 144.906 150.484 144.942 150.552 145.009C150.619 145.075 150.657 145.165 150.658 145.259C150.658 145.354 150.622 145.444 150.555 145.512L145.552 150.589C145.519 150.622 145.479 150.649 145.436 150.667C145.392 150.685 145.346 150.695 145.298 150.695ZM96.2419 180.486C96.1888 180.486 96.1364 180.474 96.0884 180.451C96.0405 180.429 95.9983 180.395 95.9649 180.354C95.9315 180.313 95.9078 180.265 95.8954 180.213C95.8831 180.161 95.8825 180.107 95.8937 180.056L105.015 137.648C105.024 137.602 105.043 137.558 105.069 137.519C105.095 137.48 105.129 137.447 105.169 137.421C105.208 137.395 105.252 137.378 105.298 137.369C105.345 137.36 105.392 137.361 105.438 137.371C105.484 137.381 105.528 137.4 105.566 137.427C105.605 137.453 105.638 137.488 105.663 137.527C105.689 137.567 105.706 137.611 105.714 137.658C105.722 137.704 105.721 137.751 105.71 137.797L96.5895 180.205C96.5724 180.285 96.5286 180.356 96.4653 180.407C96.4021 180.458 96.3233 180.486 96.2419 180.486ZM221.591 144.579C221.504 144.579 221.42 144.547 221.354 144.489C221.289 144.431 221.248 144.351 221.238 144.264C220.121 134.574 215.977 123.869 212.697 116.595C209.139 108.707 205.806 103.047 205.773 102.99C205.726 102.909 205.714 102.813 205.738 102.723C205.762 102.632 205.82 102.555 205.901 102.507C205.981 102.46 206.077 102.446 206.168 102.468C206.259 102.491 206.337 102.548 206.386 102.628C206.419 102.685 209.772 108.379 213.346 116.303C215.445 120.958 217.209 125.462 218.59 129.691C220.318 134.985 221.447 139.86 221.945 144.182C221.951 144.232 221.946 144.283 221.931 144.331C221.915 144.379 221.89 144.423 221.857 144.46C221.823 144.498 221.783 144.527 221.737 144.548C221.691 144.568 221.641 144.579 221.591 144.579ZM150.987 86.7672C150.987 86.7672 160.15 89.9718 156.76 105.687L170.881 105.063L172.32 98.0637L175.133 104.781L201.036 103.73C201.036 103.73 202.431 91.0934 193.187 85.3035C185.382 80.415 180.62 79.3889 176.483 76.8451C171.224 73.611 166.08 68.6069 160.548 55.7911L150.987 86.7672Z" fill="#3C191E"/>
</g>
<g clip-path="url(#clip4_131_87)">
<path d="M35.5136 132.647L30.2204 134.016L15.1545 75.7245L15.5711 68.5614C15.6029 68.013 16.319 67.8278 16.6127 68.292L20.4477 74.3555L35.5136 132.647Z" fill="#D2C1F0"/>
<path d="M15.3447 72.4542L18.6969 71.5871L16.604 68.2782C16.3156 67.8222 15.6124 68.0034 15.58 68.542L15.3447 72.4542ZM31.652 133.485C31.5731 133.485 31.4965 133.459 31.4342 133.411C31.3719 133.362 31.3274 133.295 31.3077 133.218L16.3668 75.4108C16.3431 75.3194 16.3568 75.2223 16.4047 75.1409C16.4526 75.0596 16.5309 75.0006 16.6223 74.9769C16.7136 74.9533 16.8106 74.967 16.892 75.0149C16.9733 75.0629 17.0323 75.1411 17.056 75.2325L31.9969 133.04C32.0105 133.093 32.0119 133.148 32.0009 133.201C31.99 133.254 31.967 133.304 31.9337 133.347C31.9004 133.39 31.8577 133.425 31.8088 133.449C31.76 133.473 31.7064 133.485 31.652 133.485ZM33.6758 132.962C33.5969 132.962 33.5203 132.935 33.458 132.887C33.3957 132.839 33.3512 132.771 33.3314 132.695L21.4658 86.7857C21.4422 86.6943 21.4558 86.5972 21.5038 86.5158C21.5517 86.4344 21.63 86.3755 21.7213 86.3518C21.8127 86.3282 21.9098 86.3418 21.9911 86.3898C22.0725 86.4377 22.1314 86.516 22.1551 86.6074L34.0207 132.517C34.0344 132.569 34.0357 132.624 34.0248 132.677C34.0138 132.731 33.9908 132.781 33.9575 132.824C33.9242 132.867 33.8815 132.902 33.8326 132.925C33.7838 132.949 33.7301 132.962 33.6758 132.962Z" fill="#3C191E"/>
<path d="M39.7311 72.8782L43.6906 73.7999C44.0676 73.8876 44.3143 74.2123 44.2415 74.5252L43.6792 76.9426L42.8834 78.2968L43.0038 79.8463L33.0808 122.506C33.0669 122.565 33.0421 122.621 33.0077 122.672L30.6781 126.089C30.0912 126.95 28.4772 126.574 28.3304 125.543L27.7483 121.447C27.7396 121.387 27.7422 121.326 27.7559 121.266L37.6789 78.6067L38.3912 77.287L38.3544 75.703L38.9167 73.2856C38.9894 72.9728 39.3541 72.7904 39.7311 72.8782Z" fill="#CB585A"/>
<path d="M37.6783 78.6061L38.3535 75.7024L43.6785 76.9417L43.0033 79.8454L37.6783 78.6061ZM16.9926 133.321V98.5909C16.9926 97.9948 17.4756 97.5116 18.0715 97.5116H41.5409C42.1368 97.5116 42.6198 97.9948 42.6198 98.5909V133.321C42.6198 133.917 42.1368 134.4 41.5409 134.4H18.0715C17.4756 134.4 16.9926 133.917 16.9926 133.321Z" fill="#FAE2CE"/>
<path d="M35.5137 134.756C35.4193 134.756 35.3287 134.719 35.262 134.652C35.1952 134.585 35.1577 134.494 35.1577 134.4V97.3508C35.1577 97.2563 35.1952 97.1658 35.262 97.099C35.3287 97.0322 35.4193 96.9947 35.5137 96.9947C35.6081 96.9947 35.6986 97.0322 35.7653 97.099C35.8321 97.1658 35.8696 97.2563 35.8696 97.3508V134.4C35.8696 134.494 35.8321 134.585 35.7653 134.652C35.6986 134.719 35.6081 134.756 35.5137 134.756Z" fill="#3C191E"/>
</g>
<g clip-path="url(#clip5_131_87)">
<path d="M228.838 192.386H144.371C141.217 192.386 138.831 188.998 139.39 185.313L148.099 127.89C148.533 125.028 150.63 122.946 153.08 122.946H237.547C240.701 122.946 243.087 126.334 242.528 130.019L233.819 187.442C233.385 190.304 231.287 192.386 228.838 192.386Z" fill="#CB585A"/>
<path d="M235.886 192.742H150.892C149.804 192.742 148.781 192.25 148.013 191.356C147.061 190.249 146.633 188.665 146.868 187.119L156.056 126.537C156.403 124.25 158.095 122.59 160.079 122.59H245.074C246.161 122.59 247.184 123.083 247.952 123.977C248.904 125.083 249.332 126.667 249.097 128.214L239.91 188.795C239.563 191.082 237.87 192.742 235.886 192.742ZM160.079 123.302C158.449 123.302 157.053 124.708 156.76 126.644L147.572 187.226C147.368 188.57 147.735 189.94 148.553 190.892C149.184 191.626 150.015 192.03 150.892 192.03H235.886C237.516 192.03 238.912 190.625 239.206 188.689L248.393 128.107C248.597 126.763 248.23 125.392 247.412 124.441C246.781 123.707 245.951 123.302 245.074 123.302H160.079Z" fill="#3C191E"/>
</g>
<g clip-path="url(#clip6_131_87)">
<path d="M56.0547 42.4768H36.001C36.001 42.4768 40.4223 42.4768 40.4223 31.9825C40.4223 24.013 38.5274 21.4881 38.5274 21.4881H58.5811C58.5811 21.4881 60.4757 24.4864 60.476 31.9824C60.4763 42.4768 56.0547 42.4768 56.0547 42.4768Z" fill="#FAE2CE"/>
<path d="M55.4538 26.1794H43.6736C43.5809 26.1794 43.492 26.1426 43.4265 26.0771C43.3609 26.0115 43.3241 25.9227 43.3241 25.83C43.3241 25.7374 43.3609 25.6486 43.4265 25.583C43.492 25.5175 43.5809 25.4807 43.6736 25.4807H55.4539C55.4998 25.4807 55.5453 25.4898 55.5877 25.5073C55.6301 25.5249 55.6686 25.5506 55.7011 25.5831C55.7335 25.6155 55.7593 25.654 55.7768 25.6964C55.7944 25.7388 55.8034 25.7842 55.8034 25.8301C55.8034 25.876 55.7944 25.9214 55.7768 25.9638C55.7592 26.0061 55.7335 26.0446 55.701 26.0771C55.6685 26.1095 55.63 26.1352 55.5876 26.1528C55.5452 26.1703 55.4997 26.1794 55.4538 26.1794ZM55.4538 29.3355H43.6736C43.5809 29.3355 43.492 29.2987 43.4265 29.2332C43.3609 29.1677 43.3241 29.0789 43.3241 28.9862C43.3241 28.8936 43.3609 28.8047 43.4265 28.7392C43.492 28.6737 43.5809 28.6369 43.6736 28.6369H55.4539C55.4998 28.6369 55.5453 28.6459 55.5877 28.6635C55.6301 28.6811 55.6686 28.7068 55.7011 28.7392C55.7335 28.7717 55.7593 28.8102 55.7768 28.8526C55.7944 28.895 55.8034 28.9404 55.8034 28.9863C55.8034 29.0321 55.7944 29.0776 55.7768 29.1199C55.7592 29.1623 55.7335 29.2008 55.701 29.2333C55.6685 29.2657 55.63 29.2914 55.5876 29.309C55.5452 29.3265 55.4997 29.3355 55.4538 29.3355ZM55.4538 32.4917H43.6736C43.5809 32.4917 43.492 32.4549 43.4265 32.3894C43.3609 32.3239 43.3241 32.235 43.3241 32.1424C43.3241 32.0498 43.3609 31.9609 43.4265 31.8954C43.492 31.8299 43.5809 31.7931 43.6736 31.7931H55.4539C55.5466 31.7931 55.6355 31.8299 55.7011 31.8954C55.7666 31.9609 55.8034 32.0498 55.8034 32.1424C55.8034 32.2351 55.7666 32.3239 55.701 32.3894C55.6355 32.4549 55.5465 32.4917 55.4538 32.4917Z" fill="#3C191E"/>
</g>
<defs>
<clipPath id="clip0_131_87">
<rect width="176.519" height="84.5953" fill="white" transform="translate(88.0815 0.357178)"/>
</clipPath>
<clipPath id="clip1_131_87">
<rect width="119.743" height="67.8755" fill="white" transform="translate(48.4519 67.5211)"/>
</clipPath>
<clipPath id="clip2_131_87">
<rect width="272" height="1.99215" fill="white" transform="translate(0 134.401)"/>
</clipPath>
<clipPath id="clip3_131_87">
<rect width="187.12" height="165.064" fill="white" transform="translate(74.1366 42.1923)"/>
</clipPath>
<clipPath id="clip4_131_87">
<rect width="29.0997" height="66.7371" fill="white" transform="translate(15.1545 68.0191)"/>
</clipPath>
<clipPath id="clip5_131_87">
<rect width="109.853" height="70.1522" fill="white" transform="translate(139.308 122.59)"/>
</clipPath>
<clipPath id="clip6_131_87">
<rect width="24.475" height="20.9888" fill="white" transform="translate(36.001 21.4881)"/>
</clipPath>
</defs>
</svg>
