<svg width="18" height="18" viewBox="0 0 18 18" fill="none" xmlns="http://www.w3.org/2000/svg">
<g id="bi:facebook" clip-path="url(#clip0_22_341)">
<g id="Group">
<path id="Vector" d="M17.9994 9.05479C17.9994 4.05304 13.9696 -0.00146484 8.99935 -0.00146484C4.02685 -0.000339844 -0.00289917 4.05304 -0.00289917 9.05591C-0.00289917 13.575 3.28885 17.3213 7.59085 18.0008V11.6727H5.3071V9.05591H7.5931V7.05904C7.5931 4.78991 8.93748 3.53666 10.9929 3.53666C11.9784 3.53666 13.0077 3.71329 13.0077 3.71329V5.94079H11.8726C10.7555 5.94079 10.4067 6.63941 10.4067 7.35604V9.05479H12.902L12.5037 11.6715H10.4056V17.9997C14.7076 17.3202 17.9994 13.5739 17.9994 9.05479Z" fill="white"/>
</g>
</g>
<defs>
<clipPath id="clip0_22_341">
<rect width="18" height="18" fill="white"/>
</clipPath>
</defs>
</svg>
