<svg width="18" height="18" viewBox="0 0 18 18" fill="none" xmlns="http://www.w3.org/2000/svg">
<g id="grommet-icons:google" clip-path="url(#clip0_22_333)">
<path id="Vector" d="M3.94949 7.32375C4.30041 6.26209 4.97764 5.33836 5.88458 4.68435C6.79152 4.03034 7.88184 3.67945 8.99999 3.68175C10.2675 3.68175 11.4135 4.13175 12.3135 4.86825L14.9325 2.25C13.3365 0.85875 11.2912 0 8.99999 0C5.45249 0 2.39849 2.0235 0.929993 4.9875L3.94949 7.32375Z" fill="#EA4335"/>
<path id="Vector_2" d="M12.03 13.5098C11.2125 14.037 10.1745 14.3183 9 14.3183C7.8863 14.3205 6.8001 13.9725 5.89518 13.3233C4.99025 12.6741 4.31246 11.7567 3.95775 10.701L0.92775 13.0013C1.67118 14.506 2.8217 15.772 4.24862 16.6557C5.67553 17.5393 7.32165 18.005 9 18C11.1997 18 13.3012 17.2178 14.8755 15.75L12.0307 13.5098H12.03Z" fill="#34A853"/>
<path id="Vector_3" d="M14.8755 15.75C16.5217 14.214 17.5905 11.928 17.5905 9C17.5905 8.4675 17.5087 7.89524 17.3865 7.36349H9V10.8412H13.827C13.5893 12.0105 12.9495 12.9157 12.0308 13.5097L14.8755 15.75Z" fill="#4A90E2"/>
<path id="Vector_4" d="M3.95772 10.701C3.77423 10.1527 3.68102 9.57821 3.68172 9C3.68172 8.4135 3.77547 7.85025 3.94947 7.32375L0.929965 4.9875C0.312249 6.23452 -0.00618203 7.60839 -3.47294e-05 9C-3.47294e-05 10.44 0.333715 11.7975 0.927715 13.0013L3.95772 10.701Z" fill="#FBBC05"/>
</g>
<defs>
<clipPath id="clip0_22_333">
<rect width="18" height="18" fill="white"/>
</clipPath>
</defs>
</svg>
