<svg width="159" height="318" viewBox="0 0 159 318" fill="none" xmlns="http://www.w3.org/2000/svg">
<path d="M158.34 309.198C158.34 309.198 122.894 317.34 79.1699 317.34C35.4455 317.34 0 309.198 0 309.198C0 309.198 35.4455 301.056 79.1699 301.056C122.894 301.056 158.34 309.198 158.34 309.198Z" fill="#CBB59B"/>
<path d="M106.691 55.0055C106.691 55.0055 112.615 56.0374 113.451 56.7718C115.7 58.7451 123.654 100.916 123.654 100.916L109.222 101.76L102.723 59.1282L106.691 55.0055Z" fill="#F574A9"/>
<path d="M129.262 301.653L87.7188 302.677C87.669 298.989 87.8002 295.89 87.8919 294.221C88.2869 294.24 88.7135 294.25 89.139 294.25C89.972 294.268 90.8445 294.288 91.7068 294.298C94.4059 294.325 96.933 294.298 97.5011 294.126C98.8297 293.737 101.61 285.708 101.61 285.708V285.698L102.229 285.67L105.954 285.49C106.736 287.053 108.755 290.732 111.027 292.42C113.971 294.59 124.798 298.402 127.75 299.625C128.765 300.052 129.141 300.914 129.262 301.653Z" fill="#DCDDDA"/>
<path d="M129.405 305.929L87.8818 306.953C87.8003 305.475 87.7494 304.034 87.7188 302.677L129.262 301.653L129.405 305.929Z" fill="white"/>
<path d="M62.7366 306.82C62.7366 308.526 48.6214 311.96 45.9221 311.741C43.233 311.533 33.3701 304.896 33.3701 304.896C33.3701 304.896 33.7555 303.541 34.3744 301.435C35.0544 299.104 36.0185 295.871 37.0738 292.553C38.4738 292.221 40.0873 291.785 40.483 291.481C41.2035 290.912 43.3749 286.182 44.4611 286.182C45.5469 286.182 54.943 286.182 55.5522 286.978C56.1512 287.765 56.3938 291.708 57.3585 292.154C57.7745 292.353 59.0224 292.667 60.281 292.941C61.0112 296.297 61.681 299.578 62.0054 301.54C62.4321 304.099 62.7366 306.224 62.7366 306.82Z" fill="#DCDDDA"/>
<path d="M33.3669 304.899C33.3669 304.899 43.2348 311.53 45.9252 311.745C48.6165 311.956 62.7414 308.534 62.7414 306.822C62.7414 306.222 62.4364 304.099 62.0054 301.54C57.4092 303.258 47.5644 306.662 44.317 305.549C42.1141 304.793 37.9216 302.998 34.3691 301.433C33.7519 303.54 33.3669 304.899 33.3669 304.899Z" fill="white"/>
<path d="M121.549 292.939L83.9475 295.716L78.8208 296.099C77.9898 281.931 81.1072 236.876 81.8592 231.236C81.8893 231.062 81.9091 230.923 81.9286 230.827C82.9781 225.362 85.9366 210.759 85.9366 210.759L82.5324 167.818L82.5222 167.941C82.2252 170.56 77.5933 212.386 77.049 215.18C76.6437 217.208 73.1792 274.333 69.6554 292.939L31.4515 293.88L23.4739 294.08C24.6122 281.487 39.2305 240.479 42.101 232.098C42.3183 231.497 42.4572 231.062 42.5363 230.827C44.3377 225.022 52.4342 205.528 52.4342 205.528C52.4342 205.528 46.8615 163.294 48.0494 158.585C49.2367 153.885 52.4342 140.745 52.4342 140.745C52.4342 140.745 63.1433 143.703 68.0224 144.2C72.9121 144.712 102.03 143.529 102.03 143.529L112.631 140.745C112.631 140.745 112.947 143.441 113.413 147.037C113.987 151.353 114.798 156.957 115.59 160.699C117.036 167.567 111.749 216.799 111.749 216.799L121.549 292.939Z" fill="#46689C"/>
<path d="M113.413 147.037C110.157 147.89 104.654 149.273 103.654 149.273C102.208 149.273 70.7447 151.301 69.1112 150.622C67.4885 149.951 56.0862 149.108 56.0862 149.108C56.0862 149.108 51.86 165.66 52.4342 168.533C53.0177 171.404 56.9969 204.858 56.9969 204.858C56.9969 204.858 49.762 226.824 48.8513 233.586C48.3761 237.137 34.8758 276.422 31.4515 293.88L23.4739 294.08C24.6122 281.487 39.2305 240.479 42.101 232.098C42.3183 231.497 42.4572 231.062 42.5363 230.827C44.3377 225.022 52.4342 205.528 52.4342 205.528C52.4342 205.528 46.8615 163.294 48.0494 158.585C49.2367 153.885 52.4342 140.745 52.4342 140.745C52.4342 140.745 63.1433 143.703 68.0224 144.2C72.9121 144.712 102.03 143.529 102.03 143.529L112.631 140.745C112.631 140.745 112.947 143.441 113.413 147.037Z" fill="#2C507E"/>
<path d="M90.3908 209.027C90.3908 209.027 84.2148 228.156 84.294 230.419C84.3337 231.61 83.1163 275.777 83.9474 295.716L78.8207 296.099C77.9897 281.931 81.1071 236.876 81.8595 231.236C81.8892 231.062 81.909 230.923 81.9284 230.827C82.978 225.362 85.9364 210.759 85.9364 210.759L82.5323 167.818L92.8058 164.198L85.8086 172.527L90.3908 209.027Z" fill="#2C507E"/>
<path d="M66.5158 54.0194L50.5974 58.1311L54.8306 104.668L46.8345 161.732C46.8345 161.732 98.2232 170.005 116.215 159.768L107.396 107.156C107.396 107.156 115.51 96.1766 116.215 89.3522C116.921 82.5278 106.691 55.0055 106.691 55.0055L97.7151 54.4005L66.5158 54.0194Z" fill="#F574A9"/>
<path d="M99.4478 17.384C99.0223 23.6591 95.2312 29.4983 90.2528 34.1374C85.2644 38.7666 80.6382 43.4047 74.5509 46.9562C72.5718 45.6417 58.0764 36.8699 55.6312 31.6128C55.1065 30.5252 54.6711 29.4027 54.3347 28.2544C50.6235 15.765 56.8288 5.33045 70.4578 1.33614C75.6936 -0.204262 84.9974 -0.726711 89.8963 1.48439C94.5974 3.60692 97.7164 7.68084 98.9227 12.1359C99.3879 13.8594 99.5667 15.6346 99.4478 17.384Z" fill="#300C21"/>
<path d="M97.7163 54.4005L87.4767 51.0381L86.0994 50.3057L85.3421 50.3296L75.0291 50.6659L74.1945 50.6928L72.966 51.2501L66.5158 54.0194C69.8847 58.6426 77.4967 68.1417 83.3183 67.9487C88.966 67.7616 94.5192 59.4665 97.7163 54.4005Z" fill="#C7614F"/>
<path d="M71.8744 51.7446C71.8744 51.7446 82.7948 53.686 84.4199 53.0721C86.0461 52.466 88.2767 51.465 88.2767 51.465C87.9112 51.1067 85.3881 47.7493 85.445 46.6099C85.5768 43.9819 86.4581 40.2881 86.4581 40.2881L76.3084 37.7048C76.3084 37.7048 76.0382 40.2334 75.6131 42.9151C75.1841 45.6327 72.484 51.3048 71.8744 51.7446Z" fill="#C7614F"/>
<path d="M75.6144 42.9111C78.4591 44.5918 81.9502 46.5751 83.0699 46.8567C83.984 47.0845 84.8134 46.8875 85.4416 46.6099C85.5786 43.9798 86.4616 40.2901 86.4616 40.2901L76.3112 37.7058C76.3112 37.7058 76.0366 40.2383 75.6144 42.9111Z" fill="#974237"/>
<path d="M69.4139 13.3449C74.5755 7.59628 83.6565 5.53941 91.0686 8.88193C92.7729 9.65014 94.1502 10.5467 94.8055 11.5716C97.4242 15.6714 101.694 30.9939 98.4699 38.5895C95.2446 46.186 89.4469 45.4178 87.3725 44.9849C85.2979 44.5511 75.4909 41.4504 73.114 38.7925C70.7361 36.1356 65.1679 22.1256 66.0188 18.3741C66.3031 17.1213 67.6912 15.2635 69.4139 13.3449Z" fill="#E27062"/>
<path d="M68.6958 12.2583C73.8573 6.50965 82.9378 4.45382 90.3513 7.79535C92.0557 8.56356 93.4329 9.46012 94.0871 10.4851C96.7058 14.5848 100.976 29.9073 97.7515 37.5038C94.5262 45.0994 88.7285 44.3322 86.6541 43.8983C84.5806 43.4644 74.7733 40.3637 72.3959 37.7058C70.0189 35.0489 64.4497 21.04 65.3007 17.2875C65.5853 16.0347 66.973 14.1778 68.6958 12.2583Z" fill="#C7614F"/>
<path d="M88.2033 30.8496C87.7597 30.8078 87.2991 30.7004 86.8792 30.8317C87.5503 31.6029 88.5779 32.1263 89.6722 32.2547L89.9257 32.2517L90.1815 32.0995C90.6534 31.6945 91.0337 31.2069 91.2928 30.6745C91.346 30.566 91.3935 30.4526 91.3924 30.3352C91.3879 29.9471 91.1231 30.0894 90.899 30.2297C90.6387 30.3919 90.3546 30.5252 90.057 30.6267C89.4708 30.8277 88.8291 30.9093 88.2033 30.8496Z" fill="#E27062"/>
<path d="M89.7018 32.0248C89.901 31.7691 90.1398 31.5372 90.3457 31.2855C90.6004 30.974 90.8278 30.6456 91.0089 30.2964C89.4189 29.769 89.0828 28.5182 88.7512 27.0902C88.6018 26.4454 88.6267 25.7717 88.8236 25.1378C88.9255 24.8045 89.0749 24.482 89.2672 24.1805C89.3646 24.0273 89.4721 23.88 89.5898 23.7377C89.7052 23.5994 89.8387 23.5069 89.996 23.4064C89.9361 23.5089 89.9066 23.6183 89.8546 23.7218C89.721 23.9905 89.5728 24.2462 89.4721 24.5268C89.3702 24.8084 89.2967 25.098 89.2503 25.3906C89.1586 25.9747 89.1767 26.5747 89.3148 27.1529C89.4494 27.7201 89.7029 28.2674 90.0843 28.741C90.52 29.2824 91.1606 29.773 91.8781 29.9879C91.8848 29.9899 91.2171 31.1412 91.147 31.2377C90.967 31.4885 90.7611 31.7253 90.5268 31.9393C90.2982 32.1492 90.0368 32.397 89.7018 32.4577C89.5966 32.4766 89.4845 32.4786 89.3849 32.4448L89.5117 32.2965L89.5592 32.2269L89.7018 32.0248Z" fill="#974237"/>
<path d="M81.2086 34.6787C84.7005 36.1793 88.9414 36.2619 92.5051 34.8976C90.7951 36.0689 88.8633 36.851 86.6961 36.8301C84.529 36.8092 82.8885 35.8828 81.2086 34.6787Z" fill="#974237"/>
<path d="M84.7456 37.8292C86.2083 38.5268 88.0609 38.5476 89.5423 37.8839C89.0025 38.5536 88.2182 38.9945 87.2857 39.0333C86.3543 39.0731 85.3556 38.4501 84.7456 37.8292Z" fill="#974237"/>
<path d="M71.7442 31.1412C71.2194 30.9481 68.4553 28.0912 66.7506 29.9889C65.0464 31.8865 64.7427 34.9036 66.5583 36.5027C68.2156 37.9616 70.4931 39.5129 73.1142 38.7925L71.7442 31.1412Z" fill="#C7614F"/>
<path d="M66.9477 32.2727C66.8672 32.6777 66.9667 33.0886 67.1351 33.4747C67.8518 35.1136 69.7296 36.2908 71.5249 37.3804C70.9506 36.5983 70.6955 35.6928 70.7363 34.7942C70.7509 34.4818 70.7999 34.1703 70.7804 33.8578C70.7031 32.603 67.4233 29.8795 66.9477 32.2727Z" fill="#E27062"/>
<path d="M72.4179 37.8083L72.3171 37.7626C72.2525 37.7307 72.1491 37.6899 72.0306 37.6242C71.791 37.4939 71.4582 37.2819 71.1354 36.9585C70.814 36.6361 70.5125 36.1983 70.346 35.6689C70.192 35.1405 70.1713 34.5166 70.4348 33.8996L70.5431 33.6727L70.5731 33.617L70.5772 33.611L70.5767 33.613L70.5784 33.612H70.5789L70.5731 33.6031L70.5417 33.5573L70.4772 33.4648L70.3446 33.2847C70.1656 33.0488 69.9741 32.8289 69.7792 32.6249C69.5842 32.4219 69.3844 32.2348 69.1872 32.0657C68.9892 31.8965 68.7992 31.7393 68.6125 31.6248C68.4269 31.5094 68.2266 31.4388 68.0432 31.4268C67.8593 31.4179 67.6895 31.4666 67.5773 31.5263C67.4636 31.588 67.4039 31.6616 67.3805 31.7164L67.3563 31.801L67.3553 31.7124C67.3628 31.6527 67.4039 31.5622 67.5149 31.4746C67.6258 31.389 67.8027 31.3044 68.0436 31.2855C68.2846 31.2696 68.5502 31.3313 68.7907 31.4407C69.0339 31.5512 69.2549 31.6925 69.4887 31.8497C69.7213 32.008 69.9578 32.188 70.1872 32.39C70.4167 32.5921 70.6403 32.816 70.8459 33.0608L70.997 33.2478L71.07 33.3444L71.1672 33.4817L71.2349 33.5772L71.1836 33.6797L71.1067 33.827L71.0139 34.023C70.7845 34.5594 70.7646 35.1066 70.8499 35.5932C70.9467 36.0789 71.154 36.5038 71.3931 36.8361C71.6333 37.1695 71.8976 37.4123 72.0943 37.5715L72.3325 37.7466L72.4179 37.8083Z" fill="#974237"/>
<path d="M96.785 19.1841C96.785 19.1841 94.1504 17.585 92.5774 17.791C91.0021 17.998 90.6026 19.2966 91.2408 19.5205C91.8803 19.7444 96.785 19.1841 96.785 19.1841Z" fill="#470A27"/>
<path d="M74.5509 22.3893C74.5509 22.3893 78.03 19.3991 80.4608 18.8747C82.8918 18.3503 83.886 19.5693 82.9939 20.1166C82.1015 20.6649 74.5509 22.3893 74.5509 22.3893Z" fill="#470A27"/>
<path d="M81.581 31.9502C81.5214 32.6169 79.8503 33.0438 77.849 32.9055C75.8478 32.7662 74.2741 32.1144 74.3342 31.4477C74.3938 30.781 76.0644 30.3531 78.0656 30.4924C80.0673 30.6317 81.6411 31.2845 81.581 31.9502Z" fill="#E27062"/>
<path d="M100.747 27.6613C101.02 28.1071 100.002 29.0535 98.4745 29.7759C96.9467 30.4974 95.4868 30.7213 95.2152 30.2755C94.9414 29.8307 95.9599 28.8833 97.4877 28.1609C99.0155 27.4384 100.475 27.2145 100.747 27.6613Z" fill="#E27062"/>
<path d="M65.3313 33.7523C62.3566 30.2814 59.5529 25.8195 58.7236 21.5346C57.8957 17.2497 58.7325 12.6155 61.6444 9.10287C64.2835 5.92056 68.4005 3.88164 72.6864 2.73529C78.7975 1.10135 85.7669 1.21078 91.2093 4.15228C96.6504 7.09178 100.014 13.2375 98.0311 18.5762C96.3404 16.4755 93.9333 14.8267 91.2036 13.8992C91.0078 14.9132 90.5563 15.8884 89.8908 16.7342C89.3329 15.1958 88.3857 13.7669 87.1374 12.5817C86.8307 14.2734 85.6452 15.8257 83.9808 16.7144C83.7438 15.0834 83.0144 13.5111 81.8867 12.1996C80.8858 14.554 78.867 16.5601 76.3312 17.7204C76.3344 16.1929 76.3365 14.6655 76.3388 13.138C75.6324 16.578 73.0573 19.6847 69.5486 21.3296C69.5486 21.3296 70.2369 29.161 69.8629 30.5053C69.8629 30.5053 68.3374 29.5023 66.9191 30.4665C65.5019 31.4298 65.3313 33.7523 65.3313 33.7523Z" fill="#300C21"/>
<path d="M80.5105 24.5974C78.8916 24.7766 77.4571 25.6712 76.4496 26.8006C78.7886 26.0642 81.4344 25.8732 83.8733 26.2921L84.6478 26.3538C83.909 25.0741 82.1301 24.4183 80.5105 24.5974Z" fill="#121414"/>
<path d="M94.1697 23.268C95.2867 23.068 96.4637 23.3785 97.4177 23.9278C95.6828 23.9009 93.8834 24.294 92.3749 25.0502L91.8781 25.2433C92.0421 24.2512 93.0528 23.467 94.1697 23.268Z" fill="#121414"/>
<path d="M88.5306 6.38427C89.0251 7.47191 89.0251 8.72474 88.5215 9.80442C87.2438 7.79333 85.1656 6.1922 82.7408 5.34836C83.2355 6.84498 83.4233 8.42022 83.3049 9.97754C81.9593 8.24608 79.8311 7.01016 77.4952 6.58426C77.9798 8.22019 77.9307 9.9696 77.3467 11.5707C76.2083 9.68202 74.2682 8.17642 71.992 7.41119C71.1706 14.3211 65.8953 21.04 58.9571 24.3557C57.4824 26.6265 56.3538 29.0724 55.6314 31.6129C55.1067 30.5252 54.6713 29.4028 54.3348 28.2544C53.5829 25.7388 53.246 23.3108 53.2859 20.9952C53.4242 11.8235 59.5707 4.53041 70.458 1.33616C75.6938 -0.204243 84.9975 -0.726692 89.8965 1.48441C92.3908 2.61483 94.4493 4.28659 95.9839 6.28772C97.3691 8.04605 98.3593 10.0482 98.9229 12.1359C95.8843 9.69095 92.3512 7.72367 88.5306 6.38427Z" fill="#470A27"/>
<path d="M85.3833 4.92147C83.6609 3.32036 81.2158 2.33721 78.7124 2.23273C78.9202 3.21588 79.1279 4.19904 79.3357 5.18219C77.9498 4.16422 76.159 3.56419 74.3474 3.52936C74.4164 4.41698 74.4858 5.30458 74.5552 6.19221C73.0013 5.02596 70.9922 4.33837 68.9431 4.27767C67.6669 11.7797 61.352 18.3851 53.2856 20.9952C53.4239 11.8235 59.5705 4.53042 70.4577 1.33617C75.6935 -0.204235 84.9972 -0.726685 89.8962 1.48441C92.3905 2.61484 94.449 4.2866 95.9836 6.28773C92.4991 4.6518 88.7091 3.51143 84.8187 2.92035C85.0065 3.59005 85.1953 4.25177 85.3833 4.92147Z" fill="#630D30"/>
<path d="M50.5975 58.1311C50.5975 58.1311 39.8967 62.2607 38.4852 65.1565C37.0742 68.0522 27.667 108.4 27.1965 110.456C27.1965 110.456 51.4206 115.823 59.8876 113.341L61.0634 90.1801L50.5975 58.1311Z" fill="#F574A9"/>
<path d="M50.5973 62.5194C50.5973 62.5194 61.2984 76.4786 61.0632 78.4947C60.8285 80.5117 55.8322 109.454 55.8322 109.454C55.8322 109.454 64.7085 81.1317 63.6503 78.1852C62.5923 75.2378 50.5973 62.5194 50.5973 62.5194Z" fill="#F14A8F"/>
<path d="M70.84 80.9735C67.2172 87.0137 52.2232 88.8407 51.4305 88.9283L51.4013 88.9372C51.4013 88.9372 55.044 82.6273 56.5479 77.8668C58.0527 73.1152 45.7593 56.1538 49.996 49.226C54.2222 42.2981 62.4367 37.669 62.4367 37.669L63.1201 38.2073L64.1793 39.0353L64.407 39.2084L65.9308 40.3747L63.4468 45.6745C63.4468 45.6745 71.038 53.3686 71.7997 55.3618C72.5619 57.3539 74.5714 74.7691 70.84 80.9735Z" fill="#300C21"/>
<path d="M64.2386 82.7318C62.3969 84.6374 52.0741 88.6755 51.4305 88.9283L51.4013 88.9372C51.4013 88.9372 55.044 82.6273 56.5479 77.8668C58.0527 73.1152 45.7593 56.1538 49.996 49.226C54.2222 42.2981 62.4372 37.669 62.4372 37.669L63.1201 38.2073L64.1793 39.0353L64.407 39.2084C63.209 40.915 60.9624 43.8565 60.1012 45.6745C58.5769 48.9205 65.3963 56.2494 65.3963 59.5123C65.3963 62.7762 66.1386 80.7655 64.2386 82.7318Z" fill="#470A27"/>
<path d="M60.5764 67.7367C61.0411 70.6345 60.3488 79.9386 59.5177 81.4869C58.6959 83.0363 51.4013 88.9372 51.4013 88.9372C51.4013 88.9372 55.044 82.6273 56.5479 77.8668C58.0527 73.1152 45.7593 56.1538 49.996 49.226C54.2222 42.2981 62.4371 37.669 62.4371 37.669L63.1201 38.2073C59.3192 42.0633 52.7373 49.1474 52.5785 50.3923C52.3416 52.2282 60.1012 64.839 60.5764 67.7367Z" fill="#630D30"/>
<path d="M88.7522 97.7189L70.7116 98.6901C70.7116 98.6901 62.6571 63.2787 67.5419 53.1278C68.2754 51.5934 69.3076 50.64 70.7116 50.4679C76.226 49.7952 80.8522 62.3981 84.0319 74.7561C87.0264 86.351 88.7522 97.7189 88.7522 97.7189Z" fill="#FAB663"/>
<path d="M78.6135 64.7207C75.6124 62.8708 72.128 61.6309 68.5083 61.1244C71.3584 63.5843 74.6239 64.8929 78.6135 64.7207Z" fill="#F7923D"/>
<path d="M79.6921 73.7441C76.6908 71.8943 73.2069 70.6534 69.5872 70.1469C72.4372 72.6078 75.7024 73.9163 79.6921 73.7441Z" fill="#F7923D"/>
<path d="M80.8626 83.1756C77.8614 81.3258 74.3766 80.0849 70.7573 79.5784C73.6069 82.0392 76.8724 83.3468 80.8626 83.1756Z" fill="#F7923D"/>
<path d="M84.0319 74.7561C83.5673 73.3938 83.1337 72.0226 82.6907 70.6613C81.3583 66.6292 79.8509 62.5523 77.0729 59.1391C74.7388 56.2882 71.3729 53.9358 67.5419 53.1278C68.2753 51.5933 69.3075 50.64 70.7115 50.4679C76.2259 49.7952 80.8522 62.398 84.0319 74.7561Z" fill="#F7923D"/>
<path d="M94.612 87.9401C94.5452 91.0558 94.4705 93.8789 94.4184 95.7516C94.3811 97.0522 93.4101 98.0831 92.2241 98.0831H80.7039C79.517 98.0831 78.5465 97.0522 78.509 95.7516C78.4565 93.8789 78.3821 91.0558 78.315 87.9401C78.2327 84.1439 78.1731 79.9227 78.188 76.4707C78.2102 72.765 78.315 69.9588 78.5762 69.5011C79.4572 68.0034 82.458 66.5078 82.458 66.5078L83.1671 53.9995H89.7525L90.4688 66.5078C90.4688 66.5078 93.4701 68.0034 94.3505 69.5011C94.612 69.9588 94.7172 72.765 94.7319 76.4707C94.7546 79.9227 94.6946 84.1439 94.612 87.9401Z" fill="#2EAE7D"/>
<path d="M89.8363 55.0504H83.0908C82.5987 55.0504 82.2 54.7001 82.2 54.2672V53.5925C82.2 53.1587 82.5987 52.8084 83.0908 52.8084H89.8363C90.3275 52.8084 90.727 53.1587 90.727 53.5925V54.2672C90.727 54.7001 90.3275 55.0504 89.8363 55.0504Z" fill="#363950"/>
<path d="M94.612 87.9401H78.315C78.2327 84.1438 78.1731 79.9227 78.188 76.4707H94.7319C94.7546 79.9227 94.6946 84.1438 94.612 87.9401Z" fill="#20795A"/>
<path d="M120.273 64.225C120.521 62.9085 120.68 61.5353 120.244 60.2576C119.808 58.9779 118.652 57.8096 117.149 57.6166C115.189 57.3648 113.44 58.7988 112.543 60.3521C111.399 62.3323 111.106 64.6251 111.289 66.8411C111.455 68.8492 111.926 75.8696 115.218 74.3212C118.392 72.8286 119.753 66.9904 120.273 64.225Z" fill="#20795A"/>
<path d="M112.47 81.5357L113.536 81.4342C113.708 80.875 115.449 74.6865 115.598 74.1173C116.479 70.717 116.909 67.2233 116.868 63.7265C116.866 63.1653 115.871 63.1583 115.879 63.7186C115.918 67.3686 115.445 70.9987 114.471 74.5293C114.342 74.992 112.622 81.076 112.47 81.5357Z" fill="#51C292"/>
<path d="M128.109 64.3782C129.301 63.5523 130.592 62.7682 132.076 62.4866C133.559 62.205 135.283 62.5313 136.2 63.5951C137.397 64.9833 136.812 67.0232 135.698 68.4631C134.277 70.299 132.136 71.6315 129.838 72.5599C127.757 73.4008 120.538 76.4258 120.492 73.143C120.446 69.9786 125.606 66.1137 128.109 64.3782Z" fill="#20795A"/>
<path d="M113.897 81.6153L113.989 81.6053L115.409 81.462L115.444 81.4561C116.066 80.8958 119.997 74.3471 120.642 73.8267C123.692 71.3658 127.08 69.2493 130.729 67.5208C131.293 67.2511 130.812 66.4929 130.246 66.7556C126.748 68.4134 123.475 70.4275 120.518 72.751C119.362 73.6525 114.952 80.6222 113.897 81.6153Z" fill="#51C292"/>
<path d="M116.448 67.7099C117.823 68.0731 119.196 68.5786 120.211 69.4722C121.58 70.6782 122.129 72.4813 121.962 74.179C121.606 77.7802 117.935 80.8968 113.831 81.0819C109.951 81.2581 105.884 78.6022 104.639 75.3761C103.56 72.5819 106.092 68.7328 109.02 67.6651C111.368 66.8083 114.075 67.084 116.448 67.7099Z" fill="#E83847"/>
<path d="M114.512 69.5369C114.807 66.9168 115.89 64.3683 117.619 62.2179C118.058 62.4956 118.441 62.8359 118.88 63.1135C117.559 65.2988 115.539 67.2332 114.512 69.5369Z" fill="#312A2A"/>
<path d="M114.63 68.9935C115.236 67.3656 115.044 65.5207 114.11 64.0161C113.178 62.5125 111.516 61.3711 109.631 60.9383C109.05 62.5095 109.041 64.2241 109.909 65.6898C110.778 67.1546 112.832 68.5129 114.63 68.9935Z" fill="#2EAE7D"/>
<path d="M99.4591 67.684C100.765 67.1596 102.176 66.7437 103.609 66.8262C105.544 66.9397 107.309 67.9766 108.455 69.3508C110.888 72.2644 110.465 76.7364 107.518 79.255C104.733 81.6362 99.6832 81.9974 96.3277 80.2938C93.4226 78.8181 92.4403 74.4566 93.8402 71.956C94.9629 69.9508 97.2048 68.5896 99.4591 67.684Z" fill="#F1435B"/>
<path d="M99.3719 70.1797C97.6302 68.0382 96.5325 65.4948 96.2213 62.8757C96.7588 62.8299 97.3032 62.8638 97.8407 62.818C98.4858 65.2261 98.419 67.8522 99.3719 70.1797Z" fill="#312A2A"/>
<path d="M99.0552 69.7031C98.2901 68.1268 96.7612 66.8521 94.9312 66.262C93.1013 65.6729 90.9975 65.7774 89.2558 66.5456C89.9971 68.0631 91.277 69.3577 93.0277 69.9558C94.7796 70.5538 97.3418 70.3827 99.0552 69.7031Z" fill="#20795A"/>
<path d="M99.1083 59.7551C99.0755 59.4357 99.0506 59.1053 99.1705 58.8018C99.2894 58.4993 99.5904 58.2286 99.9559 58.2177C100.431 58.2037 100.775 58.6028 101.008 58.969C101.75 60.1283 102.275 61.394 102.559 62.7006C102.675 60.8348 103.421 59.0038 104.676 57.4972C105.084 57.0086 105.86 56.5221 106.381 56.9171C106.696 57.1569 106.687 57.5828 106.64 57.947C106.455 59.365 106.09 60.7641 105.553 62.1105C106.462 61.0607 107.882 60.3671 109.376 60.2437C109.779 60.2099 110.276 60.2646 110.44 60.59C110.59 60.8905 110.357 61.2278 110.12 61.4826C109.179 62.4896 108 63.3225 106.678 63.9126C107.294 63.6459 107.949 63.3733 108.632 63.428C109.314 63.4817 109.997 64.0062 109.885 64.6012C109.799 65.0659 109.297 65.3694 108.827 65.5963C107.386 66.2929 102.534 68.2661 101.023 67.1476C100.308 66.6183 100.059 64.5773 99.8518 63.8012C99.4976 62.4697 99.2486 61.1164 99.1083 59.7551Z" fill="#2EAE7D"/>
<path d="M105.598 69.9667C105.454 71.2126 104.86 72.3789 104.156 73.4824C104.054 73.6436 103.94 73.8108 103.828 73.969C103.754 74.0894 103.676 74.1989 103.599 74.3143C101.756 77.013 99.7004 79.7664 97.4064 82.3169C97.2752 82.4641 97.1394 82.6144 97.0013 82.7587C95.5991 84.2931 94.103 85.7479 92.513 87.0714C90.2428 88.9611 89.1032 87.9819 89.6294 85.6076C89.8162 84.7628 90.0244 83.9209 90.2632 83.0811C90.3062 82.899 90.3605 82.7119 90.4103 82.5278C90.9445 80.6531 91.5839 78.7952 92.324 76.9712C92.3987 76.7951 92.4734 76.6199 92.5481 76.4438C92.9385 75.5154 93.3538 74.5949 93.7975 73.6894C93.8801 73.5162 93.9661 73.3481 94.0566 73.1789C94.5648 72.1629 95.1091 71.1629 95.6817 70.1767C96.1118 69.4423 96.5792 68.7 97.1326 68.0343C97.2729 67.8641 97.4166 67.6989 97.5671 67.5497C97.9033 67.1944 98.2756 66.868 98.6875 66.5824C100.035 65.664 101.958 65.246 103.472 65.9346C105.067 66.6551 105.772 68.4015 105.598 69.9667Z" fill="#F68640"/>
<path d="M92.3656 83.8414C91.6685 83.5906 90.9623 83.3369 90.2629 83.0811C90.3059 82.899 90.3603 82.7119 90.4101 82.5279C91.1411 82.7896 91.8722 83.0523 92.6033 83.315C92.9824 83.4592 92.7481 83.9787 92.3656 83.8414Z" fill="#F46F2E"/>
<path d="M97.4062 82.3169C97.2749 82.4641 97.1391 82.6144 97.0011 82.7587C95.5978 82.1138 94.1594 81.5248 92.695 80.9954C92.3124 80.858 92.5501 80.3316 92.9315 80.468C94.4559 81.0182 95.9497 81.6362 97.4062 82.3169Z" fill="#F46F2E"/>
<path d="M96.6163 78.8629C95.2515 78.1236 93.8131 77.4917 92.3238 76.9712C92.3985 76.7951 92.4732 76.62 92.5479 76.4439C94.0926 76.9792 95.5808 77.642 96.9965 78.4122C97.3496 78.6032 96.9694 79.055 96.6163 78.8629Z" fill="#F46F2E"/>
<path d="M99.8145 76.0129C97.9099 75.0477 95.8887 74.2695 93.7973 73.6893C93.8799 73.5162 93.9659 73.348 94.0565 73.1789C96.1908 73.7729 98.2494 74.569 100.199 75.5591C100.554 75.7373 100.168 76.191 99.8145 76.0129Z" fill="#F46F2E"/>
<path d="M104.156 73.4824C104.054 73.6436 103.939 73.8108 103.827 73.969C101.959 72.9301 99.9071 72.1629 97.7467 71.7131C97.3552 71.6285 97.4219 71.0683 97.8282 71.1539C100.069 71.6226 102.207 72.4117 104.156 73.4824Z" fill="#F46F2E"/>
<path d="M102.664 69.6822C102.546 69.8135 102.364 69.8145 102.211 69.7439C100.624 68.9667 98.9091 68.3846 97.1324 68.0343C97.2727 67.8642 97.4164 67.699 97.567 67.5497C99.3199 67.9269 101.01 68.512 102.594 69.2851C102.744 69.3638 102.757 69.5727 102.664 69.6822Z" fill="#F46F2E"/>
<path d="M67.352 140.745L78.9341 148.6L127.505 141.05L122.918 74.5661L117.744 79.0122L110.101 75.807L106.691 80.7706L99.6268 77.2549L95.5187 82.1149L89.6826 79.2192L86.4618 83.6653L81.0384 80.6671L77.9575 85.9868L75.6146 82.5279L73.411 84.9061L70.3536 82.6314L67.352 85.9868V140.745Z" fill="#C07E53"/>
<path d="M78.9341 148.6L67.352 140.745V85.9868L70.3536 82.6314L73.411 84.9062L75.6146 82.5279L77.9575 85.9868L78.9341 148.6Z" fill="#A55D39"/>
<path d="M97.4007 107.599C98.1023 109.159 85.3768 112.18 85.3768 112.18L85.0222 115.385L90.4747 114.561L98.1103 116.837C98.1103 116.837 98.2732 118.208 98.3581 119.898C98.3717 120.109 98.3773 120.323 98.3864 120.541C98.4249 121.55 98.4237 122.623 98.3388 123.554C98.3355 123.643 98.3241 123.735 98.3185 123.822C98.2642 124.285 98.1895 124.706 98.0887 125.054C97.9733 125.442 97.8228 125.739 97.6248 125.914L91.3778 125.317C91.3778 125.317 85.2198 130.674 83.9515 130.985C83.4476 131.106 81.2528 130.535 78.7917 129.804C77.6114 129.45 73.032 128.047 71.8839 127.679L71.0807 122.725L75.2972 117.561C75.7692 116.935 76.4139 116.117 77.1667 115.227L77.1648 115.225C77.5345 114.787 77.931 114.333 78.3448 113.875C79.8479 112.217 81.5993 110.531 83.269 109.499C83.9758 109.058 84.6681 108.74 85.3202 108.592C89.8183 107.569 96.7013 106.042 97.4007 107.599Z" fill="#C7614F"/>
<path d="M98.3386 123.554C98.3353 123.643 98.3239 123.735 98.3183 123.822C98.0637 123.767 97.7321 123.693 97.3315 123.605C96.4204 123.41 95.1869 123.163 93.8458 122.921C92.5036 122.687 91.2758 122.546 90.3398 122.533C90.1044 122.532 89.8906 122.532 89.7004 122.53C89.5114 122.544 89.3473 122.552 89.2138 122.564C88.9399 122.578 88.7815 122.586 88.7815 122.586C88.7815 122.586 88.9173 122.516 89.1753 122.397C89.3009 122.338 89.4616 122.266 89.6472 122.187C89.8385 122.126 90.0546 122.058 90.3048 121.986C91.2848 121.714 92.7379 121.575 94.2125 121.833C95.6803 122.1 96.8573 122.637 97.6359 123.094C97.9233 123.265 98.1564 123.421 98.3386 123.554Z" fill="#974237"/>
<path d="M98.358 119.897C98.3716 120.108 98.3772 120.323 98.3863 120.541L98.2267 120.509C97.3168 120.314 96.0822 120.068 94.7434 119.827C93.3989 119.591 92.171 119.451 91.2362 119.437C90.9997 119.436 90.7892 119.433 90.6025 119.434C90.4101 119.446 90.246 119.459 90.1125 119.466C89.8364 119.483 89.6824 119.491 89.6824 119.491C89.6824 119.491 89.816 119.423 90.0706 119.301C90.1985 119.245 90.3569 119.17 90.5448 119.093C90.7338 119.03 90.9556 118.961 91.2 118.89C92.1869 118.618 93.6388 118.479 95.1101 118.739C96.4726 118.983 97.5862 119.464 98.358 119.897Z" fill="#974237"/>
<path d="M76.3795 129.07C76.3795 129.07 37.8975 132.78 34.8989 131.694C31.9004 130.609 30.1365 127.661 30.1365 127.661L31.2559 111.284C31.2559 111.284 46.8706 113.856 49.5274 113.842L47.2521 118.828L73.1144 120.541L76.3795 129.07Z" fill="#C7614F"/>
<path d="M122.493 107.254C122.246 108.385 127.199 112.233 125.695 111.055C124.19 109.877 116.736 107.77 116.032 108.912C115.329 110.054 123.651 116.733 123.651 116.733C123.651 116.733 115.859 112.861 115.005 115.294C114.727 116.09 115.581 117.294 116.849 118.554C114.709 118.487 112.966 118.775 113.386 119.998C114.376 122.878 123.838 123.977 123.838 123.977C134.928 124.241 130.876 109.18 130.876 109.18C130.876 109.18 122.737 106.122 122.493 107.254Z" fill="#C7614F"/>
<path d="M115.595 35.849L130.59 23.7327L135.444 32.7403L115.595 35.849Z" fill="white"/>
<path d="M109.159 34.4996L107.653 23.3277L114.642 24.1208L109.159 34.4996Z" fill="white"/>
<path d="M116.247 43.6783L129.828 43.6983L129.221 49.3574L116.247 43.6783Z" fill="white"/>
</svg>
