<svg width="126" height="286" viewBox="0 0 126 286" fill="none" xmlns="http://www.w3.org/2000/svg">
<path d="M125.906 278.68C125.906 278.68 97.8852 286 63.32 286C28.7546 286 0.734009 278.68 0.734009 278.68C0.734009 278.68 28.7546 271.36 63.32 271.36C97.8852 271.36 125.906 278.68 125.906 278.68Z" fill="#CBB59B"/>
<path d="M85.0759 50.1493C85.0759 50.1493 89.7593 51.077 90.4204 51.7373C92.198 53.5113 98.4855 91.4251 98.4855 91.4251L87.0772 92.1837L81.9393 53.8558L85.0759 50.1493Z" fill="#F574A9"/>
<path d="M102.919 271.897L70.078 272.818C70.0387 269.502 70.1425 266.715 70.2149 265.215C70.5271 265.232 70.8644 265.241 71.2008 265.241C71.8593 265.257 72.549 265.275 73.2307 265.284C75.3644 265.309 77.3622 265.284 77.8113 265.13C78.8616 264.78 81.0597 257.561 81.0597 257.561V257.552L81.549 257.527L84.4933 257.365C85.1115 258.771 86.7075 262.078 88.5039 263.596C90.8309 265.547 99.3898 268.974 101.724 270.074C102.526 270.458 102.823 271.232 102.919 271.897Z" fill="#DCDDDA"/>
<path d="M103.032 275.741L70.2069 276.662C70.1425 275.332 70.1022 274.037 70.0781 272.818L102.919 271.897L103.032 275.741Z" fill="white"/>
<path d="M50.329 276.542C50.329 278.076 39.1706 281.163 37.0367 280.966C34.9109 280.779 27.114 274.813 27.114 274.813C27.114 274.813 27.4187 273.594 27.9079 271.701C28.4454 269.605 29.2076 266.698 30.0418 263.716C31.1486 263.417 32.4242 263.025 32.7369 262.751C33.3065 262.24 35.0231 257.987 35.8817 257.987C36.74 257.987 44.1679 257.987 44.6495 258.703C45.123 259.411 45.3149 262.956 46.0774 263.357C46.4063 263.536 47.3928 263.818 48.3877 264.064C48.965 267.081 49.4945 270.031 49.751 271.795C50.0883 274.096 50.329 276.006 50.329 276.542Z" fill="#DCDDDA"/>
<path d="M27.1115 274.815C27.1115 274.815 34.9122 280.776 37.0391 280.969C39.1667 281.159 50.3328 278.083 50.3328 276.544C50.3328 276.004 50.0917 274.096 49.7509 271.795C46.1175 273.34 38.3349 276.4 35.7678 275.399C34.0264 274.72 30.712 273.106 27.9036 271.699C27.4158 273.593 27.1115 274.815 27.1115 274.815Z" fill="white"/>
<path d="M96.8215 264.063L67.0967 266.559L63.044 266.903C62.387 254.165 64.8514 213.659 65.4459 208.588C65.4697 208.433 65.4853 208.307 65.5007 208.221C66.3304 203.307 68.6691 190.178 68.6691 190.178L65.9781 151.573L65.97 151.683C65.7352 154.038 62.0735 191.641 61.6433 194.153C61.3229 195.977 58.5841 247.335 55.7985 264.063L25.5972 264.908L19.2908 265.088C20.1906 253.766 31.7468 216.898 34.0159 209.364C34.1878 208.823 34.2976 208.433 34.3601 208.221C35.7842 203.002 42.1847 185.476 42.1847 185.476C42.1847 185.476 37.7793 147.505 38.7183 143.272C39.6569 139.046 42.1847 127.233 42.1847 127.233C42.1847 127.233 50.6505 129.893 54.5075 130.339C58.373 130.8 81.3917 129.736 81.3917 129.736L89.7718 127.233C89.7718 127.233 90.0214 129.657 90.39 132.89C90.8436 136.77 91.485 141.808 92.1113 145.173C93.2537 151.347 89.0749 195.609 89.0749 195.609L96.8215 264.063Z" fill="#46689C"/>
<path d="M90.39 132.89C87.8161 133.656 83.4655 134.9 82.6755 134.9C81.5322 134.9 56.6596 136.723 55.3683 136.113C54.0854 135.51 45.0716 134.751 45.0716 134.751C45.0716 134.751 41.7307 149.633 42.1847 152.215C42.6459 154.796 45.7916 184.873 45.7916 184.873C45.7916 184.873 40.0722 204.622 39.3522 210.701C38.9766 213.893 28.3042 249.213 25.5972 264.908L19.2908 265.088C20.1906 253.766 31.7468 216.898 34.0159 209.364C34.1878 208.823 34.2976 208.433 34.3601 208.22C35.7842 203.002 42.1847 185.476 42.1847 185.476C42.1847 185.476 37.7793 147.505 38.7183 143.272C39.6569 139.046 42.1847 127.233 42.1847 127.233C42.1847 127.233 50.6505 129.893 54.5075 130.339C58.373 130.8 81.3917 129.736 81.3917 129.736L89.7718 127.233C89.7718 127.233 90.0214 129.657 90.39 132.89Z" fill="#2C507E"/>
<path d="M72.1903 188.622C72.1903 188.622 67.3081 205.819 67.3707 207.854C67.4021 208.925 66.4396 248.633 67.0967 266.559L63.0439 266.903C62.3869 254.165 64.8513 213.659 65.4462 208.588C65.4696 208.433 65.4852 208.307 65.5006 208.221C66.3303 203.307 68.6691 190.178 68.6691 190.178L65.978 151.573L74.0995 148.318L68.568 155.807L72.1903 188.622Z" fill="#2C507E"/>
<path d="M53.3165 49.2627L40.7326 52.9594L44.0791 94.7978L37.7579 146.102C37.7579 146.102 78.3821 153.539 92.605 144.336L85.6331 97.0353C85.6331 97.0353 92.0477 87.1639 92.605 81.0285C93.1633 74.8931 85.0758 50.1493 85.0758 50.1493L77.9804 49.6054L53.3165 49.2627Z" fill="#F574A9"/>
<path d="M79.3502 16.3258C79.0138 21.9674 76.0168 27.2171 72.0813 31.3879C68.1378 35.5497 64.4806 39.7196 59.6685 42.9125C58.104 41.7307 46.6449 33.8445 44.712 29.1182C44.2971 28.1403 43.953 27.1312 43.687 26.0988C40.7532 14.8702 45.6587 5.4891 56.4328 1.89803C60.5718 0.513138 67.9267 0.0434341 71.7995 2.03131C75.5158 3.93957 77.9814 7.60221 78.9351 11.6075C79.3028 13.157 79.4441 14.753 79.3502 16.3258Z" fill="#300C21"/>
<path d="M77.9813 49.6053L69.8867 46.5823L68.7979 45.9239L68.1992 45.9454L60.0465 46.2478L59.3867 46.2719L58.4156 46.7729L53.3165 49.2627C55.9798 53.4192 61.9973 61.9593 66.5993 61.7858C71.064 61.6176 75.454 54.1599 77.9813 49.6053Z" fill="#C7614F"/>
<path d="M57.5526 47.2176C57.5526 47.2176 66.1855 48.963 67.4702 48.411C68.7558 47.8662 70.5191 46.9662 70.5191 46.9662C70.2301 46.6441 68.2355 43.6256 68.2805 42.6012C68.3848 40.2385 69.0814 36.9176 69.0814 36.9176L61.0578 34.5952C61.0578 34.5952 60.8442 36.8684 60.5081 39.2795C60.1691 41.7227 58.0346 46.8221 57.5526 47.2176Z" fill="#C7614F"/>
<path d="M60.5092 39.2759C62.7581 40.7869 65.5178 42.5699 66.403 42.8231C67.1257 43.028 67.7813 42.8508 68.2779 42.6012C68.3862 40.2367 69.0842 36.9194 69.0842 36.9194L61.06 34.596C61.06 34.596 60.843 36.8729 60.5092 39.2759Z" fill="#974237"/>
<path d="M55.6075 12.6945C59.688 7.52617 66.8667 5.67695 72.7262 8.68203C74.0735 9.37269 75.1623 10.1787 75.6803 11.1002C77.7505 14.7861 81.1259 28.5617 78.5771 35.3905C76.0274 42.2201 71.4442 41.5294 69.8043 41.1403C68.1643 40.7502 60.4116 37.9625 58.5326 35.573C56.6528 33.1843 52.251 20.5887 52.9236 17.2159C53.1484 16.0896 54.2457 14.4193 55.6075 12.6945Z" fill="#E27062"/>
<path d="M55.0399 11.7176C59.1202 6.54926 66.2986 4.70098 72.1591 7.70516C73.5065 8.39582 74.5952 9.20187 75.1123 10.1233C77.1825 13.8092 80.558 27.5848 78.0092 34.4145C75.4595 41.2432 70.8762 40.5534 69.2364 40.1634C67.5972 39.7733 59.8443 36.9856 57.9649 34.5961C56.0858 32.2074 51.6832 19.6127 52.356 16.239C52.581 15.1127 53.678 13.4433 55.0399 11.7176Z" fill="#C7614F"/>
<path d="M70.4611 28.432C70.1104 28.3944 69.7463 28.2978 69.4144 28.4159C69.9449 29.1093 70.7572 29.5798 71.6223 29.6953L71.8227 29.6926L72.0249 29.5557C72.398 29.1916 72.6986 28.7532 72.9034 28.2746C72.9455 28.1771 72.9831 28.0751 72.9822 27.9695C72.9786 27.6206 72.7692 27.7485 72.5921 27.8747C72.3863 28.0205 72.1618 28.1404 71.9265 28.2316C71.4631 28.4124 70.9558 28.4857 70.4611 28.432Z" fill="#E27062"/>
<path d="M71.6457 29.4886C71.8031 29.2586 71.9919 29.0502 72.1547 28.8238C72.356 28.5438 72.5358 28.2486 72.679 27.9346C71.422 27.4604 71.1563 26.3359 70.8942 25.0521C70.7761 24.4724 70.7958 23.8667 70.9514 23.2968C71.0319 22.9971 71.15 22.7072 71.3021 22.4361C71.3791 22.2984 71.4641 22.166 71.5571 22.0381C71.6484 21.9137 71.7539 21.8305 71.8783 21.7401C71.8309 21.8323 71.8076 21.9307 71.7664 22.0237C71.6609 22.2653 71.5437 22.4952 71.4641 22.7475C71.3835 23.0007 71.3254 23.261 71.2887 23.524C71.2162 24.0492 71.2306 24.5886 71.3397 25.1084C71.4462 25.6184 71.6466 26.1104 71.9481 26.5363C72.2925 27.0229 72.7989 27.464 73.366 27.6573C73.3714 27.659 72.8436 28.6941 72.7881 28.7809C72.6459 29.0063 72.483 29.2193 72.2979 29.4116C72.1171 29.6004 71.9105 29.8232 71.6457 29.8777C71.5625 29.8947 71.4739 29.8965 71.3952 29.8661L71.4954 29.7328L71.5329 29.6702L71.6457 29.4886Z" fill="#974237"/>
<path d="M64.9316 31.8745C67.692 33.2236 71.0445 33.2979 73.8617 32.0713C72.5099 33.1243 70.9828 33.8275 69.2696 33.8087C67.5564 33.7899 66.2596 32.957 64.9316 31.8745Z" fill="#974237"/>
<path d="M67.7277 34.707C68.884 35.3341 70.3485 35.3529 71.5196 34.7562C71.0928 35.3583 70.4728 35.7546 69.7357 35.7895C68.9994 35.8253 68.2099 35.2652 67.7277 34.707Z" fill="#974237"/>
<path d="M57.4497 28.6942C57.0349 28.5206 54.8497 25.9521 53.5021 27.6582C52.1549 29.3642 51.9149 32.0768 53.3502 33.5144C54.6603 34.826 56.4607 36.2207 58.5328 35.573L57.4497 28.6942Z" fill="#C7614F"/>
<path d="M53.6579 29.7113C53.5943 30.0755 53.673 30.4449 53.8061 30.792C54.3727 32.2655 55.8571 33.3238 57.2764 34.3035C56.8223 33.6003 56.6207 32.7862 56.6529 31.9783C56.6644 31.6974 56.7032 31.4174 56.6878 31.1365C56.6267 30.0083 54.0339 27.5597 53.6579 29.7113Z" fill="#E27062"/>
<path d="M57.9823 34.6882L57.9027 34.6471C57.8516 34.6185 57.7698 34.5818 57.6761 34.5227C57.4867 34.4055 57.2236 34.215 56.9685 33.9242C56.7144 33.6343 56.4761 33.2407 56.3444 32.7648C56.2227 32.2897 56.2063 31.7288 56.4146 31.1741L56.5002 30.9701L56.5239 30.92L56.5272 30.9146L56.5268 30.9164L56.5281 30.9156H56.5285L56.5239 30.9075L56.4992 30.8663L56.4482 30.7832L56.3433 30.6212C56.2018 30.4092 56.0504 30.2115 55.8964 30.0281C55.7422 29.8456 55.5842 29.6774 55.4284 29.5253C55.2718 29.3732 55.1216 29.2318 54.9741 29.129C54.8273 29.0252 54.669 28.9617 54.524 28.951C54.3786 28.9429 54.2444 28.9867 54.1557 29.0404C54.0658 29.0959 54.0186 29.1621 54.0001 29.2113L53.9809 29.2873L53.9802 29.2077C53.9861 29.154 54.0186 29.0726 54.1064 28.9939C54.194 28.917 54.3339 28.8409 54.5243 28.8239C54.7148 28.8096 54.9248 28.865 55.1149 28.9634C55.3071 29.0627 55.4819 29.1898 55.6667 29.3312C55.8505 29.4734 56.0375 29.6353 56.2189 29.8169C56.4003 29.9985 56.5771 30.1999 56.7396 30.4199L56.8591 30.5881L56.9168 30.6749L56.9936 30.7984L57.0471 30.8842L57.0066 30.9764L56.9458 31.1088L56.8724 31.285C56.6911 31.7672 56.6753 32.2593 56.7428 32.6968C56.8193 33.1333 56.9832 33.5154 57.1722 33.8142C57.362 34.1139 57.571 34.3322 57.7265 34.4753L57.9148 34.6328L57.9823 34.6882Z" fill="#974237"/>
<path d="M77.2451 17.9442C77.2451 17.9442 75.1624 16.5065 73.9189 16.6917C72.6736 16.8778 72.3578 18.0453 72.8623 18.2466C73.3678 18.4479 77.2451 17.9442 77.2451 17.9442Z" fill="#470A27"/>
<path d="M59.6685 20.8258C59.6685 20.8258 62.4188 18.1374 64.3405 17.666C66.2622 17.1945 67.0482 18.2904 66.3429 18.7825C65.6374 19.2754 59.6685 20.8258 59.6685 20.8258Z" fill="#470A27"/>
<path d="M65.226 29.4215C65.1788 30.0209 63.8578 30.4047 62.2757 30.2803C60.6937 30.1551 59.4497 29.5691 59.4972 28.9697C59.5443 28.3703 60.865 27.9856 62.447 28.1108C64.0294 28.2361 65.2735 28.823 65.226 29.4215Z" fill="#E27062"/>
<path d="M80.3772 25.5656C80.5928 25.9664 79.7885 26.8172 78.5807 27.4667C77.373 28.1153 76.2189 28.3166 76.0042 27.9158C75.7877 27.5159 76.5929 26.6642 77.8006 26.0147C79.0084 25.3652 80.1624 25.1639 80.3772 25.5656Z" fill="#E27062"/>
<path d="M52.3801 31.0417C50.0286 27.9212 47.8122 23.9097 47.1566 20.0574C46.5021 16.2051 47.1636 12.0388 49.4656 8.8807C51.5519 6.01966 54.8064 4.18657 58.1945 3.15595C63.0255 1.68696 68.5351 1.78535 72.8374 4.42989C77.1388 7.07264 79.7976 12.5979 78.2302 17.3976C76.8936 15.5091 74.9907 14.0267 72.8329 13.1929C72.6781 14.1045 72.3212 14.9812 71.7951 15.7416C71.3541 14.3585 70.6052 13.0738 69.6185 12.0083C69.376 13.5292 68.4388 14.9249 67.1231 15.7238C66.9357 14.2575 66.3591 12.8439 65.4676 11.6648C64.6764 13.7815 63.0805 15.5851 61.0759 16.6282C61.0784 15.255 61.0801 13.8817 61.0819 12.5085C60.5234 15.6012 58.4878 18.3943 55.7141 19.8731C55.7141 19.8731 56.2582 26.9139 55.9625 28.1225C55.9625 28.1225 54.7565 27.2207 53.6354 28.0876C52.515 28.9536 52.3801 31.0417 52.3801 31.0417Z" fill="#300C21"/>
<path d="M64.3797 22.811C63.0999 22.972 61.9659 23.7763 61.1694 24.7917C63.0185 24.1297 65.11 23.958 67.0381 24.3346L67.6503 24.3901C67.0663 23.2396 65.6601 22.65 64.3797 22.811Z" fill="#121414"/>
<path d="M75.1777 21.6157C76.0607 21.4359 76.9911 21.715 77.7453 22.2089C76.3738 22.1847 74.9514 22.5381 73.7588 23.218L73.3661 23.3916C73.4958 22.4997 74.2947 21.7947 75.1777 21.6157Z" fill="#121414"/>
<path d="M70.7198 6.43651C71.1107 7.41434 71.1107 8.5407 70.7126 9.51138C69.7026 7.70332 68.0597 6.26383 66.1428 5.50518C66.5339 6.85071 66.6824 8.26692 66.5887 9.66702C65.525 8.11036 63.8426 6.99921 61.996 6.61631C62.3791 8.08709 62.3403 9.65989 61.8786 11.0994C60.9787 9.40134 59.445 8.04773 57.6456 7.35976C56.9963 13.5721 52.826 19.6127 47.3412 22.5936C46.1754 24.6352 45.2832 26.8342 44.7121 29.1182C44.2973 28.1403 43.9531 27.1312 43.6871 26.0988C43.0927 23.8371 42.8264 21.6543 42.8579 19.5724C42.9672 11.3266 47.8263 4.76981 56.4329 1.89803C60.5719 0.513134 67.9268 0.0434284 71.7996 2.03131C73.7714 3.04761 75.3987 4.5506 76.6118 6.34971C77.7069 7.93053 78.4897 9.73054 78.9352 11.6075C76.5331 9.40936 73.7401 7.64069 70.7198 6.43651Z" fill="#470A27"/>
<path d="M68.2317 5.12139C66.8702 3.68192 64.9373 2.79802 62.9582 2.70409C63.1225 3.58799 63.2867 4.4719 63.451 5.3558C62.3554 4.44058 60.9398 3.90113 59.5076 3.86982C59.5621 4.66783 59.617 5.46583 59.6719 6.26384C58.4435 5.21533 56.8552 4.59716 55.2354 4.54259C54.2265 11.2872 49.2344 17.2258 42.8577 19.5724C42.967 11.3266 47.826 4.76982 56.4327 1.89804C60.5717 0.513147 67.9266 0.0434418 71.7994 2.03132C73.7711 3.04762 75.3985 4.55061 76.6116 6.34972C73.857 4.87894 70.8609 3.85371 67.7854 3.32229C67.9339 3.92438 68.0831 4.5193 68.2317 5.12139Z" fill="#630D30"/>
<path d="M40.7327 52.9593C40.7327 52.9593 32.2734 56.6721 31.1576 59.2754C30.0421 61.8788 22.6055 98.1536 22.2336 100.002C22.2336 100.002 41.3833 104.827 48.0767 102.595L49.0062 81.7728L40.7327 52.9593Z" fill="#F574A9"/>
<path d="M40.7325 56.9047C40.7325 56.9047 49.192 69.4546 49.0061 71.2671C48.8206 73.0806 44.8709 99.101 44.8709 99.101C44.8709 99.101 51.8878 73.6379 51.0513 70.9889C50.215 68.339 40.7325 56.9047 40.7325 56.9047Z" fill="#F14A8F"/>
<path d="M56.7349 73.4957C53.871 78.9261 42.0178 80.5686 41.3912 80.6474L41.3681 80.6554C41.3681 80.6554 44.2478 74.9825 45.4367 70.7026C46.6263 66.4307 36.9079 51.1816 40.2572 44.9532C43.5981 38.7248 50.0919 34.5629 50.0919 34.5629L50.6322 35.0469L51.4695 35.7913L51.6495 35.9469L52.8541 36.9955L50.8905 41.7603C50.8905 41.7603 56.8915 48.6776 57.4936 50.4695C58.0961 52.2606 59.6847 67.9176 56.7349 73.4957Z" fill="#300C21"/>
<path d="M51.5163 75.0765C50.0604 76.7897 41.9 80.4201 41.3912 80.6474L41.3681 80.6554C41.3681 80.6554 44.2478 74.9825 45.4367 70.7026C46.6263 66.4307 36.9079 51.1816 40.2572 44.9532C43.5981 38.7248 50.0923 34.5629 50.0923 34.5629L50.6322 35.0469L51.4695 35.7913L51.6495 35.9469C50.7024 37.4812 48.9265 40.1258 48.2456 41.7603C47.0407 44.6786 52.4316 51.2675 52.4316 54.2011C52.4316 57.1355 53.0183 73.3087 51.5163 75.0765Z" fill="#470A27"/>
<path d="M48.6213 61.5952C48.9886 64.2004 48.4414 72.5652 47.7844 73.9573C47.1347 75.3502 41.3681 80.6554 41.3681 80.6554C41.3681 80.6554 44.2478 74.9825 45.4367 70.7026C46.6263 66.4307 36.9079 51.1816 40.2572 44.9532C43.5981 38.7248 50.0923 34.5629 50.0923 34.5629L50.6322 35.0469C47.6275 38.5136 42.4243 44.8825 42.2987 46.0017C42.1115 47.6523 48.2456 58.99 48.6213 61.5952Z" fill="#630D30"/>
<path d="M70.895 88.5505L56.6334 89.4237C56.6334 89.4237 50.2661 57.5872 54.1277 48.4611C54.7075 47.0816 55.5235 46.2245 56.6334 46.0697C60.9927 45.4649 64.6499 56.7955 67.1635 67.906C69.5307 78.3302 70.895 88.5505 70.895 88.5505Z" fill="#FAB663"/>
<path d="M62.8801 58.8837C60.5076 57.2205 57.7532 56.1058 54.8917 55.6504C57.1447 57.862 59.7262 59.0384 62.8801 58.8837Z" fill="#F7923D"/>
<path d="M63.7327 66.9962C61.3601 65.333 58.606 64.2174 55.7445 63.7621C57.9976 65.9745 60.5788 67.1509 63.7327 66.9962Z" fill="#F7923D"/>
<path d="M64.658 75.4755C62.2855 73.8124 59.5307 72.6967 56.6696 72.2414C58.9222 74.4538 61.5037 75.6294 64.658 75.4755Z" fill="#F7923D"/>
<path d="M67.1635 67.9059C66.7963 66.6812 66.4534 65.4484 66.1033 64.2245C65.0499 60.5995 63.8583 56.9342 61.6622 53.8656C59.817 51.3024 57.1562 49.1875 54.1277 48.4611C54.7075 47.0815 55.5235 46.2245 56.6334 46.0697C60.9927 45.4649 64.6498 56.7955 67.1635 67.9059Z" fill="#F7923D"/>
<path d="M75.5273 79.759C75.4745 82.5601 75.4155 85.0982 75.3743 86.7819C75.3448 87.9512 74.5772 88.8781 73.6396 88.8781H64.5326C63.5943 88.8781 62.8272 87.9512 62.7975 86.7819C62.756 85.0982 62.6972 82.5601 62.6441 79.759C62.5791 76.346 62.5319 72.551 62.5437 69.4475C62.5613 66.1159 62.6441 63.593 62.8506 63.1815C63.5471 61.835 65.9193 60.4904 65.9193 60.4904L66.4799 49.2448H71.6857L72.2521 60.4904C72.2521 60.4904 74.6246 61.835 75.3206 63.1815C75.5273 63.593 75.6105 66.1159 75.6221 69.4475C75.64 72.551 75.5926 76.346 75.5273 79.759Z" fill="#2EAE7D"/>
<path d="M71.7521 50.1896H66.4195C66.0305 50.1896 65.7153 49.8747 65.7153 49.4855V48.8789C65.7153 48.4889 66.0305 48.174 66.4195 48.174H71.7521C72.1403 48.174 72.4561 48.4889 72.4561 48.8789V49.4855C72.4561 49.8747 72.1403 50.1896 71.7521 50.1896Z" fill="#363950"/>
<path d="M75.5273 79.759H62.6441C62.5791 76.3459 62.5319 72.5509 62.5437 69.4474H75.6221C75.64 72.5509 75.5926 76.3459 75.5273 79.759Z" fill="#20795A"/>
<path d="M95.8133 58.438C96.0093 57.2544 96.1345 56.0198 95.7901 54.8711C95.4456 53.7206 94.5313 52.6703 93.3432 52.4968C91.7937 52.2704 90.4115 53.5596 89.7021 54.9561C88.7976 56.7364 88.5659 58.7977 88.7108 60.79C88.8423 62.5954 89.2145 68.9071 91.817 67.515C94.3264 66.1731 95.4018 60.9242 95.8133 58.438Z" fill="#20795A"/>
<path d="M89.6447 74.0012L90.4875 73.9099C90.6234 73.4071 91.9994 67.8434 92.1175 67.3317C92.8135 64.2747 93.1535 61.1336 93.1213 57.9899C93.1195 57.4853 92.3331 57.479 92.3394 57.9827C92.3707 61.2642 91.9967 64.5279 91.2264 67.702C91.1244 68.118 89.7646 73.5878 89.6447 74.0012Z" fill="#51C292"/>
<path d="M102.008 58.5758C102.95 57.8333 103.97 57.1283 105.143 56.8751C106.316 56.6219 107.679 56.9153 108.403 57.8717C109.35 59.1197 108.887 60.9537 108.007 62.2483C106.883 63.8989 105.191 65.0968 103.375 65.9315C101.729 66.6874 96.0225 69.4071 95.9859 66.4557C95.9501 63.6108 100.029 60.136 102.008 58.5758Z" fill="#20795A"/>
<path d="M90.7729 74.0727L90.8453 74.0637L91.9681 73.9349L91.9958 73.9295C92.487 73.4259 95.595 67.5383 96.1049 67.0704C98.5159 64.858 101.194 62.9551 104.079 61.4011C104.524 61.1586 104.144 60.4769 103.697 60.7131C100.931 62.2036 98.3442 64.0143 96.0065 66.1033C95.0931 66.9138 91.6067 73.1798 90.7729 74.0727Z" fill="#51C292"/>
<path d="M92.7894 61.571C93.8764 61.8976 94.9616 62.3521 95.7641 63.1554C96.8466 64.2397 97.2805 65.8608 97.1481 67.3871C96.8672 70.6248 93.965 73.4267 90.7201 73.5931C87.6533 73.7515 84.438 71.3637 83.4539 68.4633C82.6013 65.9512 84.6026 62.4907 86.9171 61.5308C88.7734 60.7605 90.9134 61.0083 92.7894 61.571Z" fill="#E83847"/>
<path d="M91.2586 63.2136C91.4921 60.8581 92.3483 58.5669 93.7153 56.6336C94.0624 56.8832 94.3648 57.1891 94.7119 57.4388C93.6679 59.4034 92.0709 61.1425 91.2586 63.2136Z" fill="#312A2A"/>
<path d="M91.3517 62.7252C91.8312 61.2615 91.6792 59.6029 90.9411 58.2502C90.2039 56.8984 88.8906 55.8723 87.4001 55.4831C86.9412 56.8957 86.934 58.4372 87.6202 59.755C88.3073 61.0719 89.931 62.2931 91.3517 62.7252Z" fill="#2EAE7D"/>
<path d="M79.3591 61.5478C80.3915 61.0763 81.5071 60.7024 82.6397 60.7766C84.1696 60.8786 85.5643 61.8108 86.4705 63.0463C88.394 65.6658 88.0594 69.6863 85.7298 71.9506C83.5281 74.0915 79.5362 74.4162 76.8837 72.8846C74.5871 71.5579 73.8106 67.6367 74.9172 65.3885C75.8047 63.5858 77.577 62.3619 79.3591 61.5478Z" fill="#F1435B"/>
<path d="M79.2902 63.7916C77.9133 61.8663 77.0455 59.5796 76.7995 57.225C77.2245 57.1838 77.6548 57.2142 78.0797 57.1731C78.5897 59.3381 78.5369 61.699 79.2902 63.7916Z" fill="#312A2A"/>
<path d="M79.0397 63.363C78.435 61.9459 77.2263 60.7999 75.7797 60.2694C74.3331 59.7398 72.6699 59.8337 71.2931 60.5244C71.8791 61.8887 72.8909 63.0526 74.2749 63.5902C75.6598 64.1279 77.6853 63.9741 79.0397 63.363Z" fill="#20795A"/>
<path d="M79.0817 54.4194C79.0558 54.1322 79.0361 53.8352 79.1309 53.5623C79.2249 53.2904 79.4628 53.047 79.7518 53.0372C80.1276 53.0246 80.3995 53.3834 80.5838 53.7126C81.1698 54.7549 81.5849 55.8928 81.8095 57.0675C81.9016 55.3901 82.4912 53.7439 83.4833 52.3894C83.8054 51.9502 84.4191 51.5127 84.8306 51.8679C85.0803 52.0835 85.0731 52.4664 85.0355 52.7938C84.8897 54.0687 84.6007 55.3265 84.1767 56.537C84.8951 55.5931 86.0178 54.9696 87.1987 54.8586C87.5172 54.8282 87.91 54.8774 88.0397 55.17C88.1587 55.4402 87.9744 55.7434 87.7865 55.9725C87.0431 56.8778 86.1109 57.6266 85.0659 58.1572C85.5526 57.9174 86.0706 57.6723 86.6101 57.7215C87.1495 57.7698 87.6899 58.2413 87.6013 58.7763C87.5333 59.194 87.1361 59.4669 86.7648 59.6709C85.6251 60.2971 81.7898 62.0712 80.5954 61.0656C80.03 60.5897 79.8332 58.7548 79.6695 58.057C79.3895 56.8599 79.1927 55.6432 79.0817 54.4194Z" fill="#2EAE7D"/>
<path d="M84.2117 63.6001C84.0981 64.7202 83.6284 65.7687 83.072 66.7609C82.9914 66.9058 82.9011 67.0561 82.8125 67.1983C82.7544 67.3066 82.6926 67.405 82.6318 67.5088C81.1744 69.935 79.5498 72.4105 77.7364 74.7034C77.6326 74.8358 77.5252 74.9709 77.4161 75.1007C76.3076 76.4802 75.1249 77.7881 73.868 78.978C72.0733 80.6769 71.1724 79.7966 71.5884 77.662C71.736 76.9024 71.9006 76.1456 72.0894 75.3905C72.1234 75.2268 72.1664 75.0586 72.2057 74.8931C72.628 73.2076 73.1335 71.5373 73.7186 69.8974C73.7776 69.7391 73.8366 69.5817 73.8957 69.4233C74.2043 68.5886 74.5327 67.7611 74.8834 66.9469C74.9487 66.7913 75.0167 66.6401 75.0882 66.488C75.4899 65.5746 75.9202 64.6755 76.3729 63.7889C76.7129 63.1287 77.0824 62.4613 77.5199 61.8627C77.6308 61.7098 77.7444 61.5612 77.8634 61.427C78.1291 61.1077 78.4234 60.8142 78.7491 60.5575C79.8146 59.7317 81.3346 59.356 82.5316 59.9751C83.7921 60.6228 84.3495 62.1929 84.2117 63.6001Z" fill="#F68640"/>
<path d="M73.7515 76.074C73.2004 75.8485 72.6422 75.6204 72.0893 75.3905C72.1233 75.2268 72.1662 75.0586 72.2056 74.8931C72.7835 75.1283 73.3615 75.3645 73.9394 75.6007C74.2391 75.7304 74.0539 76.1974 73.7515 76.074Z" fill="#F46F2E"/>
<path d="M77.7362 74.7034C77.6325 74.8358 77.5251 74.9709 77.416 75.1006C76.3066 74.5209 75.1695 73.9913 74.0119 73.5154C73.7095 73.3919 73.8974 72.9186 74.1989 73.0412C75.4039 73.5359 76.5848 74.0915 77.7362 74.7034Z" fill="#F46F2E"/>
<path d="M77.1118 71.5981C76.0329 70.9334 74.8958 70.3653 73.7184 69.8974C73.7775 69.7391 73.8365 69.5817 73.8956 69.4233C75.1168 69.9046 76.2932 70.5004 77.4124 71.1929C77.6915 71.3647 77.3909 71.7708 77.1118 71.5981Z" fill="#F46F2E"/>
<path d="M79.6401 69.0359C78.1344 68.1681 76.5366 67.4685 74.8833 66.9469C74.9486 66.7912 75.0166 66.64 75.0882 66.488C76.7755 67.022 78.4028 67.7377 79.9443 68.6279C80.2243 68.788 79.9192 69.196 79.6401 69.0359Z" fill="#F46F2E"/>
<path d="M83.0717 66.7608C82.9912 66.9058 82.9009 67.0561 82.8123 67.1983C81.3352 66.2643 79.7133 65.5745 78.0054 65.1702C77.6959 65.0941 77.7487 64.5904 78.0698 64.6674C79.8412 65.0888 81.5312 65.7982 83.0717 66.7608Z" fill="#F46F2E"/>
<path d="M81.8927 63.3443C81.7997 63.4624 81.6557 63.4633 81.5349 63.3997C80.2797 62.701 78.9244 62.1777 77.5198 61.8628C77.6307 61.7098 77.7443 61.5613 77.8633 61.4271C79.2491 61.7661 80.5848 62.2922 81.8373 62.9873C81.9563 63.058 81.9661 63.2459 81.8927 63.3443Z" fill="#F46F2E"/>
<path d="M53.9775 127.233L63.1335 134.295L101.53 127.507L97.9041 67.7351L93.8138 71.7323L87.7715 68.8507L85.0759 73.3132L79.4916 70.1524L76.2441 74.5218L71.6305 71.9184L69.0843 75.9156L64.797 73.2201L62.3615 78.0028L60.5094 74.8931L58.7673 77.0313L56.3504 74.9861L53.9775 78.0028V127.233Z" fill="#C07E53"/>
<path d="M63.1335 134.295L53.9775 127.233V78.0028L56.3504 74.9861L58.7673 77.0313L60.5094 74.8931L62.3615 78.0028L63.1335 134.295Z" fill="#A55D39"/>
<path d="M77.7318 97.4334C78.2865 98.8362 68.2266 101.551 68.2266 101.551L67.9463 104.433L72.2567 103.692L78.2928 105.738C78.2928 105.738 78.4216 106.971 78.4887 108.49C78.4994 108.68 78.5039 108.873 78.5111 109.069C78.5415 109.976 78.5406 110.941 78.4735 111.777C78.4708 111.858 78.4619 111.94 78.4574 112.019C78.4144 112.435 78.3554 112.813 78.2758 113.126C78.1845 113.475 78.0655 113.742 77.909 113.899L72.9706 113.362C72.9706 113.362 68.1025 118.179 67.0999 118.458C66.7015 118.567 64.9665 118.054 63.0209 117.396C62.0879 117.079 58.4678 115.817 57.5602 115.486L56.9252 111.032L60.2585 106.39C60.6316 105.827 61.1412 105.091 61.7363 104.291L61.7349 104.289C62.0271 103.895 62.3405 103.487 62.6676 103.076C63.8559 101.585 65.2404 100.069 66.5604 99.1413C67.1191 98.7449 67.6664 98.4587 68.1819 98.3262C71.7378 97.4066 77.179 96.0333 77.7318 97.4334Z" fill="#C7614F"/>
<path d="M78.4733 111.777C78.4707 111.858 78.4617 111.94 78.4572 112.019C78.2559 111.969 77.9938 111.902 77.6771 111.824C76.9569 111.648 75.9818 111.426 74.9216 111.208C73.8606 110.998 72.8899 110.872 72.1501 110.859C71.964 110.858 71.7949 110.858 71.6446 110.856C71.4952 110.869 71.3655 110.877 71.2599 110.888C71.0434 110.9 70.9182 110.907 70.9182 110.907C70.9182 110.907 71.0255 110.844 71.2295 110.737C71.3288 110.684 71.4558 110.619 71.6025 110.549C71.7537 110.493 71.9246 110.432 72.1223 110.368C72.8971 110.123 74.0458 109.999 75.2115 110.23C76.3718 110.47 77.3023 110.953 77.9178 111.364C78.145 111.518 78.3293 111.658 78.4733 111.777Z" fill="#974237"/>
<path d="M78.4886 108.49C78.4994 108.68 78.5039 108.873 78.511 109.069L78.3849 109.04C77.6656 108.865 76.6895 108.643 75.6312 108.427C74.5684 108.215 73.5977 108.088 72.8587 108.076C72.6717 108.075 72.5053 108.072 72.3577 108.073C72.2056 108.084 72.0759 108.096 71.9703 108.102C71.752 108.117 71.6304 108.125 71.6304 108.125C71.6304 108.125 71.7359 108.063 71.9372 107.954C72.0383 107.903 72.1636 107.836 72.3121 107.767C72.4615 107.71 72.6368 107.648 72.8301 107.585C73.6102 107.34 74.758 107.215 75.921 107.449C76.9982 107.668 77.8785 108.1 78.4886 108.49Z" fill="#974237"/>
<path d="M61.114 116.737C61.114 116.737 30.693 120.072 28.3225 119.096C25.9521 118.12 24.5577 115.47 24.5577 115.47L25.4426 100.746C25.4426 100.746 37.7864 103.059 39.8868 103.046L38.088 107.528L58.5329 109.069L61.114 116.737Z" fill="#C7614F"/>
<path d="M97.5677 97.1229C97.3726 98.1401 101.288 101.6 100.099 100.54C98.9096 99.4812 93.0167 97.5873 92.4602 98.6134C91.9046 99.6405 98.4838 105.645 98.4838 105.645C98.4838 105.645 92.3233 102.164 91.6488 104.352C91.4287 105.067 92.1041 106.15 93.1061 107.282C91.4144 107.222 90.0366 107.481 90.3685 108.581C91.1513 111.17 98.6314 112.158 98.6314 112.158C107.398 112.395 104.195 98.855 104.195 98.855C104.195 98.855 97.7609 96.1048 97.5677 97.1229Z" fill="#C7614F"/>
<path d="M92.1149 32.9267L103.969 22.0336L107.806 30.1318L92.1149 32.9267Z" fill="white"/>
<path d="M87.027 31.7136L85.8362 21.6695L91.3615 22.3825L87.027 31.7136Z" fill="white"/>
<path d="M92.6301 39.9656L103.367 39.9836L102.887 45.0714L92.6301 39.9656Z" fill="white"/>
</svg>
