<svg width="146" height="290" viewBox="0 0 146 290" fill="none" xmlns="http://www.w3.org/2000/svg">
<path d="M145.338 281.994C145.338 281.994 112.957 289.903 73.0141 289.903C33.0709 289.903 0.690796 281.994 0.690796 281.994C0.690796 281.994 33.0709 274.084 73.0141 274.084C112.957 274.084 145.338 281.994 145.338 281.994" fill="#CBB59B"/>
<path d="M51.8219 278.395C52.1513 277.837 52.3915 277.07 51.9803 276.276C50.7815 273.958 45.9913 265.92 45.3263 262.981C44.8109 260.698 45.569 257.226 45.9341 255.789L32.5658 246.21C29.1168 248.879 23.4198 254.774 22.233 256.013L51.8219 278.395" fill="#46689C"/>
<path d="M49.5382 281.305L19.9485 258.923L22.233 256.013L51.822 278.395L49.5382 281.305" fill="white"/>
<path d="M42.1954 261.911L42.0554 261.966C41.7102 262.112 41.3092 262.434 41.5328 262.846C41.6457 263.057 41.8684 263.189 42.0848 263.295C42.8325 263.663 43.6487 263.844 44.4719 263.959C45.3573 264.083 46.3054 264.209 47.1733 263.921C48.0689 263.624 47.948 262.621 47.1319 262.23C45.72 261.556 43.6892 261.345 42.1954 261.911" fill="white"/>
<path d="M43.1937 265.152L43.0545 265.207C42.7093 265.353 42.3084 265.674 42.5319 266.087C42.6449 266.299 42.8668 266.429 43.0839 266.537C43.8317 266.904 44.6478 267.084 45.4711 267.2C46.3564 267.323 47.3046 267.45 48.1716 267.162C49.0681 266.865 48.9464 265.861 48.131 265.471C46.7191 264.797 44.6875 264.584 43.1937 265.152Z" fill="white"/>
<path d="M45.1257 268.251L44.9857 268.307C44.6421 268.453 44.2404 268.774 44.4632 269.188C44.5769 269.398 44.7988 269.528 45.0168 269.635C45.7645 270.004 46.579 270.183 47.4031 270.299C48.2884 270.423 49.2358 270.549 50.1036 270.261C51.0001 269.964 50.8792 268.961 50.0623 268.571C48.6519 267.896 46.6196 267.685 45.1257 268.251" fill="white"/>
<path d="M85.7141 208.622L67.9948 189.95L28.7842 244.46L47.9751 259.031L85.7141 208.622Z" fill="#6A262D"/>
<path d="M97.5653 143.225L72.2297 142.127C72.9376 155.838 73.8452 180.611 71.4684 185.669C71.3976 185.821 70.8703 186.619 70.0088 187.89L89.941 207.14C89.941 207.14 97.8843 195.317 98.978 190.773C101.761 179.211 97.5232 145.531 97.5653 143.225" fill="#6A262D"/>
<path d="M48.3266 142.49C48.3266 142.49 68.1936 198.62 73.0482 211.879L77.3349 267.44L98.7712 263.948L98.5207 257.6L96.4128 203.465L79.8333 143.714L54.7689 142.746L48.3266 142.49Z" fill="#864549"/>
<path d="M93.5381 211.217C92.0793 213.744 89.1966 213.534 87.029 211.005C85.8677 209.65 84.941 208.002 84.5965 206.176C84.2521 204.349 84.5385 202.338 85.5686 200.866C86.5995 199.395 88.4179 198.576 90.043 199.067C91.9687 199.648 93.1722 201.781 93.8118 203.875C94.336 205.586 94.6128 207.437 94.2612 209.197C94.1005 210 93.8515 210.672 93.5381 211.217" fill="#9C5B61"/>
<path d="M116.533 276.55C116.393 275.918 116.047 275.192 115.2 274.874C112.727 273.944 103.683 271.136 101.179 269.391C99.2358 268.037 97.4214 264.962 96.7079 263.654L80.2621 265.354C79.5366 269.608 79.3553 277.738 79.3235 279.439L116.533 276.55Z" fill="#46689C"/>
<path d="M116.834 280.216L79.6257 283.105L79.3235 279.439L116.533 276.55L116.834 280.216" fill="white"/>
<path d="M98.1301 270.662L98.0649 270.794C97.9098 271.13 97.8326 271.633 98.2805 271.793C98.5088 271.874 98.7625 271.825 98.9964 271.761C99.8022 271.541 100.528 271.138 101.216 270.681C101.956 270.189 102.745 269.658 103.188 268.873C103.65 268.061 102.873 267.397 102.002 267.645C100.497 268.075 98.8476 269.256 98.1301 270.662Z" fill="white"/>
<path d="M101.087 272.408L101.022 272.541C100.866 272.876 100.789 273.379 101.236 273.539C101.465 273.621 101.719 273.571 101.953 273.508C102.758 273.288 103.484 272.885 104.173 272.428C104.912 271.936 105.701 271.405 106.145 270.619C106.606 269.808 105.829 269.144 104.958 269.392C103.452 269.821 101.804 271.004 101.087 272.408Z" fill="white"/>
<path d="M104.638 273.435L104.573 273.568C104.417 273.903 104.34 274.407 104.787 274.566C105.016 274.648 105.269 274.598 105.503 274.535C106.308 274.315 107.034 273.912 107.723 273.454C108.463 272.964 109.251 272.432 109.696 271.647C110.156 270.836 109.38 270.171 108.509 270.419C107.003 270.848 105.355 272.031 104.638 273.435Z" fill="white"/>
<path d="M48.3266 142.49C48.3266 142.49 68.1936 198.62 73.0482 211.879L77.3349 267.44L98.7712 263.948L98.5207 257.6L81.7567 258.597C81.7567 258.597 78.2162 213.502 77.1758 208.669C76.226 204.264 57.9904 151.986 54.7689 142.746L48.3266 142.49" fill="#6A262D"/>
<path d="M94.4178 55.1195C94.4178 55.1195 101.729 59.0514 103.92 61.946C106.112 64.8406 111.982 88.381 111.982 88.381C111.982 88.381 122.621 103.705 123.355 107.018C124.089 110.332 119.687 123.632 116.384 124.87C113.083 126.108 94.4178 122.085 94.4178 122.085L87.4648 88.381L94.4178 55.1195Z" fill="#FFA800"/>
<path d="M60.0349 51.7174L46.3063 55.627C46.3063 55.627 39.2507 109.774 39.2507 113.08C39.2507 116.385 41.4684 126.841 41.4684 126.841C41.4684 126.841 37.325 138.398 39.2507 140.599C41.1757 142.8 62.6177 148.537 81.0632 148.145C99.508 147.752 103.877 140.676 103.912 139.361C103.976 136.884 99.5581 129.1 99.5581 129.1C99.5581 129.1 104.152 121.614 103.912 118.586C103.671 115.56 94.4179 55.1195 94.4179 55.1195L86.7459 53.7163L60.0349 51.7174Z" fill="#FFA800"/>
<path d="M94.2803 63.7397L96.0239 85.6526L98.7714 83.7109L94.2803 63.7397Z" fill="#895A00"/>
<path d="M86.7459 53.7163C84.8154 57.1287 81.3114 61.4209 75.6678 61.907C68.3115 62.5481 62.3672 55.1369 60.0349 51.7173C63.4092 50.7755 66.5743 50.0421 66.5743 50.0421L79.2337 50.5902C79.2337 50.5902 83.1783 52.088 86.7459 53.7163" fill="#F68672"/>
<path d="M80.1986 54.8331L75.8244 57.5917C75.8244 57.5917 68.2908 52.8891 66.571 50.039L66.4732 48.9429L66.1073 42.39L79.3793 38.4104C79.3793 38.4104 79.1438 40.7562 79.0555 43.7502C78.941 47.5429 79.0651 52.3617 80.1986 54.8331" fill="#F68672"/>
<path d="M79.0555 43.7502C75.5683 45.6394 69.2771 48.9978 68.2128 49.351C67.6377 49.5339 67.0244 49.2993 66.4732 48.9429L66.1073 42.39L79.3793 38.4104C79.3793 38.4104 79.1438 40.7562 79.0555 43.7502" fill="#F36269"/>
<path d="M82.2611 37.2323C82.2611 37.2323 81.9008 38.1407 80.4189 39.3418H80.4165C80.1142 39.5884 79.7611 39.8478 79.357 40.1134C77.8114 41.1236 63.5157 46.5295 61.3664 46.1477C59.2164 45.765 57.5006 38.2465 57.4218 37.4606C56.935 32.6363 55.6655 17.7376 55.6655 17.7376C61.6989 1.82394 80.3648 11.0097 82.4584 12.6889C84.552 14.3681 82.2611 37.2323 82.2611 37.2323" fill="#F68672"/>
<path d="M80.4166 39.3418C80.1143 39.5884 79.7612 39.8478 79.3571 40.1134C77.8115 41.1236 63.5158 46.5295 61.3665 46.1477C59.2165 45.765 57.5007 38.2465 57.4219 37.4606C58.627 40.7824 59.9538 45.361 61.4906 45.283C63.8069 45.1669 78.673 40.1643 80.4166 39.3418Z" fill="#F9AA7F"/>
<path d="M57.172 22.4426C57.172 22.4426 59.5019 18.8019 61.0394 20.0651C62.5778 21.3282 61.9407 21.5191 61.9407 21.5191L57.172 22.4426" fill="#F46F2E"/>
<path d="M77.4949 18.9976C77.4949 18.9976 72.0644 14.1485 70.3725 16.3328C69.3845 17.6079 70.2698 18.2777 70.2698 18.2777L77.4949 18.9976Z" fill="#F46F2E"/>
<path d="M58.7159 26.8248C58.6674 27.9487 59.1956 28.885 59.8956 28.9152C60.5956 28.9454 61.2017 28.0585 61.251 26.9345C61.2995 25.8106 60.7714 24.8743 60.0714 24.8441C59.3714 24.8139 58.7644 25.7 58.7159 26.8248Z" fill="#121414"/>
<path d="M57.6707 25.7899C57.6707 25.7899 58.0891 26.4095 58.8058 26.7365C59.5225 27.0626 60.2654 26.9727 60.2654 26.9727C60.2654 26.9727 59.8455 26.3531 59.1296 26.0269C58.4129 25.7 57.6707 25.7899 57.6707 25.7899" fill="white"/>
<path d="M74.2915 25.2132C74.2327 26.5782 73.4953 27.656 72.6449 27.6194C71.7946 27.582 71.1535 26.4453 71.2124 25.0795C71.2712 23.7138 72.0086 22.6367 72.8597 22.6733C73.7101 22.7107 74.3512 23.8474 74.2915 25.2132Z" fill="#121414"/>
<path d="M75.6662 24.071C75.6662 24.071 75.0935 24.7765 74.1922 25.0971C73.291 25.4169 72.4017 25.2299 72.4017 25.2299C72.4017 25.2299 72.9736 24.5236 73.8756 24.2038C74.7769 23.884 75.6662 24.071 75.6662 24.071Z" fill="white"/>
<path d="M70.8535 38.9696C69.5513 39.5542 67.9907 39.5328 66.706 38.9115C67.1324 39.5932 67.752 40.0116 68.5554 40.0164C69.3596 40.0204 70.2855 39.5391 70.8535 38.9696Z" fill="#F14568"/>
<path d="M59.6967 33.1119C59.4493 33.6934 58.1702 33.7069 56.8386 33.1414C55.5063 32.5758 54.6273 31.6467 54.8739 31.0645C55.1213 30.483 56.4004 30.4703 57.7327 31.0358C59.0643 31.6006 59.9433 32.5305 59.6967 33.1119" fill="#F36269"/>
<path d="M76.8447 31.0915C77.0372 31.9928 75.5195 33.0809 73.4561 33.5216C71.3912 33.9615 69.5617 33.5876 69.3692 32.6864C69.1775 31.7844 70.6944 30.697 72.7593 30.2563C74.8235 29.8156 76.653 30.1903 76.8447 31.0915" fill="#F36269"/>
<path d="M74.0235 35.0934C74.0235 35.0934 73.9305 35.2103 73.7674 35.4131C73.6044 35.6231 73.3371 35.9015 72.9744 36.2141C72.2569 36.8418 71.0725 37.5489 69.6144 37.8512C68.1556 38.1487 66.7898 37.9673 65.8822 37.6746C65.4264 37.5298 65.0708 37.3795 64.837 37.2514C64.6071 37.1289 64.475 37.0581 64.475 37.0581C64.475 37.0581 64.6206 37.0915 64.8736 37.1496C65.1265 37.2156 65.4996 37.28 65.9546 37.3349C66.8669 37.4503 68.1285 37.4463 69.4752 37.1726C70.8203 36.8918 71.9808 36.3979 72.7739 35.9318C73.17 35.7011 73.4882 35.4943 73.6934 35.3344C73.9034 35.1809 74.0235 35.0934 74.0235 35.0934Z" fill="#F14568"/>
<path d="M68.2524 31.6738C66.7061 32.7795 64.4963 32.8622 62.872 31.8743C63.0781 33.174 64.3086 34.2877 65.6243 34.2471C66.9399 34.2065 68.1268 32.9847 68.2524 31.6738Z" fill="#F36269"/>
<path d="M65.2394 33.8836C64.8846 33.8025 64.4694 33.6497 64.0812 33.3992C63.693 33.1486 63.3637 32.7946 63.2913 32.373C63.2086 31.9586 63.4305 31.6166 63.8004 31.3716C64.0534 31.2093 64.3334 31.1345 64.6046 31.1083C64.7192 31.0971 64.8226 31.094 64.9236 31.1011C64.9355 30.9699 64.9387 30.8267 64.9459 30.6636C64.9602 29.9788 64.922 29.06 64.7359 28.0434C64.3827 26.0755 63.6079 24.6 63.5133 24.4297C63.5117 24.6246 63.5594 26.2744 63.911 28.1898C64.0717 29.1101 64.2801 29.935 64.4575 30.5809C64.1552 30.5499 63.8203 30.5857 63.4767 30.7424C63.1879 30.8681 62.9087 31.0661 62.6908 31.3779C62.4728 31.7001 62.3893 32.1273 62.468 32.5099C62.6001 33.3013 63.2237 33.7969 63.7384 34.0284C64.2737 34.263 64.7947 34.3314 65.2099 34.2988C65.6347 34.2789 65.9592 34.1803 66.1684 34.0928C66.3236 34.0268 66.4254 33.9719 66.4699 33.9488C66.3753 33.9639 65.8932 34.0252 65.2394 33.8836" fill="#F14568"/>
<path d="M88.65 22.1929C89.4446 23.0989 89.7938 24.3915 89.5512 25.5751C89.4454 26.0826 89.2633 26.5797 88.9992 27.0204C88.6516 27.625 88.1552 28.1317 87.522 28.4331C87.3574 27.6456 87.0129 26.5901 86.694 26.178C85.5477 25.6236 84.2973 25.875 83.408 26.7858C82.5123 27.695 82.2872 29.1848 82.8576 30.3271C81.8617 29.6486 81.199 28.5111 81.0829 27.3123C80.861 28.0211 80.6391 28.7235 80.4172 29.4258C79.2892 26.668 79.7871 23.3001 81.6859 20.9957C80.9636 21.0562 80.2421 21.1087 79.5278 21.1699C80.5182 20.9218 81.1855 19.6347 80.9421 18.5688C80.651 17.324 79.5652 16.4275 78.4611 15.7752C77.365 15.1238 76.1559 14.5964 75.3024 13.6419C75.2364 14.0984 75.1791 14.5471 75.1203 15.0036C73.9987 14.5876 73.1667 13.4875 73.0649 12.2975C72.1127 14.3299 70.1782 15.8755 67.9772 16.3615C67.9899 15.5207 67.6948 14.5741 67.7004 13.7333C67.6025 15.1214 66.8874 16.4442 65.7945 17.2921C64.6944 18.1401 63.2252 18.4965 61.8587 18.2387C62.3232 18.1059 62.4393 17.5523 62.4146 17.0766C61.3344 18.6826 59.5129 19.7668 57.5839 19.9505C55.6566 20.1351 53.66 19.4136 52.2958 18.0462C53.7069 18.673 55.581 17.6294 55.7926 16.0934C55.8467 15.7442 55.8156 15.391 55.7464 15.0434C54.1794 15.1898 52.5639 14.8668 51.1822 14.0961C51.4797 14.1159 51.7724 14.0674 52.0453 13.9569C52.7071 13.6952 53.2527 13.0994 53.5566 12.4391C53.9877 11.5013 54.0561 10.4561 54.2375 9.43873C54.4109 8.42851 54.7402 7.37137 55.5333 6.71752C55.7799 6.51388 56.0845 6.37388 56.4011 6.29593C55.5253 5.66116 55.064 4.4863 55.1077 2.78166C56.4043 3.76324 58.2648 3.55324 59.7547 2.89859C61.2438 2.24474 62.5515 1.20668 64.062 0.591805C66.3052 -0.31341 68.9301 -0.161491 71.0945 0.919517C71.5336 0.678498 71.9942 0.476464 72.473 0.351579C74.0838 -0.0763698 75.8767 0.193286 77.2847 1.08816C79.9359 0.460556 82.7088 1.09373 84.5582 3.09427C86.4068 5.10197 87.0718 8.12307 86.2398 10.7186C86.9461 10.2978 87.6613 9.86986 88.3684 9.44191C88.7375 10.4601 88.4702 11.6723 87.7177 12.4431C89.1217 12.1981 90.6362 12.7303 91.5685 13.8033C90.8367 13.925 90.0969 14.0459 89.3651 14.1668C90.8438 14.9885 91.7633 16.7194 91.6138 18.4113C91.4643 20.0961 90.2496 21.6424 88.65 22.1929" fill="#F35E23"/>
<path d="M91.6138 18.4114C91.5255 19.3794 91.088 20.3093 90.4294 21.0228C89.9323 21.5518 89.3254 21.9614 88.65 22.1929C89.4447 23.0989 89.7938 24.3915 89.5512 25.5751C89.4454 26.0826 89.2633 26.5798 88.9992 27.0204C87.561 26.4764 86.3886 25.109 86.387 23.5483C85.5947 22.7791 85.1922 21.6377 85.3322 20.5416C84.6171 20.9767 84.0953 21.7117 83.9147 22.523C84.077 20.1884 84.2472 17.8474 84.4103 15.5056C83.7747 16.0521 83.1312 16.5978 82.4957 17.1442C83.4144 14.9957 82.3111 12.2085 80.1722 11.2667C80.1324 11.8155 80.0855 12.3572 80.0473 12.9061C78.1843 12.4662 76.603 11.005 76.0152 9.18899C75.5793 10.0576 75.1521 10.9191 74.717 11.7797C74.1984 10.8697 73.6798 9.9526 73.1604 9.03466C71.9083 10.0361 70.6563 11.0376 69.4034 12.047C69.063 11.0837 68.7218 10.1205 68.3813 9.16433C68.0783 11.5538 66.2957 13.6872 63.9913 14.4063C63.9404 13.6538 63.8807 12.8942 63.8298 12.1425C62.8092 14.3315 60.3887 15.8031 57.9682 15.6902C58.3722 14.6601 58.7692 13.6212 59.1661 12.5903C57.1648 14.1024 54.4579 14.6052 52.0453 13.9569C52.7071 13.6952 53.2528 13.0994 53.5566 12.4392C53.8271 11.8537 53.9535 11.2325 54.0577 10.5937C54.1198 10.2135 54.1667 9.82534 54.2375 9.43875C54.4109 8.42854 54.7403 7.3714 55.5333 6.71754C55.7799 6.51391 56.0845 6.37391 56.4011 6.29595C55.5253 5.66119 55.064 4.48632 55.1077 2.78169C56.4043 3.76327 58.2649 3.55327 59.7547 2.89862C61.2438 2.24476 62.5515 1.20671 64.062 0.591829C66.3052 -0.313386 68.9302 -0.161466 71.0946 0.919542C71.5337 0.678522 71.9942 0.476488 72.4731 0.351603C74.0839 -0.0763454 75.8768 0.193311 77.2847 1.08819C79.9359 0.46058 82.7088 1.09375 84.5582 3.09429C86.4068 5.10199 87.0718 8.12309 86.2398 10.7186C86.9462 10.2978 87.6613 9.86989 88.3684 9.44194C88.7375 10.4601 88.4702 11.6724 87.7178 12.4431C89.1217 12.1981 90.6362 12.7303 91.5685 13.8034C90.8367 13.9251 90.0969 14.046 89.3651 14.1669C90.8438 14.9886 91.7634 16.7195 91.6138 18.4114" fill="#F46F2E"/>
<path d="M91.6139 18.4114C91.5256 19.3794 91.0881 20.3093 90.4294 21.0228C88.763 20.1089 87.7003 18.1576 87.8896 16.2533C87.5778 16.729 87.2667 17.2055 86.9478 17.6812C86.8754 16.3544 86.811 15.0276 86.7378 13.7016C86.1675 14.3347 85.5884 14.9671 85.0188 15.6011C85.0005 13.3508 84.2027 11.1044 82.7956 9.34491C82.2189 9.749 81.6358 10.1443 81.0599 10.5476C81.7328 9.32183 82.4344 7.968 82.1648 6.60222C81.9436 5.51326 81.0655 4.58736 79.9908 4.31214C78.917 4.03612 77.6984 4.41952 76.9809 5.26747C76.9968 4.21271 76.183 3.20566 75.1434 3.0076C74.1117 2.80237 72.975 3.42601 72.5892 4.4044C71.2068 3.45703 69.2587 3.73941 67.8428 4.64224C66.4261 5.54507 65.4239 6.95539 64.4542 8.32037C64.3206 7.34277 64.1869 6.35801 64.0541 5.37325C63.382 7.80731 61.037 9.67263 58.5147 9.77683C59.0556 8.95912 59.5885 8.13265 60.1294 7.31494C58.0573 8.32674 56.036 9.41729 54.0578 10.5938C54.1198 10.2135 54.1668 9.82535 54.2376 9.43877C54.411 8.42856 54.7403 7.37141 55.5333 6.71756C55.7799 6.51393 56.0846 6.37392 56.4011 6.29597C55.5254 5.66121 55.064 4.48634 55.1078 2.7817C56.4043 3.76328 58.2649 3.55328 59.7547 2.89863C61.2438 2.24478 62.5515 1.20672 64.0621 0.591845C66.3052 -0.31337 68.9302 -0.16145 71.0946 0.919558C71.5337 0.678539 71.9942 0.476504 72.4731 0.35162C74.0839 -0.0763291 75.8768 0.193327 77.2847 1.0882C79.9359 0.460596 82.7089 1.09377 84.5583 3.09431C86.4069 5.10201 87.0719 8.12311 86.2398 10.7186C86.9462 10.2979 87.6613 9.8699 88.3685 9.44195C88.7375 10.4601 88.4703 11.6724 87.7178 12.4432C89.1217 12.1982 90.6363 12.7303 91.5685 13.8034C90.8367 13.9251 90.0969 14.046 89.3651 14.1669C90.8439 14.9886 91.7634 16.7195 91.6139 18.4114" fill="#F68640"/>
<path d="M80.1714 37.7136C83.0708 37.6117 85.2504 35.9883 86.4388 34.601C86.706 34.2884 86.9232 33.9877 87.087 33.7196C87.9771 32.2584 88.4393 27.0761 86.3672 25.7779C84.9139 24.8687 83.7764 26.0468 83.2268 26.8351V26.8383C82.9921 27.1731 82.8633 27.4372 82.8633 27.4372L80.1714 37.7136Z" fill="#F9AA7F"/>
<path d="M80.1714 37.7136C83.0708 37.6117 85.2504 35.9883 86.4388 34.601C86.543 34.4586 86.6336 34.3234 86.7124 34.1937C87.6025 32.7325 88.0646 27.551 85.9909 26.2536C84.8153 25.5162 83.8448 26.1486 83.2268 26.8351V26.8383C82.9921 27.1731 82.8633 27.4372 82.8633 27.4372L80.1714 37.7136Z" fill="#F68672"/>
<path d="M86.8589 29.9309C86.9472 30.3509 86.8612 30.7805 86.7069 31.1846C86.0507 32.9011 84.253 34.1555 82.534 35.3177C83.0717 34.4944 83.2984 33.5486 83.2356 32.6148C83.2141 32.2894 83.1584 31.9649 83.1688 31.6404C83.2133 30.3334 86.3355 27.4484 86.8589 29.9309" fill="#F36269"/>
<path d="M81.6756 35.7767L81.7727 35.7274C81.8339 35.6932 81.9333 35.6495 82.0471 35.5787C82.277 35.4395 82.596 35.2135 82.9022 34.8723C83.2061 34.5319 83.4893 34.0713 83.6372 33.5185C83.774 32.9664 83.7788 32.3166 83.5067 31.6786C83.4789 31.5983 83.4367 31.5211 83.3962 31.4447L83.3651 31.3875L83.3612 31.3811L83.362 31.3827L83.3604 31.3819H83.3596L83.3651 31.3724L83.3946 31.3238L83.455 31.2268L83.5791 31.0383C83.7478 30.7893 83.9283 30.557 84.1121 30.3423C84.2966 30.1267 84.4875 29.9294 84.6737 29.7505C84.863 29.5723 85.0443 29.4052 85.2225 29.2827C85.3999 29.1602 85.5932 29.0831 85.7713 29.068C85.9511 29.056 86.1174 29.1029 86.2271 29.1642C86.3401 29.2262 86.3998 29.3026 86.4236 29.3583L86.4491 29.4466L86.4483 29.3535C86.4395 29.2923 86.3966 29.1992 86.286 29.1093C86.177 29.0226 86.0028 28.9367 85.7674 28.9208C85.5327 28.9089 85.2758 28.9765 85.0443 29.0942C84.8105 29.2127 84.5989 29.3639 84.3754 29.5309C84.1542 29.6995 83.9283 29.8904 83.7096 30.1044C83.4916 30.3184 83.2792 30.5546 83.0859 30.8124L82.9428 31.0096L82.8743 31.1114L82.7829 31.2546L82.72 31.3557L82.7725 31.4622L82.8513 31.6134L82.9467 31.8162C83.183 32.3698 83.2164 32.9402 83.1456 33.4469C83.0629 33.9536 82.872 34.399 82.6476 34.749C82.4225 35.0998 82.172 35.3567 81.9843 35.5254C81.8912 35.6097 81.8084 35.6678 81.7559 35.7115L81.6756 35.7767" fill="#D03B58"/>
<path d="M52.0756 194.371C52.0756 197.45 44.079 198.614 38.6127 198.493C33.3612 198.607 25.7957 197.539 25.1991 194.735C25.1634 194.616 25.1506 194.496 25.1506 194.371C25.1506 191.769 28.1343 177.09 29.5367 170.335C29.9718 168.264 30.2526 166.933 30.2526 166.933H46.9673C46.9673 166.933 47.2473 168.264 47.6832 170.335C49.0855 177.09 52.0756 191.769 52.0756 194.371" fill="#46689C"/>
<path d="M47.6832 170.335C47.2473 168.264 46.9673 166.933 46.9673 166.933H43.9947H30.2526C30.2526 166.933 29.9718 168.264 29.5367 170.335H44.7663C46.4438 177.833 48.8723 189.382 48.3935 191.178C47.719 193.75 36.0228 198.249 25.1992 194.735C25.7957 197.539 33.3612 198.607 38.6127 198.493C44.079 198.614 52.0756 197.45 52.0756 194.371C52.0756 191.769 49.0855 177.09 47.6832 170.335Z" fill="#2C507E"/>
<path d="M48.3952 168.315H28.8273V163.849H48.3952V168.315Z" fill="#46689C"/>
<path d="M44.5611 184.799H29.6735V178.135H44.5611V184.799Z" fill="white"/>
<path d="M46.3063 153.672C45.9038 154.093 45.203 154.19 44.701 153.895C44.2564 156.372 43.811 158.85 43.3647 161.327C43.2605 161.913 43.0791 162.595 42.5239 162.811C41.7953 163.093 41.0977 162.355 40.688 161.689C39.7207 160.116 39.0908 158.461 38.4353 156.789H36.1953C36.3115 157.822 37.1117 159.152 37.5039 159.84C37.8968 160.529 40.0851 166.914 40.2235 166.941C41.6768 167.234 43.1969 167.197 44.6342 166.83C44.2469 162.392 44.8204 157.872 46.3063 153.672Z" fill="#2AB57E"/>
<path d="M49.4927 148.087C50.413 146.796 50.0121 144.764 48.671 143.918C47.3299 143.073 45.3238 143.586 44.5546 144.973C44.2547 143.606 42.8897 142.555 41.4913 142.616C40.0929 142.676 38.8226 143.84 38.6421 145.228C37.7034 143.68 35.6894 142.875 33.9426 143.349C32.195 143.823 30.865 145.536 30.8372 147.347C29.8842 147.109 28.8302 147.121 27.9688 147.595C27.1073 148.067 26.5012 149.068 26.6818 150.034C26.86 151 27.9616 151.746 28.878 151.391C28.0277 152.056 27.7683 153.368 28.3021 154.307C28.8358 155.245 30.095 155.695 31.102 155.305C29.7951 157.119 30.8292 160.101 32.9785 160.719C35.1763 161.349 37.3622 159.422 37.4608 157.259L37.4974 157.327C37.5077 158.362 38.1568 159.335 39.027 159.906C39.941 160.506 41.0562 160.723 42.1484 160.77C45.2029 160.898 50.0988 158.841 48.9319 155.005L48.9303 154.922C50.8537 154.741 52.9871 154.204 53.2321 151.863C53.4421 149.849 51.5092 147.896 49.4927 148.087" fill="#2EAE7D"/>
<path d="M34.4581 185.612C34.3858 189.437 34.3054 192.899 34.2489 195.198C34.2092 196.794 33.1616 198.058 31.8809 198.058H19.4529C18.1722 198.058 17.1254 196.794 17.0848 195.198C17.0284 192.899 16.948 189.437 16.8756 185.612C16.7866 180.956 16.7221 175.776 16.7389 171.541C16.7627 166.994 16.8756 163.551 17.1572 162.989C18.1078 161.152 21.3461 159.316 21.3461 159.316L22.1113 143.969H29.2146L29.9885 159.316C29.9885 159.316 33.226 161.152 34.1765 162.989C34.4581 163.551 34.5711 166.994 34.587 171.541C34.6117 175.776 34.5464 180.956 34.4581 185.612" fill="#C07E53"/>
<path d="M29.3053 145.259H22.0278C21.4972 145.259 21.0661 144.829 21.0661 144.297V143.469C21.0661 142.938 21.4972 142.508 22.0278 142.508H29.3053C29.8367 142.508 30.267 142.938 30.267 143.469V144.297C30.267 144.829 29.8367 145.259 29.3053 145.259Z" fill="#363950"/>
<path d="M34.4581 185.612H16.8756C16.7866 180.956 16.7221 175.776 16.7389 171.541H34.587C34.6117 175.776 34.5464 180.956 34.4581 185.612Z" fill="#F68640"/>
<path d="M74.4927 157.258V192.773H49.748V157.258H74.4927Z" fill="#5B9FDC"/>
<path d="M58.0357 157.258H52.6259V155.074H58.0357V157.258Z" fill="#363950"/>
<path d="M74.4927 174.087V179.673L74.3177 179.738C72.0706 180.561 69.9515 181.991 68.7838 184.086C67.9605 185.552 67.5055 187.42 66.0109 188.19C64.2768 189.083 62.2468 187.963 60.442 187.21C57.0804 185.792 53.2042 185.704 49.748 186.848V168.18C51.6277 169.044 53.8987 169.172 55.8897 168.53C59.1518 167.479 61.651 164.748 63.1807 161.688C63.8862 160.27 64.4176 158.787 64.8495 157.258H67.9788C67.6869 160.912 68.3519 164.642 69.9459 167.94C71.0548 170.252 72.6139 172.342 74.4927 174.087" fill="white"/>
<path d="M54.9591 173.852L56.0298 176.415L57.1012 173.852H58.8162V178.76H57.4019V176.071L56.5619 178.284H55.4976L54.6576 176.071V178.76H53.2433V173.852H54.9591Z" fill="#363950"/>
<path d="M61.1436 173.852V178.76H59.5193V173.852H61.1436Z" fill="#363950"/>
<path d="M63.4694 173.852V177.409H65.5136V178.76H61.8451V173.852H63.4694Z" fill="#363950"/>
<path d="M69.0582 178.76L68.0361 177.073L67.5596 177.605V178.76H65.9361V173.852H67.5596V175.554L69.0232 173.852H70.8934L69.1434 175.826L70.9983 178.76H69.0582" fill="#363950"/>
<path d="M69.7058 196.088C70.0422 196.174 70.3922 196.257 70.7351 196.198C71.0771 196.139 71.4128 195.903 71.4812 195.561C71.5695 195.115 71.1956 194.722 70.84 194.438C69.7137 193.538 68.4418 192.821 67.0879 192.325C69.1012 192.542 71.1757 192.163 72.983 191.246C73.5676 190.949 74.2088 190.305 73.8667 189.745C73.6583 189.406 73.2009 189.34 72.804 189.32C71.2592 189.246 69.7057 189.343 68.1817 189.611C69.4456 188.941 70.4073 187.725 70.7709 186.341C70.8687 185.968 70.887 185.493 70.564 185.281C70.2658 185.085 69.8688 185.246 69.5602 185.425C68.3368 186.132 67.2629 187.096 66.4285 188.235C66.8079 187.703 67.2009 187.135 67.2486 186.483C67.2948 185.832 66.8406 185.097 66.1867 185.097C65.676 185.097 65.2727 185.515 64.9585 185.917C63.9897 187.151 61.1285 191.369 62.0918 192.987C62.5475 193.753 64.6921 194.346 65.4915 194.678C66.8605 195.246 68.27 195.717 69.7058 196.088" fill="#2EAE7D"/>
<path d="M59.7827 188.188C58.4272 188.103 57.0869 188.458 55.7983 188.926C55.6098 188.993 55.4141 189.072 55.2272 189.148C55.0872 189.197 54.9575 189.251 54.8223 189.304C51.6501 190.564 48.3863 192.012 45.3032 193.722C45.1242 193.82 44.9436 193.921 44.7663 194.026C42.9081 195.075 41.1208 196.228 39.4591 197.49C37.0871 199.293 37.9581 200.538 40.5798 200.461C41.5121 200.434 42.4452 200.385 43.3806 200.309C43.5826 200.301 43.791 200.282 43.9955 200.268C46.0827 200.095 48.1708 199.819 50.2365 199.444C50.4362 199.404 50.6359 199.365 50.8355 199.326C51.8895 199.123 52.9386 198.893 53.9751 198.635C54.1732 198.587 54.3657 198.536 54.5622 198.481C55.7275 198.181 56.8817 197.844 58.0247 197.479C58.8766 197.204 59.7445 196.896 60.5423 196.491C60.7459 196.389 60.9448 196.283 61.1278 196.168C61.5597 195.914 61.9661 195.621 62.3352 195.284C63.526 194.177 64.2713 192.442 63.7686 190.895C63.2444 189.269 61.4849 188.298 59.7827 188.188" fill="#F68640"/>
<path d="M42.8929 198.197C43.0528 198.897 43.215 199.605 43.3805 200.309C43.5825 200.301 43.7909 200.282 43.9954 200.268C43.8275 199.534 43.6605 198.8 43.4934 198.065C43.3964 197.684 42.8046 197.813 42.8929 198.197" fill="#F46F2E"/>
<path d="M45.3032 193.722C45.1242 193.82 44.9436 193.921 44.7663 194.026C45.2404 195.46 45.6484 196.917 45.9889 198.388C46.0764 198.772 46.6761 198.641 46.5886 198.257C46.2363 196.726 45.8067 195.212 45.3032 193.722" fill="#F46F2E"/>
<path d="M48.8755 195.073C49.4562 196.487 49.9096 197.952 50.2365 199.444C50.4362 199.404 50.6358 199.365 50.8355 199.326C50.5006 197.778 50.0225 196.261 49.418 194.795C49.2677 194.429 48.726 194.707 48.8755 195.073Z" fill="#F46F2E"/>
<path d="M52.4192 192.566C53.1582 194.526 53.6784 196.565 53.9751 198.635C54.1732 198.587 54.3657 198.536 54.5622 198.481C54.2559 196.368 53.723 194.292 52.9649 192.283C52.8289 191.918 52.2832 192.202 52.4192 192.566" fill="#F46F2E"/>
<path d="M55.7983 188.926C55.6098 188.993 55.4141 189.072 55.2272 189.148C56.0497 191.09 56.5532 193.155 56.7003 195.266C56.7306 195.65 57.3399 195.685 57.312 195.288C57.1569 193.098 56.6431 190.947 55.7983 188.926Z" fill="#F46F2E"/>
<path d="M59.6339 190.998C59.4748 191.085 59.4454 191.256 59.4979 191.412C60.0849 193.043 60.4421 194.758 60.5423 196.491C60.7459 196.389 60.9448 196.283 61.1278 196.168C60.9949 194.451 60.6298 192.76 60.0475 191.133C59.9879 190.977 59.7651 190.93 59.6339 190.998Z" fill="#F46F2E"/>
<path d="M45.1623 166.328C45.1082 165.985 45.0438 165.631 44.8529 165.341C44.662 165.051 44.312 164.836 43.9715 164.91C43.5276 165.006 43.316 165.506 43.1967 165.946C42.8205 167.337 42.6694 168.79 42.7545 170.229C42.1507 168.296 40.9759 166.544 39.416 165.253C38.9109 164.835 38.0629 164.503 37.6875 165.041C37.4592 165.366 37.5809 165.813 37.7209 166.183C38.2674 167.632 38.9769 169.018 39.8296 170.308C38.7112 169.417 37.2134 169.018 35.7999 169.237C35.4181 169.296 34.975 169.469 34.9098 169.849C34.8486 170.2 35.1548 170.5 35.4411 170.713C36.5778 171.552 37.8895 172.152 39.2672 172.464C38.6277 172.328 37.95 172.195 37.3327 172.41C36.7171 172.627 36.2247 173.338 36.4848 173.937C36.6884 174.405 37.2325 174.608 37.7273 174.736C39.2458 175.132 44.2547 176.076 45.3532 174.547C45.8742 173.824 45.5632 171.62 45.5489 170.755C45.5234 169.273 45.3945 167.793 45.1623 166.328" fill="#2EAE7D"/>
<path d="M41.8732 178.577C42.3353 179.855 43.196 180.942 44.1386 181.937C44.2762 182.084 44.4257 182.231 44.5705 182.373C44.6707 182.483 44.7726 182.58 44.8736 182.682C47.2941 185.089 49.9247 187.504 52.7214 189.651C52.8813 189.775 53.0468 189.902 53.2138 190.021C54.9169 191.307 56.6859 192.488 58.5067 193.508C61.1054 194.965 61.9001 193.67 60.7841 191.296C60.3879 190.452 59.9711 189.615 59.5289 188.787C59.4398 188.607 59.3395 188.423 59.2449 188.24C58.2537 186.395 57.1704 184.59 56.0011 182.845C55.8857 182.678 55.7704 182.511 55.655 182.343C55.0473 181.457 54.4197 180.588 53.769 179.738C53.6465 179.576 53.5233 179.419 53.3936 179.263C52.6546 178.312 51.8854 177.388 51.0956 176.486C50.5038 175.814 49.8746 175.142 49.1849 174.57C49.0099 174.425 48.8341 174.285 48.6559 174.163C48.2503 173.868 47.8199 173.612 47.3633 173.408C45.8743 172.757 43.9859 172.766 42.7673 173.843C41.485 174.972 41.2965 176.973 41.8732 178.577" fill="#F68640"/>
<path d="M57.7853 190.078C58.3644 189.651 58.949 189.22 59.5289 188.787C59.4398 188.607 59.3395 188.423 59.2449 188.24C58.6388 188.686 58.0327 189.133 57.4257 189.579C57.1139 189.82 57.4687 190.311 57.7853 190.078" fill="#F46F2E"/>
<path d="M52.7213 189.651C52.8812 189.775 53.0467 189.902 53.2137 190.021C54.3393 189.015 55.5126 188.06 56.7264 187.162C57.0438 186.928 56.6843 186.43 56.3669 186.664C55.1037 187.597 53.8867 188.595 52.7213 189.651" fill="#F46F2E"/>
<path d="M52.5354 185.836C53.6021 184.739 54.7634 183.74 56.0011 182.845C55.8858 182.678 55.7704 182.511 55.6551 182.343C54.3681 183.267 53.1685 184.31 52.0645 185.45C51.7884 185.733 52.2594 186.12 52.5354 185.836" fill="#F46F2E"/>
<path d="M48.824 183.584C50.3274 182.126 51.9891 180.836 53.7693 179.738C53.6468 179.576 53.5235 179.42 53.3939 179.263C51.5795 180.385 49.8875 181.702 48.3468 183.198C48.0676 183.468 48.544 183.855 48.824 183.584Z" fill="#F46F2E"/>
<path d="M44.1386 181.937C44.2762 182.084 44.4257 182.231 44.5705 182.373C46.023 180.844 47.7157 179.559 49.5938 178.582C49.9334 178.403 49.7226 177.829 49.3694 178.013C47.423 179.028 45.6547 180.357 44.1386 181.937" fill="#F46F2E"/>
<path d="M44.5102 177.595C44.6533 177.705 44.8212 177.664 44.9445 177.553C46.206 176.365 47.637 175.354 49.185 174.57C49.01 174.425 48.8342 174.285 48.656 174.163C47.1343 174.968 45.7287 175.978 44.468 177.16C44.3502 177.278 44.394 177.502 44.5102 177.595" fill="#F46F2E"/>
<path d="M73.5 180.85C73.5 181.39 73.1341 181.827 72.6823 181.827H71.4915C71.0397 181.827 70.673 181.39 70.673 180.85V169.818C70.673 169.279 71.0397 168.842 71.4915 168.842H72.6823C73.1341 168.842 73.5 169.279 73.5 169.818V180.85ZM73.5 197.081C73.5 197.621 73.1341 198.058 72.6823 198.058H71.4915C71.0397 198.058 70.673 197.621 70.673 197.081V186.05C70.673 185.51 71.0397 185.073 71.4915 185.073H72.6823C73.1341 185.073 73.5 185.51 73.5 186.05V197.081ZM68.1443 180.85C68.1443 181.39 67.7776 181.827 67.325 181.827H66.135C65.6832 181.827 65.3173 181.39 65.3173 180.85V169.818C65.3173 169.279 65.6832 168.842 66.135 168.842H67.325C67.7776 168.842 68.1443 169.279 68.1443 169.818V180.85ZM68.1443 197.081C68.1443 197.621 67.7776 198.058 67.325 198.058H66.135C65.6832 198.058 65.3173 197.621 65.3173 197.081V186.05C65.3173 185.51 65.6832 185.073 66.135 185.073H67.325C67.7776 185.073 68.1443 185.51 68.1443 186.05V197.081ZM62.787 180.85C62.787 181.39 62.4211 181.827 61.9692 181.827H60.7793C60.3275 181.827 59.9607 181.39 59.9607 180.85V169.818C59.9607 169.279 60.3275 168.842 60.7793 168.842H61.9692C62.4211 168.842 62.787 169.279 62.787 169.818V180.85ZM62.787 197.081C62.787 197.621 62.4211 198.058 61.9692 198.058H60.7793C60.3275 198.058 59.9607 197.621 59.9607 197.081V186.05C59.9607 185.51 60.3275 185.073 60.7793 185.073H61.9692C62.4211 185.073 62.787 185.51 62.787 186.05V197.081ZM57.4313 180.85C57.4313 181.39 57.0646 181.827 56.6136 181.827H55.4228C54.9702 181.827 54.6042 181.39 54.6042 180.85V169.818C54.6042 169.279 54.9702 168.842 55.4228 168.842H56.6136C57.0646 168.842 57.4313 169.279 57.4313 169.818V180.85ZM57.4313 197.081C57.4313 197.621 57.0646 198.058 56.6136 198.058H55.4228C54.9702 198.058 54.6042 197.621 54.6042 197.081V186.05C54.6042 185.51 54.9702 185.073 55.4228 185.073H56.6136C57.0646 185.073 57.4313 185.51 57.4313 186.05V197.081ZM52.0755 180.85C52.0755 181.39 51.7088 181.827 51.2562 181.827H50.0663C49.6144 181.827 49.2477 181.39 49.2477 180.85V169.818C49.2477 169.279 49.6144 168.842 50.0663 168.842H51.2562C51.7088 168.842 52.0755 169.279 52.0755 169.818V180.85ZM52.0755 197.081C52.0755 197.621 51.7088 198.058 51.2562 198.058H50.0663C49.6144 198.058 49.2477 197.621 49.2477 197.081V186.05C49.2477 185.51 49.6144 185.073 50.0663 185.073H51.2562C51.7088 185.073 52.0755 185.51 52.0755 186.05V197.081ZM46.7182 180.85C46.7182 181.39 46.3523 181.827 45.9005 181.827H44.7097C44.2571 181.827 43.892 181.39 43.892 180.85V169.818C43.892 169.279 44.2571 168.842 44.7097 168.842H45.9005C46.3523 168.842 46.7182 169.279 46.7182 169.818V180.85ZM46.7182 197.081C46.7182 197.621 46.3523 198.058 45.9005 198.058H44.7097C44.2571 198.058 43.892 197.621 43.892 197.081V186.05C43.892 185.51 44.2571 185.073 44.7097 185.073H45.9005C46.3523 185.073 46.7182 185.51 46.7182 186.05V197.081ZM41.3625 180.85C41.3625 181.39 40.9958 181.827 40.544 181.827H39.3532C38.9014 181.827 38.5355 181.39 38.5355 180.85V169.818C38.5355 169.279 38.9014 168.842 39.3532 168.842H40.544C40.9958 168.842 41.3625 169.279 41.3625 169.818V180.85ZM41.3625 197.081C41.3625 197.621 40.9958 198.058 40.544 198.058H39.3532C38.9014 198.058 38.5355 197.621 38.5355 197.081V186.05C38.5355 185.51 38.9014 185.073 39.3532 185.073H40.544C40.9958 185.073 41.3625 185.51 41.3625 186.05V197.081ZM36.0052 180.85C36.0052 181.39 35.6393 181.827 35.1875 181.827H33.9975C33.5457 181.827 33.179 181.39 33.179 180.85V169.818C33.179 169.279 33.5457 168.842 33.9975 168.842H35.1875C35.6393 168.842 36.0052 169.279 36.0052 169.818V180.85ZM36.0052 197.081C36.0052 197.621 35.6393 198.058 35.1875 198.058H33.9975C33.5457 198.058 33.179 197.621 33.179 197.081V186.05C33.179 185.51 33.5457 185.073 33.9975 185.073H35.1875C35.6393 185.073 36.0052 185.51 36.0052 186.05V197.081ZM30.6495 180.85C30.6495 181.39 30.2828 181.827 29.8309 181.827H28.641C28.1884 181.827 27.8225 181.39 27.8225 180.85V169.818C27.8225 169.279 28.1884 168.842 28.641 168.842H29.8309C30.2828 168.842 30.6495 169.279 30.6495 169.818V180.85ZM30.6495 197.081C30.6495 197.621 30.2828 198.058 29.8309 198.058H28.641C28.1884 198.058 27.8225 197.621 27.8225 197.081V186.05C27.8225 185.51 28.1884 185.073 28.641 185.073H29.8309C30.2828 185.073 30.6495 185.51 30.6495 186.05V197.081ZM25.293 180.85C25.293 181.39 24.9271 181.827 24.4744 181.827H23.2845C22.8327 181.827 22.4659 181.39 22.4659 180.85V169.818C22.4659 169.279 22.8327 168.842 23.2845 168.842H24.4744C24.9271 168.842 25.293 169.279 25.293 169.818V180.85ZM25.293 197.081C25.293 197.621 24.9271 198.058 24.4744 198.058H23.2845C22.8327 198.058 22.4659 197.621 22.4659 197.081V186.05C22.4659 185.51 22.8327 185.073 23.2845 185.073H24.4744C24.9271 185.073 25.293 185.51 25.293 186.05V197.081ZM19.9364 180.85C19.9364 181.39 19.5705 181.827 19.1187 181.827H17.9279C17.4761 181.827 17.1102 181.39 17.1102 180.85V169.818C17.1102 169.279 17.4761 168.842 17.9279 168.842H19.1187C19.5705 168.842 19.9364 169.279 19.9364 169.818V180.85ZM19.9364 197.081C19.9364 197.621 19.5705 198.058 19.1187 198.058H17.9279C17.4761 198.058 17.1102 197.621 17.1102 197.081V186.05C17.1102 185.51 17.4761 185.073 17.9279 185.073H19.1187C19.5705 185.073 19.9364 185.51 19.9364 186.05V197.081ZM45.2053 165.378H13.5013C13.5013 165.378 14.7382 199.612 15.1757 200.278C15.6132 200.944 37.6883 202.065 45.2053 202.054C52.754 202.043 74.9231 200.855 75.3598 200.189C75.7973 199.523 76.9085 165.378 76.9085 165.378H45.2053" fill="#DCDDDA"/>
<path d="M79.7983 166.981H10.6122V160.716H79.7983V166.981Z" fill="#BCBEBC"/>
<path d="M52.2696 163.78C51.191 163.78 50.4465 162.255 50.822 160.821C51.3637 158.759 52.0008 156.08 52.1591 154.353C52.4455 151.213 49.9207 144.283 49.9207 144.283H53.2353C53.2353 144.283 55.3973 151.775 55.3289 154.032C55.2796 155.658 54.2837 160 53.7317 162.301C53.5177 163.189 52.9307 163.78 52.2696 163.78" fill="#DCDDDA"/>
<path d="M61.582 152.821C60.2464 153.513 56.5412 143.81 56.5412 143.81L53.6561 143.823L54.8255 148.022L53.404 154.213C53.404 154.213 52.1941 154.464 50.6947 154.684C50.5086 154.713 50.3177 154.738 50.1236 154.765C49.2271 154.886 48.2702 154.982 47.435 155C47.3546 155.006 47.2719 155.005 47.1939 155.009C46.7755 155.008 45.4456 154.793 45.2738 154.654L45.3088 149.703C45.3088 149.703 40.0421 145.362 39.6651 144.395C39.5171 144.011 41.4135 135.57 41.6513 134.637L46.004 133.559C46.004 133.559 54.03 138.169 54.4707 138.452C56.0679 139.48 57.7113 140.7 58.7645 141.916C59.2131 142.43 59.552 142.944 59.7349 143.442C61.0052 146.874 62.9151 152.131 61.582 152.821" fill="#F68672"/>
<path d="M47.4349 155C47.3546 155.006 47.2719 155.005 47.1939 155.009C47.221 154.805 47.2623 154.537 47.3077 154.214C47.4095 153.484 47.5312 152.494 47.641 151.421C47.742 150.347 47.7698 149.373 47.707 148.638C47.6903 148.453 47.6728 148.285 47.6601 148.137C47.6322 147.99 47.6107 147.862 47.59 147.758C47.5558 147.545 47.536 147.421 47.536 147.421C47.536 147.421 47.6091 147.521 47.7356 147.712C47.7992 147.806 47.8756 147.925 47.9607 148.063C48.0307 148.208 48.1087 148.372 48.1922 148.561C48.5136 149.306 48.7522 150.431 48.64 151.61C48.5191 152.785 48.1341 153.756 47.7881 154.408C47.6593 154.649 47.5376 154.845 47.4349 155Z" fill="#D03B58"/>
<path d="M50.6946 154.684C50.5085 154.713 50.3175 154.738 50.1234 154.765L50.1394 154.637C50.2404 153.906 50.3613 152.916 50.4703 151.845C50.5737 150.768 50.6007 149.795 50.5387 149.06C50.5212 148.875 50.5069 148.71 50.4909 148.563C50.4647 148.414 50.44 148.286 50.4233 148.182C50.3875 147.967 50.3669 147.848 50.3669 147.848C50.3669 147.848 50.4385 147.945 50.5665 148.134C50.6278 148.229 50.7073 148.347 50.7892 148.487C50.8616 148.629 50.9404 148.797 51.0231 148.982C51.3452 149.731 51.5831 150.858 51.4693 152.033C51.3596 153.124 51.0199 154.04 50.6946 154.684" fill="#D03B58"/>
<path d="M46.3063 55.627C46.3063 55.627 37.6336 59.0641 36.1954 60.6685C34.7564 62.2721 22.4661 105.563 22.4661 108.498C22.4661 111.433 22.4661 116.385 22.4661 116.385C22.4661 116.385 22.466 131.271 23.3832 132.633C24.3011 133.996 34.3858 140.965 34.3858 140.965C34.3858 140.965 34.6642 144.6 35.5813 145.259C36.4993 145.919 39.6651 144.395 39.6651 144.395C39.6651 144.395 45.3454 134.749 46.7 133.959C46.7 133.959 47.9902 131.061 47.9314 130.326C47.8717 129.592 44.1116 127.3 44.1116 127.3L41.563 111.8C41.563 111.8 49.1269 85.752 49.9208 81.533C50.7154 77.314 46.3063 55.627 46.3063 55.627" fill="#FFA800"/>
<path d="M42.2766 63.7397C42.2766 63.7397 48.5845 68.6921 50.0171 72.1778C51.4489 75.6634 50.6614 85.6526 50.6614 85.6526C50.6614 85.6526 53.7636 74.9292 53.2482 71.8111C52.7327 68.6921 42.2766 63.7397 42.2766 63.7397" fill="#895A00"/>
<path d="M47.9314 92.7114L41.563 111.8C41.563 111.8 46.1981 120.1 46.4734 120.994C46.7478 121.888 44.7472 125.81 44.7472 125.81C44.7472 125.81 46.4733 126.978 47.023 127.598C47.5734 128.217 45.9913 132.207 45.9913 132.207L39.6651 144.395C39.6651 144.395 47.8065 134.017 47.9314 133.559C48.0555 133.102 49.4992 128.148 49.4992 127.323C49.4992 126.498 47.194 124.915 47.194 124.915C47.194 124.915 49.1564 121.407 49.018 120.651C48.8804 119.893 43.6527 111.088 43.6527 111.088L47.9314 92.7114" fill="#895A00"/>
<path d="M96.0239 129.409C96.0239 129.409 56.2923 131.977 54.6044 132.528C52.9156 133.078 94.5555 139.498 94.5555 139.498L70.9985 133.559L96.0239 129.409Z" fill="#895A00"/>
<path d="M107.561 119.898C107.459 119.982 107.362 120.06 107.255 120.14C106.336 120.831 105.34 121.448 104.291 121.961C102.212 122.984 99.9375 123.606 97.6665 123.622C97.0715 123.629 96.4813 123.598 95.8943 123.508C95.413 123.453 94.9413 123.354 94.4641 123.227C91.921 122.545 89.786 121.013 88.1379 118.996C87.7616 118.54 87.4124 118.056 87.0903 117.544C85.9265 115.724 85.1064 113.634 84.6888 111.481C84.4924 110.459 84.377 109.43 84.3651 108.403C84.3611 108.229 84.3627 108.059 84.3707 107.896C84.4168 101.654 87.1993 95.7356 90.3699 90.3608C94.9636 82.5846 101.188 71.9789 109.8 68.02C111.973 67.0233 114.384 66.8952 116.715 67.4067C117.626 67.6056 118.528 67.9031 119.393 68.2825C119.834 68.4702 120.264 68.6786 120.679 68.9157C121.17 69.1837 121.652 69.4733 122.111 69.797C122.522 70.0826 122.916 70.3856 123.295 70.7046C123.684 71.0347 124.063 71.3871 124.414 71.7562C124.922 72.2748 125.388 72.8276 125.804 73.4083C126.142 73.8808 126.447 74.366 126.703 74.868C127.033 75.4725 127.298 76.089 127.508 76.7285C129.421 82.6554 127.048 89.0507 124.351 94.6554C121.859 99.8584 119.058 104.903 115.98 109.78C113.626 113.511 111.041 117.202 107.561 119.898" fill="#20795A"/>
<path d="M84.6888 111.481C84.4924 110.459 84.377 109.43 84.3651 108.403C84.3611 108.229 84.3627 108.059 84.3707 107.896C84.4741 107.631 84.5783 107.367 84.692 107.103C88.1713 98.7941 93.0967 90.9733 98.1279 83.5208C102.757 76.6673 108.657 69.972 116.715 67.4067C117.626 67.6056 118.528 67.9031 119.393 68.2825L119.262 68.3183C114.469 69.3611 110.246 71.9964 106.732 75.3643C103.276 78.6813 100.511 82.618 97.9274 86.6318C95.5395 90.3306 93.2017 94.0668 91.0229 97.8913C88.5515 102.236 86.3123 106.762 84.6888 111.481" fill="#51C292"/>
<path d="M88.1376 118.996C87.7614 118.54 87.4122 118.056 87.09 117.544C88.0732 115.29 89.046 113.036 90.0292 110.781C91.9168 106.444 93.5427 101.812 96.0602 97.7887C98.4935 93.9085 101.793 90.6655 104.242 86.7909C106.656 82.9656 108.841 79.0202 112.047 75.7843C114.644 73.1626 117.628 70.9854 120.678 68.9157C121.17 69.1837 121.651 69.4733 122.111 69.797C118.339 72.3512 114.62 75.0303 111.641 78.5072C108.723 81.9109 106.753 85.978 104.206 89.6418C101.616 93.3716 98.3265 96.5494 96.236 100.618C94.1353 104.709 92.4601 109.059 90.6242 113.275C89.7961 115.187 88.9689 117.089 88.1376 118.996Z" fill="#51C292"/>
<path d="M97.6663 123.622C97.0713 123.629 96.4811 123.598 95.8941 123.508C97.7745 120.787 99.4537 117.928 100.99 114.995C104.986 107.363 107.99 99.2945 111.369 91.3925C114.508 84.0522 118.108 76.8224 123.295 70.7046C123.684 71.0347 124.063 71.3871 124.414 71.7562C121.587 75.0986 119.227 78.8022 117.18 82.6681C113.162 90.2344 110.268 98.3335 106.861 106.177C104.239 112.217 101.327 118.16 97.6663 123.622" fill="#51C292"/>
<path d="M107.561 119.898C107.459 119.982 107.362 120.06 107.255 120.14C106.336 120.831 105.34 121.448 104.291 121.961C105.118 120.808 105.911 119.634 106.677 118.433C111.384 111.085 114.931 103.141 117.481 94.8097C119.72 87.4948 121.603 79.8809 125.804 73.4083C126.142 73.8808 126.447 74.3661 126.703 74.868C124.662 78.1826 123.179 81.8066 121.948 85.5023C120.594 89.5503 119.504 93.6794 118.171 97.737C116.841 101.806 115.25 105.788 113.378 109.639C111.658 113.177 109.712 116.603 107.561 119.898" fill="#51C292"/>
<path d="M110.046 101.789C109.463 102.847 112.553 108.095 111.617 106.492C110.681 104.888 104.834 100.66 103.848 101.597C102.86 102.533 107.983 111.566 107.983 111.566C107.983 111.566 102.413 105.482 100.874 107.663C100.372 108.376 100.731 109.821 101.431 111.438C99.5787 110.759 97.9576 110.548 97.929 111.887C97.8606 115.039 105.794 118.837 105.794 118.837C115.423 122.265 116.766 106.103 116.766 106.103C116.766 106.103 110.629 100.731 110.046 101.789Z" fill="#F68672"/>
<path d="M41.8589 30.8712L30.1635 20.1239L26.3779 28.1142L41.8589 30.8712Z" fill="white"/>
<path d="M46.8774 29.6749L48.0531 19.7652L42.6019 20.4684L46.8774 29.6749Z" fill="white"/>
<path d="M41.3498 37.8162L30.7569 37.8329L31.2302 42.853L41.3498 37.8162Z" fill="white"/>
</svg>
