<svg width="29" height="29" viewBox="0 0 29 29" fill="none" xmlns="http://www.w3.org/2000/svg">
<g id="Group 812">
<path id="Vector" d="M25.5392 14.0818C25.5392 12.7415 25.1114 11.4357 24.3176 10.3531C23.5239 9.27048 22.4051 8.46694 21.1229 8.05845C19.8406 7.64995 18.4611 7.65763 17.1835 8.08037C15.9059 8.50312 14.7963 9.31906 14.0147 10.4105L25.5392 14.0818ZM8.02173 7.81348C8.49917 4.21077 17.3681 -2.61364 23.9515 1.04868V2.59162C23.9515 2.59162 16.7164 3.20653 13.025 9.31417" fill="white"/>
<path id="Vector_2" d="M0 14.0818C0 17.7838 1.4771 21.3341 4.10636 23.9518C6.73562 26.5694 10.3017 28.04 14.02 28.04C17.7383 28.04 21.3044 26.5694 23.9336 23.9518C26.5629 21.3341 28.04 17.7838 28.04 14.0818H0ZM15.2045 14.0818C15.2045 12.4048 14.5353 10.7964 13.3442 9.61051C12.1531 8.42464 10.5376 7.75842 8.85306 7.75842C7.16856 7.75842 5.55304 8.42464 4.36192 9.61051C3.17079 10.7964 2.50162 12.4048 2.50162 14.0818" fill="white"/>
</g>
</svg>
