<svg width="293" height="280" viewBox="0 0 293 280" fill="none" xmlns="http://www.w3.org/2000/svg">
<path d="M266.868 140.618C266.868 127.233 262.398 114.194 254.104 103.384C245.809 92.5728 234.119 84.5488 220.72 80.4697C207.322 76.3905 192.907 76.4672 179.557 80.6886C166.207 84.91 154.612 93.0578 146.445 103.956L266.868 140.618ZM83.822 78.0235C88.8109 42.0477 181.486 -26.0992 250.278 10.4718V25.8793C250.278 25.8793 174.676 32.0196 136.103 93.009" fill="#FF0000"/>
<path d="M0 140.617C0 177.584 15.4348 213.036 42.9089 239.176C70.3829 265.315 107.646 280 146.5 280C185.354 280 222.617 265.315 250.091 239.176C277.565 213.036 293 177.584 293 140.617H0ZM158.877 140.617C158.877 123.87 151.885 107.809 139.438 95.9676C126.992 84.1257 110.111 77.4731 92.5088 77.4731C74.9068 77.4731 58.0257 84.1257 45.5792 95.9676C33.1327 107.809 26.1403 123.87 26.1403 140.617" fill="#FF0000"/>
</svg>
