<svg width="19" height="19" viewBox="0 0 19 19" fill="none" xmlns="http://www.w3.org/2000/svg">
<path d="M8.00098 7.92447C8.00098 8.39716 8.13229 8.46719 8.42993 8.57223L8.8764 8.72979V7.2417H8.61377C8.28111 7.2417 8.00098 7.54807 8.00098 7.92447Z" fill="#4285F4"/>
<path d="M10.1895 12.0569H10.4521C10.7935 12.0569 11.0649 11.7506 11.0649 11.3742C11.0649 10.9015 10.9336 10.8315 10.6359 10.7264L10.1895 10.5688V12.0569Z" fill="#4285F4"/>
<path d="M16.1692 3.94025L14.3746 5.73472C14.2433 5.86602 14.077 5.92729 13.9106 5.92729C13.7443 5.92729 13.578 5.86602 13.4466 5.73472C13.1928 5.48087 13.1928 5.0607 13.4466 4.80685L15.2413 3.01238C13.7005 1.69936 11.7133 0.894043 9.53351 0.894043C4.70119 0.894043 0.779297 4.8156 0.779297 9.64752C0.779297 14.4794 4.70119 18.401 9.53351 18.401C14.3658 18.401 18.2877 14.4794 18.2877 9.64752C18.2877 7.4679 17.4823 5.48087 16.1692 3.94025ZM11.0655 9.48996C11.6258 9.69129 12.3786 10.0939 12.3786 11.3807C12.3786 12.4749 11.512 13.3765 10.4527 13.3765H10.1901V13.5953C10.1901 13.9542 9.89244 14.2519 9.53351 14.2519C9.17459 14.2519 8.87695 13.9542 8.87695 13.5953V13.3765H8.80691C7.6426 13.3765 6.68839 12.3961 6.68839 11.1881C6.68839 10.8205 6.98604 10.5229 7.34496 10.5229C7.70388 10.5229 8.00153 10.8205 8.00153 11.1794C8.00153 11.6608 8.36045 12.0547 8.80691 12.0547H8.87695V10.1115L8.00153 9.80508C7.44126 9.60375 6.68839 9.20109 6.68839 7.91433C6.68839 6.82015 7.55506 5.91854 8.61432 5.91854H8.87695V5.70846C8.87695 5.34956 9.17459 5.05194 9.53351 5.05194C9.89244 5.05194 10.1901 5.34956 10.1901 5.70846V5.92729H10.2601C11.4244 5.92729 12.3786 6.90768 12.3786 8.11566C12.3786 8.47456 12.081 8.77217 11.7221 8.77217C11.3631 8.77217 11.0655 8.47456 11.0655 8.11566C11.0655 7.63422 10.7066 7.24031 10.2601 7.24031H10.1901V9.18359L11.0655 9.48996Z" fill="#4285F4"/>
<path d="M18.8924 0.640941C18.8224 0.483379 18.6998 0.352076 18.5335 0.282049C18.4547 0.255788 18.3759 0.238281 18.2884 0.238281H14.7867C14.4278 0.238281 14.1301 0.5359 14.1301 0.894792C14.1301 1.25368 14.4278 1.5513 14.7867 1.5513H16.7039L15.2419 3.01313C15.5746 3.302 15.881 3.60837 16.1699 3.941L17.6318 2.47917V4.39618C17.6318 4.75508 17.9295 5.05269 18.2884 5.05269C18.6473 5.05269 18.9449 4.75508 18.9449 4.39618V0.894792C18.9449 0.807257 18.9274 0.728476 18.8924 0.640941Z" fill="#4285F4"/>
</svg>
