<svg width="20" height="20" viewBox="0 0 20 20" fill="none" xmlns="http://www.w3.org/2000/svg">
<path d="M19.2033 0.617584C19.0985 0.513241 18.9661 0.440998 18.8216 0.409348C18.6771 0.377699 18.5266 0.38796 18.3877 0.438923L1.29842 6.65321C1.15104 6.70911 1.02415 6.80853 0.934613 6.93825C0.845074 7.06798 0.797119 7.22188 0.797119 7.3795C0.797119 7.53713 0.845074 7.69103 0.934613 7.82075C1.02415 7.95048 1.15104 8.0499 1.29842 8.1058L7.97101 10.7702L12.8958 5.82982L13.9911 6.92508L9.04297 11.8732L11.7151 18.5458C11.7727 18.6903 11.8723 18.8143 12.0011 18.9015C12.1299 18.9888 12.282 19.0353 12.4375 19.0352C12.5945 19.032 12.7468 18.9812 12.8744 18.8897C13.002 18.7982 13.0988 18.6702 13.1522 18.5225L19.3665 1.43321C19.4194 1.29578 19.4321 1.14613 19.4033 1.00172C19.3744 0.857313 19.305 0.724089 19.2033 0.617584Z" fill="#D84D4D"/>
</svg>
