<?xml version="1.0" standalone="no"?>
<!DOCTYPE svg PUBLIC "-//W3C//DTD SVG 20010904//EN"
 "http://www.w3.org/TR/2001/REC-SVG-20010904/DTD/svg10.dtd">
<svg version="1.0" xmlns="http://www.w3.org/2000/svg"
 width="304.000000pt" height="330.000000pt" viewBox="0 0 304.000000 330.000000"
 preserveAspectRatio="xMidYMid meet">

<g transform="translate(0.000000,330.000000) scale(0.100000,-0.100000)"
fill="#000000" stroke="none">
<path d="M636 3218 c-120 -12 -240 -88 -300 -190 -40 -68 -56 -149 -56 -278 0
-78 -4 -121 -13 -132 -8 -11 -33 -17 -80 -20 -53 -3 -72 -9 -90 -26 -21 -22
-22 -30 -25 -265 -2 -133 0 -257 3 -275 8 -42 36 -59 115 -67 36 -3 70 -11 75
-16 6 -6 10 -193 10 -518 l0 -507 -27 -41 c-37 -57 -48 -104 -48 -218 0 -125
11 -166 60 -219 37 -40 59 -51 150 -73 l35 -9 5 -121 c7 -170 -2 -163 212
-163 212 0 208 -3 208 134 0 51 3 108 6 125 l7 31 633 0 634 0 10 -26 c6 -14
10 -69 10 -122 0 -147 -7 -142 204 -142 218 0 207 -8 215 162 l6 121 56 12
c79 15 131 52 163 116 24 48 26 64 26 169 0 123 -8 163 -47 220 l-23 35 0 516
c0 578 -7 529 74 529 55 0 104 17 116 40 6 11 10 130 10 284 l0 265 -26 20
c-20 15 -41 21 -81 21 -92 0 -93 2 -93 143 0 143 -16 217 -63 296 -41 68 -95
115 -177 155 l-65 31 -270 2 c-709 7 -1497 7 -1559 1z m1410 -230 c28 -31 34
-46 34 -82 0 -55 -35 -101 -87 -115 -57 -16 -940 -2 -974 15 -56 28 -72 113
-33 172 33 51 42 52 552 49 l474 -2 34 -37z m-629 -918 c2 -308 -1 -511 -7
-520 -8 -13 -68 -15 -437 -15 -235 0 -436 3 -445 7 -17 7 -18 41 -18 507 0
275 3 507 6 515 6 15 52 16 453 14 l446 -3 2 -505z m1114 483 c6 -17 9 -197 7
-511 -3 -469 -4 -484 -23 -498 -30 -22 -871 -16 -885 6 -11 16 -14 970 -4
1008 l6 22 444 0 444 0 11 -27z m-1660 -1240 c42 -25 59 -69 59 -157 0 -92
-17 -139 -62 -166 -28 -17 -50 -20 -146 -20 -123 0 -154 9 -191 56 -18 23 -21
41 -21 121 0 162 23 182 208 183 99 0 130 -3 153 -17z m1594 3 c50 -21 65 -59
65 -166 0 -158 -25 -180 -207 -180 -128 0 -153 7 -187 53 -28 38 -35 175 -13
230 26 62 64 77 195 77 75 0 124 -5 147 -14z"/>
</g>
</svg>
