<svg width="19" height="18" viewBox="0 0 19 18" fill="none" xmlns="http://www.w3.org/2000/svg">
<path d="M9.33577 0.19043C11.6729 0.19043 13.9144 1.11887 15.567 2.7715C17.2197 4.42413 18.1481 6.66559 18.1481 9.00276C18.1481 11.3399 17.2197 13.5814 15.567 15.234C13.9144 16.8867 11.6729 17.8151 9.33577 17.8151C6.99859 17.8151 4.75714 16.8867 3.10451 15.234C1.45188 13.5814 0.523438 11.3399 0.523438 9.00276C0.523437 6.66559 1.45188 4.42413 3.10451 2.7715C4.75714 1.11887 6.99859 0.19043 9.33577 0.19043ZM9.80282 3.95707C8.77808 3.95707 7.97489 4.24788 7.37943 4.82949C6.77012 5.41111 6.47931 6.21429 6.47931 7.23904H8.05798C8.05798 6.65742 8.16877 6.20044 8.40418 5.88194C8.66729 5.49419 9.09658 5.31417 9.70589 5.31417C10.1767 5.31417 10.5506 5.4388 10.8137 5.70191C11.063 5.96502 11.2015 6.32507 11.2015 6.78205C11.2015 7.12825 11.0768 7.4606 10.8276 7.76526L10.6614 7.95913C9.76128 8.76231 9.22121 9.34392 9.04119 9.71782C8.84731 10.0917 8.76423 10.5487 8.76423 11.0749V11.2688H10.3567V11.0749C10.3567 10.7426 10.426 10.4518 10.5645 10.1748C10.6891 9.92554 10.8691 9.69012 11.1184 9.4824C11.7831 8.90079 12.1847 8.5269 12.3093 8.38842C12.6417 7.94528 12.8217 7.37752 12.8217 6.68512C12.8217 5.84039 12.5447 5.17569 11.9908 4.69101C11.4369 4.19249 10.7029 3.95707 9.80282 3.95707ZM9.55356 11.9473C9.27121 11.9397 8.99733 12.0443 8.79192 12.2381C8.69051 12.3337 8.61082 12.4499 8.55826 12.5789C8.50569 12.7079 8.48148 12.8467 8.48727 12.9859C8.48727 13.2906 8.5842 13.5399 8.79192 13.7337C8.99579 13.9316 9.26947 14.0411 9.55356 14.0384C9.85822 14.0384 10.1075 13.9414 10.3152 13.7476C10.4188 13.6501 10.5006 13.5319 10.5555 13.4007C10.6104 13.2694 10.637 13.1281 10.6337 12.9859C10.6364 12.8471 10.6107 12.7092 10.5583 12.5807C10.506 12.4521 10.4279 12.3356 10.329 12.2381C10.1183 12.0439 9.84007 11.9396 9.55356 11.9473Z" fill="white"/>
</svg>
