<svg width="18" height="17" viewBox="0 0 18 17" fill="none" xmlns="http://www.w3.org/2000/svg">
<g id="Page-1">
<g id="Dribbble-Light-Preview">
<g id="icons">
<path id="edit_fill-[#1480]" fill-rule="evenodd" clip-rule="evenodd" d="M0.510132 15.6905C0.510132 15.9666 0.733989 16.1905 1.01013 16.1905H17.0101C17.2863 16.1905 17.5101 15.9666 17.5101 15.6905V15.0801C17.5101 14.804 17.2863 14.5801 17.0101 14.5801H1.01013C0.73399 14.5801 0.510132 14.804 0.510132 15.0801V15.6905ZM9.01976 11.2256C8.92725 11.3116 8.80562 11.3594 8.67931 11.3594H6.11013C5.83399 11.3594 5.61013 11.1356 5.61013 10.8594V8.26761C5.61013 8.13174 5.66542 8.00173 5.76328 7.90748L13.6303 0.330392C13.8223 0.145381 14.1258 0.1437 14.32 0.326573L17.1212 2.96547C17.3317 3.16375 17.3306 3.4987 17.1189 3.6956L9.01976 11.2256Z" fill="#CB585A"/>
</g>
</g>
</g>
</svg>
