<svg width="22" height="23" viewBox="0 0 22 23" fill="none" xmlns="http://www.w3.org/2000/svg">
<path d="M8.09 8.35156C8.3251 7.68323 8.78915 7.11967 9.4 6.76069C10.0108 6.40172 10.7289 6.2705 11.4272 6.39027C12.1255 6.51005 12.7588 6.87308 13.2151 7.41509C13.6713 7.95709 13.9211 8.64308 13.92 9.35156C13.92 11.3516 10.92 12.3516 10.92 12.3516M11 16.3516H11.01M21 11.3516C21 16.8744 16.5228 21.3516 11 21.3516C5.47715 21.3516 1 16.8744 1 11.3516C1 5.82871 5.47715 1.35156 11 1.35156C16.5228 1.35156 21 5.82871 21 11.3516Z" stroke="#CB585A" stroke-width="1.61" stroke-linecap="round" stroke-linejoin="round"/>
</svg>
