<svg width="22" height="23" viewBox="0 0 22 23" fill="none" xmlns="http://www.w3.org/2000/svg">
<path d="M8.09 8.62061C8.3251 7.95228 8.78915 7.38872 9.4 7.02974C10.0108 6.67077 10.7289 6.53955 11.4272 6.65932C12.1255 6.7791 12.7588 7.14213 13.2151 7.68414C13.6713 8.22614 13.9211 8.91213 13.92 9.62061C13.92 11.6206 10.92 12.6206 10.92 12.6206M11 16.6206H11.01H11ZM21 11.6206C21 17.1434 16.5228 21.6206 11 21.6206C5.47715 21.6206 1 17.1434 1 11.6206C1 6.09776 5.47715 1.62061 11 1.62061C16.5228 1.62061 21 6.09776 21 11.6206Z" fill="#CB585A"/>
<path d="M8.09 8.62061C8.3251 7.95228 8.78915 7.38872 9.4 7.02974C10.0108 6.67077 10.7289 6.53955 11.4272 6.65932C12.1255 6.7791 12.7588 7.14213 13.2151 7.68414C13.6713 8.22614 13.9211 8.91213 13.92 9.62061C13.92 11.6206 10.92 12.6206 10.92 12.6206M11 16.6206H11.01M21 11.6206C21 17.1434 16.5228 21.6206 11 21.6206C5.47715 21.6206 1 17.1434 1 11.6206C1 6.09776 5.47715 1.62061 11 1.62061C16.5228 1.62061 21 6.09776 21 11.6206Z" stroke="white" stroke-width="1.61" stroke-linecap="round" stroke-linejoin="round"/>
</svg>
