<svg width="19" height="19" viewBox="0 0 19 19" fill="none" xmlns="http://www.w3.org/2000/svg">
<path d="M7.71191 8.11783C7.71191 8.59052 7.84323 8.66055 8.14087 8.76559L8.58734 8.92315V7.43506H8.32471C7.99205 7.43506 7.71191 7.74143 7.71191 8.11783Z" fill="white"/>
<path d="M9.90039 12.2503H10.163C10.5044 12.2503 10.7758 11.9439 10.7758 11.5675C10.7758 11.0948 10.6445 11.0248 10.3469 10.9198L9.90039 10.7622V12.2503Z" fill="white"/>
<path d="M15.8801 4.13361L14.0855 5.92808C13.9542 6.05938 13.7879 6.12065 13.6216 6.12065C13.4552 6.12065 13.2889 6.05938 13.1576 5.92808C12.9037 5.67422 12.9037 5.25406 13.1576 5.00021L14.9522 3.20574C13.4115 1.89272 11.4243 1.0874 9.24445 1.0874C4.41212 1.0874 0.490234 5.00896 0.490234 9.84088C0.490234 14.6728 4.41212 18.5944 9.24445 18.5944C14.0768 18.5944 17.9987 14.6728 17.9987 9.84088C17.9987 7.66126 17.1933 5.67422 15.8801 4.13361ZM10.7764 9.68332C11.3367 9.88465 12.0896 10.2873 12.0896 11.5741C12.0896 12.6683 11.2229 13.5699 10.1636 13.5699H9.90102V13.7887C9.90102 14.1476 9.60337 14.4452 9.24445 14.4452C8.88553 14.4452 8.58788 14.1476 8.58788 13.7887V13.5699H8.51785C7.35354 13.5699 6.39933 12.5895 6.39933 11.3815C6.39933 11.0138 6.69697 10.7162 7.0559 10.7162C7.41482 10.7162 7.71246 11.0138 7.71246 11.3727C7.71246 11.8542 8.07139 12.2481 8.51785 12.2481H8.58788V10.3048L7.71246 9.99844C7.15219 9.79711 6.39933 9.39445 6.39933 8.10769C6.39933 7.01351 7.266 6.1119 8.32526 6.1119H8.58788V5.90181C8.58788 5.54292 8.88553 5.2453 9.24445 5.2453C9.60337 5.2453 9.90102 5.54292 9.90102 5.90181V6.12065H9.97105C11.1354 6.12065 12.0896 7.10104 12.0896 8.30902C12.0896 8.66791 11.7919 8.96553 11.433 8.96553C11.0741 8.96553 10.7764 8.66791 10.7764 8.30902C10.7764 7.82758 10.4175 7.43367 9.97105 7.43367H9.90102V9.37695L10.7764 9.68332Z" fill="white"/>
<path d="M18.6034 0.834301C18.5333 0.676738 18.4108 0.545436 18.2444 0.475408C18.1656 0.449148 18.0869 0.431641 17.9993 0.431641H14.4976C14.1387 0.431641 13.8411 0.729259 13.8411 1.08815C13.8411 1.44704 14.1387 1.74466 14.4976 1.74466H16.4148L14.9529 3.20649C15.2855 3.49536 15.5919 3.80173 15.8808 4.13436L17.3428 2.67253V4.58954C17.3428 4.94844 17.6404 5.24605 17.9993 5.24605C18.3582 5.24605 18.6559 4.94844 18.6559 4.58954V1.08815C18.6559 1.00062 18.6384 0.921835 18.6034 0.834301Z" fill="white"/>
</svg>
