<svg width="24" height="24" viewBox="0 0 24 24" fill="none" xmlns="http://www.w3.org/2000/svg">
<path d="M17.8681 21.8722C17.5581 21.8722 17.2481 21.7922 16.9681 21.6222L12.9581 19.2422C12.5381 19.2322 12.1181 19.2022 11.7181 19.1422C11.5845 19.1227 11.4585 19.068 11.353 18.9836C11.2475 18.8993 11.1665 18.7883 11.1181 18.6622C11.0181 18.4022 11.0681 18.1222 11.2481 17.9122C11.9081 17.1422 12.2481 16.2222 12.2481 15.2422C12.2481 12.8222 10.1181 10.8522 7.49813 10.8522C6.51813 10.8522 5.57812 11.1222 4.78813 11.6422C4.68063 11.711 4.55752 11.7515 4.4302 11.76C4.30288 11.7685 4.17548 11.7447 4.05979 11.6908C3.94411 11.637 3.8439 11.5548 3.76844 11.4519C3.69298 11.349 3.64471 11.2287 3.62812 11.1022C3.59623 10.82 3.57954 10.5362 3.57812 10.2522C3.57812 5.29221 7.87812 1.26221 13.1581 1.26221C18.4381 1.26221 22.7381 5.29221 22.7381 10.2522C22.7381 12.9722 21.4781 15.4722 19.2581 17.1822L19.5981 19.9022C19.629 20.1481 19.6073 20.3977 19.5346 20.6345C19.4618 20.8714 19.3397 21.0901 19.1762 21.2763C19.0127 21.4625 18.8116 21.6119 18.5861 21.7146C18.3606 21.8173 18.1159 21.871 17.8681 21.8722ZM13.1481 17.7322C13.2881 17.7222 13.4281 17.7622 13.5481 17.8422L17.7381 20.3322C17.8481 20.4022 17.9381 20.3722 17.9981 20.3322C18.0481 20.3022 18.1281 20.2222 18.1081 20.0822L17.7181 16.9222C17.6881 16.6422 17.8081 16.3722 18.0281 16.2122C20.0681 14.7822 21.2381 12.6022 21.2381 10.2322C21.2381 6.10221 17.6181 2.74221 13.1581 2.74221C8.86812 2.74221 5.34812 5.86221 5.08812 9.78221C5.83812 9.49221 6.64812 9.33221 7.48812 9.33221C10.9381 9.33221 13.7381 11.9722 13.7381 15.2222C13.7481 16.1022 13.5381 16.9522 13.1481 17.7322Z" fill="#CB585A"/>
<path d="M4.57781 22.7499C4.31781 22.7499 4.06781 22.6799 3.83781 22.5299C3.61882 22.3919 3.44342 22.1946 3.33192 21.961C3.22042 21.7274 3.17739 21.467 3.20781 21.2099L3.40781 19.6699C2.05781 18.5699 1.25781 16.9399 1.25781 15.2299C1.25781 13.2799 2.27781 11.4599 3.98781 10.3699C5.03661 9.69286 6.25948 9.33503 7.50781 9.33989C10.9578 9.33989 13.7578 11.9799 13.7578 15.2299C13.7578 16.5499 13.2778 17.8499 12.3978 18.8799C11.2678 20.2499 9.57781 21.0499 7.71781 21.1099L5.27781 22.5599C5.05781 22.6899 4.81781 22.7499 4.57781 22.7499ZM7.49781 10.8399C6.51781 10.8399 5.57781 11.1099 4.78781 11.6299C3.50781 12.4499 2.74781 13.7899 2.74781 15.2299C2.74781 16.6199 3.42781 17.8899 4.62781 18.7099C4.85781 18.8699 4.97781 19.1399 4.94781 19.4199L4.72781 21.1299L7.11781 19.7099C7.23781 19.6399 7.36781 19.5999 7.49781 19.5999C8.96781 19.5999 10.3578 18.9699 11.2378 17.8999C11.8978 17.1199 12.2478 16.1999 12.2478 15.2199C12.2478 12.8099 10.1178 10.8399 7.49781 10.8399Z" fill="#CB585A"/>
</svg>
