<svg width="24" height="24" viewBox="0 0 24 24" fill="none" xmlns="http://www.w3.org/2000/svg">
<path d="M18.4702 16.83L18.8603 19.99C18.9603 20.82 18.0703 21.4 17.3603 20.97L13.9002 18.91C13.6602 18.77 13.6002 18.47 13.7302 18.23C14.2302 17.31 14.5002 16.27 14.5002 15.23C14.5002 11.57 11.3602 8.59 7.50025 8.59C6.71025 8.59 5.94025 8.71 5.22025 8.95C5.13512 8.97626 5.04456 8.97953 4.95776 8.95948C4.87096 8.93943 4.79101 8.89678 4.72602 8.83585C4.66102 8.77492 4.61331 8.69788 4.58771 8.61255C4.56211 8.52723 4.55953 8.43664 4.58025 8.35C5.49025 4.71 8.99025 2 13.1702 2C18.0503 2 22.0002 5.69 22.0002 10.24C22.0002 12.94 20.6102 15.33 18.4702 16.83Z" fill="#CB585A"/>
<path d="M13 15.2298C13 16.4198 12.56 17.5198 11.82 18.3898C10.83 19.5898 9.26 20.3598 7.5 20.3598L4.89 21.9098C4.45 22.1798 3.89 21.8098 3.95 21.2998L4.2 19.3298C2.86 18.3998 2 16.9098 2 15.2298C2 13.4698 2.94 11.9198 4.38 10.9998C5.27 10.4198 6.34 10.0898 7.5 10.0898C10.54 10.0898 13 12.3898 13 15.2298Z" fill="#CB585A"/>
</svg>
