<svg width="22" height="23" viewBox="0 0 22 23" fill="none" xmlns="http://www.w3.org/2000/svg">
<path d="M11.0231 9.88166C13.751 9.88166 15.9623 7.95366 15.9623 5.57535C15.9623 3.19704 13.751 1.26904 11.0231 1.26904C8.29532 1.26904 6.08398 3.19704 6.08398 5.57535C6.08398 7.95366 8.29532 9.88166 11.0231 9.88166Z" fill="#CB585A" stroke="white" stroke-width="1.57843"/>
<path d="M21 21.269C21 20.124 20.7412 18.9902 20.2384 17.9323C19.7356 16.8745 18.9987 15.9134 18.0697 15.104C17.1407 14.2946 16.0379 13.6527 14.8243 13.215C13.6107 12.7774 12.3101 12.5525 10.9967 12.5532C8.34542 12.5532 5.80272 13.4715 3.92797 15.106C2.05322 16.7406 1 18.9575 1 21.269H21Z" fill="#CB585A" stroke="white" stroke-width="1.57843"/>
</svg>
