<svg width="24" height="23" viewBox="0 0 24 23" fill="none" xmlns="http://www.w3.org/2000/svg">
<path d="M11.7744 9.73308C14.7069 9.73308 17.084 7.77812 17.084 5.36654C17.084 2.95497 14.7069 1 11.7744 1C8.84203 1 6.46484 2.95497 6.46484 5.36654C6.46484 7.77812 8.84203 9.73308 11.7744 9.73308Z" stroke="#CB585A" stroke-width="1.57843"/>
<path d="M22.5 21.2796C22.5 20.1186 22.2218 18.9689 21.6813 17.8962C21.1408 16.8236 20.3486 15.8491 19.3499 15.0284C18.3513 14.2076 17.1658 13.5568 15.8611 13.113C14.5565 12.6692 13.1583 12.4411 11.7465 12.4419C8.89633 12.4419 6.16292 13.373 4.14757 15.0304C2.13221 16.6878 1 18.9357 1 21.2796H22.5Z" stroke="#CB585A" stroke-width="1.57843"/>
</svg>
