<svg width="24" height="23" viewBox="0 0 24 23" fill="none" xmlns="http://www.w3.org/2000/svg">
<path d="M11.7447 14.3644C13.5248 14.3644 14.9679 12.9213 14.9679 11.1412C14.9679 9.36099 13.5248 7.91797 11.7447 7.91797C9.96451 7.91797 8.52148 9.36099 8.52148 11.1412C8.52148 12.9213 9.96451 14.3644 11.7447 14.3644Z" stroke="#CB585A" stroke-width="1.6116" stroke-miterlimit="10" stroke-linecap="round" stroke-linejoin="round"/>
<path d="M1 12.0866V10.1956C1 9.07824 1.91324 8.1543 3.04135 8.1543C4.98601 8.1543 5.78107 6.77908 4.80337 5.09227C4.24468 4.12531 4.57774 2.86827 5.55544 2.30958L7.41415 1.24593C8.26292 0.740964 9.35881 1.0418 9.86377 1.89057L9.98196 2.0947C10.9489 3.78151 12.539 3.78151 13.5167 2.0947L13.6349 1.89057C14.1399 1.0418 15.2358 0.740964 16.0845 1.24593L17.9432 2.30958C18.9209 2.86827 19.254 4.12531 18.6953 5.09227C17.7176 6.77908 18.5127 8.1543 20.4573 8.1543C21.5747 8.1543 22.4987 9.0675 22.4987 10.1956V12.0866C22.4987 13.2039 21.5854 14.1279 20.4573 14.1279C18.5127 14.1279 17.7176 15.5031 18.6953 17.1899C19.254 18.1676 18.9209 19.4139 17.9432 19.9726L16.0845 21.0363C15.2358 21.5412 14.1399 21.2404 13.6349 20.3916L13.5167 20.1875C12.5498 18.5007 10.9597 18.5007 9.98196 20.1875L9.86377 20.3916C9.35881 21.2404 8.26292 21.5412 7.41415 21.0363L5.55544 19.9726C4.57774 19.4139 4.24468 18.1569 4.80337 17.1899C5.78107 15.5031 4.98601 14.1279 3.04135 14.1279C1.91324 14.1279 1 13.2039 1 12.0866Z" stroke="#CB585A" stroke-width="1.6116" stroke-miterlimit="10" stroke-linecap="round" stroke-linejoin="round"/>
</svg>
