<svg width="22" height="22" viewBox="0 0 22 22" fill="none" xmlns="http://www.w3.org/2000/svg">
<path d="M1 12.2013V10.3367C1 9.23488 1.84958 8.3238 2.89905 8.3238C4.70815 8.3238 5.44778 6.96771 4.53823 5.30437C4.01849 4.35087 4.32834 3.11132 5.23788 2.5604L6.96702 1.51155C7.75662 1.01361 8.77611 1.31026 9.24588 2.14722L9.35582 2.34852C10.2554 4.01185 11.7346 4.01185 12.6442 2.34852L12.7541 2.14722C13.2239 1.31026 14.2434 1.01361 15.033 1.51155L16.7621 2.5604C17.6717 3.11132 17.9815 4.35087 17.4618 5.30437C16.5522 6.96771 17.2919 8.3238 19.101 8.3238C20.1404 8.3238 21 9.22429 21 10.3367V12.2013C21 13.3032 20.1504 14.2143 19.101 14.2143C17.2919 14.2143 16.5522 15.5704 17.4618 17.2337C17.9815 18.1978 17.6717 19.4268 16.7621 19.9777L15.033 21.0265C14.2434 21.5245 13.2239 21.2278 12.7541 20.3909L12.6442 20.1896C11.7446 18.5262 10.2654 18.5262 9.35582 20.1896L9.24588 20.3909C8.77611 21.2278 7.75662 21.5245 6.96702 21.0265L5.23788 19.9777C4.32834 19.4268 4.01849 18.1872 4.53823 17.2337C5.44778 15.5704 4.70815 14.2143 2.89905 14.2143C1.84958 14.2143 1 13.3032 1 12.2013Z" fill="#CB585A" stroke="white" stroke-width="1.22" stroke-miterlimit="10" stroke-linecap="round" stroke-linejoin="round"/>
<path d="M10.9965 14.4475C12.6526 14.4475 13.995 13.0246 13.995 11.2692C13.995 9.51376 12.6526 8.09082 10.9965 8.09082C9.34048 8.09082 7.99805 9.51376 7.99805 11.2692C7.99805 13.0246 9.34048 14.4475 10.9965 14.4475Z" stroke="white" stroke-width="1.22" stroke-miterlimit="10" stroke-linecap="round" stroke-linejoin="round"/>
</svg>
