<svg width="22" height="22" viewBox="0 0 22 22" fill="none" xmlns="http://www.w3.org/2000/svg">
<path d="M20.9987 4.60238C20.9987 6.44332 19.5064 7.93571 17.6654 7.93571C15.8244 7.93571 14.332 6.44332 14.332 4.60238C14.332 2.76143 15.8244 1.26904 17.6654 1.26904C19.5064 1.26904 20.9987 2.76143 20.9987 4.60238Z" fill="#CB585A" stroke="white" stroke-width="1.22"/>
<path d="M20.9987 17.9359C20.9987 19.7769 19.5064 21.2692 17.6654 21.2692C15.8244 21.2692 14.332 19.7769 14.332 17.9359C14.332 16.0949 15.8244 14.6025 17.6654 14.6025C19.5064 14.6025 20.9987 16.0949 20.9987 17.9359Z" fill="#CB585A" stroke="white" stroke-width="1.22"/>
<path d="M7.66667 11.2689C7.66667 13.1099 6.17428 14.6022 4.33333 14.6022C2.49239 14.6022 1 13.1099 1 11.2689C1 9.42788 2.49239 7.93555 4.33333 7.93555C6.17428 7.93555 7.66667 9.42788 7.66667 11.2689Z" fill="#CB585A" stroke="white" stroke-width="1.22"/>
<path d="M7.35742 9.7576L14.3346 6.26904L7.35742 9.7576Z" fill="#CB585A"/>
<path d="M7.35742 9.7576L14.3346 6.26904" stroke="white" stroke-width="1.22" stroke-linecap="round" stroke-linejoin="round"/>
<path d="M7.33984 12.7725L14.3331 16.2691L7.33984 12.7725Z" fill="#CB585A"/>
<path d="M7.33984 12.7725L14.3331 16.2691" stroke="white" stroke-width="1.22" stroke-linecap="round" stroke-linejoin="round"/>
</svg>
