<svg width="24" height="23" viewBox="0 0 21 21" fill="none" xmlns="http://www.w3.org/2000/svg">
<path d="M19.9993 4.16667C19.9993 5.91556 18.5816 7.33333 16.8327 7.33333C15.0837 7.33333 13.666 5.91556 13.666 4.16667C13.666 2.41777 15.0837 1 16.8327 1C18.5816 1 19.9993 2.41777 19.9993 4.16667Z" stroke="#CB585A" stroke-width="1.61"/>
<path d="M19.9993 16.8337C19.9993 18.5826 18.5816 20.0003 16.8327 20.0003C15.0837 20.0003 13.666 18.5826 13.666 16.8337C13.666 15.0847 15.0837 13.667 16.8327 13.667C18.5816 13.667 19.9993 15.0847 19.9993 16.8337Z" stroke="#CB585A" stroke-width="1.61"/>
<path d="M7.33333 10.4997C7.33333 12.2486 5.91556 13.6663 4.16667 13.6663C2.41777 13.6663 1 12.2486 1 10.4997C1 8.75072 2.41777 7.33301 4.16667 7.33301C5.91556 7.33301 7.33333 8.75072 7.33333 10.4997Z" stroke="#CB585A" stroke-width="1.61"/>
<path d="M7.03906 9.06413L13.6674 5.75" stroke="#CB585A" stroke-width="1.61" stroke-linecap="round" stroke-linejoin="round"/>
<path d="M7.02344 11.9282L13.6671 15.2501" stroke="#CB585A" stroke-width="1.61" stroke-linecap="round" stroke-linejoin="round"/>
</svg>
