<svg width="17" height="17" viewBox="0 0 17 17" fill="none" xmlns="http://www.w3.org/2000/svg">
<path id="Vector" d="M8.25507 0C8.14671 0.000227647 8.03946 0.021817 7.93945 0.0635329C7.83945 0.105249 7.74864 0.166273 7.67224 0.243114L3.4411 4.23276C3.43783 4.23539 3.43461 4.23808 3.43144 4.24081L3.42983 4.24242C3.35253 4.3197 3.30909 4.42453 3.30907 4.53383C3.30907 4.64315 3.3525 4.74798 3.42979 4.82528C3.50709 4.90257 3.61193 4.946 3.72124 4.946H6.60641V11.5407C6.60641 11.9957 6.97571 12.365 7.43074 12.365H8.25507H9.0794C9.53444 12.365 9.90374 11.9957 9.90374 11.5407V4.946H12.7889C12.8982 4.946 13.0031 4.90257 13.0803 4.82528C13.1576 4.74798 13.2011 4.64315 13.2011 4.53383C13.2011 4.42453 13.1576 4.3197 13.0803 4.24242L13.0546 4.21827L8.84595 0.249554C8.83702 0.24076 8.8279 0.232171 8.81858 0.223794C8.666 0.0803164 8.46452 0.00030083 8.25507 0ZM0.836074 14.838C0.72684 14.8365 0.618388 14.8566 0.517021 14.8974C0.415655 14.9381 0.323394 14.9986 0.245602 15.0753C0.16781 15.152 0.106038 15.2434 0.063875 15.3441C0.0217122 15.4449 0 15.5531 0 15.6623C0 15.7716 0.0217122 15.8797 0.063875 15.9805C0.106038 16.0813 0.16781 16.1727 0.245602 16.2494C0.323394 16.3261 0.415655 16.3866 0.517021 16.4273C0.618388 16.468 0.72684 16.4882 0.836074 16.4867H15.6741C15.7833 16.4882 15.8918 16.468 15.9931 16.4273C16.0945 16.3866 16.1868 16.3261 16.2645 16.2494C16.3423 16.1727 16.4041 16.0813 16.4463 15.9805C16.4884 15.8797 16.5101 15.7716 16.5101 15.6623C16.5101 15.5531 16.4884 15.4449 16.4463 15.3441C16.4041 15.2434 16.3423 15.152 16.2645 15.0753C16.1868 14.9986 16.0945 14.9381 15.9931 14.8974C15.8918 14.8566 15.7833 14.8365 15.6741 14.838H0.836074Z" fill="#CB585A"/>
</svg>
